<svg xmlns="http://www.w3.org/2000/svg" width="760" height="430" viewBox="0 0 760 430" role="img" aria-labelledby="title desc">
<title id="title">Two-class alpha-entmax probability mappings</title>
<desc id="desc">Curves for alpha-entmax applied to logits [t, 0], showing softmax at alpha 1, sparsemax at alpha 2, and intermediate sparse mappings.</desc>
<rect width="100%" height="100%" fill="white"/>
<rect x="90" y="42" width="610" height="285" fill="none" stroke="#111" stroke-width="3"/>
<line x1="191.67" y1="327" x2="191.67" y2="341" stroke="#111" stroke-width="3"/>
<text x="191.67" y="375" text-anchor="middle" font-family="Georgia, serif" font-size="30">-2</text>
<line x1="395.00" y1="327" x2="395.00" y2="341" stroke="#111" stroke-width="3"/>
<text x="395.00" y="375" text-anchor="middle" font-family="Georgia, serif" font-size="30">0</text>
<line x1="598.33" y1="327" x2="598.33" y2="341" stroke="#111" stroke-width="3"/>
<text x="598.33" y="375" text-anchor="middle" font-family="Georgia, serif" font-size="30">2</text>
<line x1="76" y1="314.05" x2="90" y2="314.05" stroke="#111" stroke-width="3"/>
<text x="65" y="324.05" text-anchor="end" font-family="Georgia, serif" font-size="30">0.0</text>
<line x1="76" y1="184.50" x2="90" y2="184.50" stroke="#111" stroke-width="3"/>
<text x="65" y="194.50" text-anchor="end" font-family="Georgia, serif" font-size="30">0.5</text>
<line x1="76" y1="54.95" x2="90" y2="54.95" stroke="#111" stroke-width="3"/>
<text x="65" y="64.95" text-anchor="end" font-family="Georgia, serif" font-size="30">1.0</text>
<text x="395.00" y="412" text-anchor="middle" font-family="Georgia, serif" font-style="italic" font-size="32">t</text>
<path d="M 90.00 301.76 L 91.69 301.56 L 93.39 301.36 L 95.08 301.16 L 96.78 300.95 L 98.47 300.74 L 100.17 300.53 L 101.86 300.32 L 103.56 300.10 L 105.25 299.88 L 106.94 299.65 L 108.64 299.42 L 110.33 299.19 L 112.03 298.96 L 113.72 298.72 L 115.42 298.48 L 117.11 298.23 L 118.81 297.98 L 120.50 297.73 L 122.19 297.47 L 123.89 297.21 L 125.58 296.95 L 127.28 296.68 L 128.97 296.41 L 130.67 296.13 L 132.36 295.85 L 134.06 295.57 L 135.75 295.28 L 137.44 294.99 L 139.14 294.69 L 140.83 294.39 L 142.53 294.09 L 144.22 293.78 L 145.92 293.46 L 147.61 293.15 L 149.31 292.82 L 151.00 292.50 L 152.69 292.16 L 154.39 291.83 L 156.08 291.49 L 157.78 291.14 L 159.47 290.79 L 161.17 290.44 L 162.86 290.08 L 164.56 289.71 L 166.25 289.34 L 167.94 288.97 L 169.64 288.59 L 171.33 288.20 L 173.03 287.81 L 174.72 287.42 L 176.42 287.01 L 178.11 286.61 L 179.81 286.20 L 181.50 285.78 L 183.19 285.36 L 184.89 284.93 L 186.58 284.50 L 188.28 284.06 L 189.97 283.61 L 191.67 283.16 L 193.36 282.70 L 195.06 282.24 L 196.75 281.77 L 198.44 281.30 L 200.14 280.82 L 201.83 280.34 L 203.53 279.84 L 205.22 279.35 L 206.92 278.84 L 208.61 278.33 L 210.31 277.82 L 212.00 277.29 L 213.69 276.76 L 215.39 276.23 L 217.08 275.69 L 218.78 275.14 L 220.47 274.59 L 222.17 274.02 L 223.86 273.46 L 225.56 272.88 L 227.25 272.30 L 228.94 271.72 L 230.64 271.12 L 232.33 270.52 L 234.03 269.92 L 235.72 269.30 L 237.42 268.68 L 239.11 268.06 L 240.81 267.42 L 242.50 266.78 L 244.19 266.13 L 245.89 265.48 L 247.58 264.82 L 249.28 264.15 L 250.97 263.47 L 252.67 262.79 L 254.36 262.10 L 256.06 261.41 L 257.75 260.71 L 259.44 260.00 L 261.14 259.28 L 262.83 258.56 L 264.53 257.83 L 266.22 257.09 L 267.92 256.35 L 269.61 255.59 L 271.31 254.84 L 273.00 254.07 L 274.69 253.30 L 276.39 252.52 L 278.08 251.74 L 279.78 250.94 L 281.47 250.15 L 283.17 249.34 L 284.86 248.53 L 286.56 247.71 L 288.25 246.88 L 289.94 246.05 L 291.64 245.21 L 293.33 244.37 L 295.03 243.51 L 296.72 242.65 L 298.42 241.79 L 300.11 240.92 L 301.81 240.04 L 303.50 239.16 L 305.19 238.26 L 306.89 237.37 L 308.58 236.47 L 310.28 235.56 L 311.97 234.64 L 313.67 233.72 L 315.36 232.79 L 317.06 231.86 L 318.75 230.92 L 320.44 229.98 L 322.14 229.03 L 323.83 228.08 L 325.53 227.12 L 327.22 226.15 L 328.92 225.18 L 330.61 224.20 L 332.31 223.22 L 334.00 222.24 L 335.69 221.25 L 337.39 220.25 L 339.08 219.25 L 340.78 218.25 L 342.47 217.24 L 344.17 216.23 L 345.86 215.21 L 347.56 214.19 L 349.25 213.17 L 350.94 212.14 L 352.64 211.10 L 354.33 210.07 L 356.03 209.03 L 357.72 207.99 L 359.42 206.94 L 361.11 205.89 L 362.81 204.84 L 364.50 203.79 L 366.19 202.73 L 367.89 201.67 L 369.58 200.61 L 371.28 199.55 L 372.97 198.48 L 374.67 197.41 L 376.36 196.34 L 378.06 195.27 L 379.75 194.20 L 381.44 193.12 L 383.14 192.05 L 384.83 190.97 L 386.53 189.89 L 388.22 188.82 L 389.92 187.74 L 391.61 186.66 L 393.31 185.58 L 395.00 184.50 L 396.69 183.42 L 398.39 182.34 L 400.08 181.26 L 401.78 180.18 L 403.47 179.11 L 405.17 178.03 L 406.86 176.95 L 408.56 175.88 L 410.25 174.80 L 411.94 173.73 L 413.64 172.66 L 415.33 171.59 L 417.03 170.52 L 418.72 169.45 L 420.42 168.39 L 422.11 167.33 L 423.81 166.27 L 425.50 165.21 L 427.19 164.16 L 428.89 163.11 L 430.58 162.06 L 432.28 161.01 L 433.97 159.97 L 435.67 158.93 L 437.36 157.90 L 439.06 156.86 L 440.75 155.83 L 442.44 154.81 L 444.14 153.79 L 445.83 152.77 L 447.53 151.76 L 449.22 150.75 L 450.92 149.75 L 452.61 148.75 L 454.31 147.75 L 456.00 146.76 L 457.69 145.78 L 459.39 144.80 L 461.08 143.82 L 462.78 142.85 L 464.47 141.88 L 466.17 140.92 L 467.86 139.97 L 469.56 139.02 L 471.25 138.08 L 472.94 137.14 L 474.64 136.21 L 476.33 135.28 L 478.03 134.36 L 479.72 133.44 L 481.42 132.53 L 483.11 131.63 L 484.81 130.74 L 486.50 129.84 L 488.19 128.96 L 489.89 128.08 L 491.58 127.21 L 493.28 126.35 L 494.97 125.49 L 496.67 124.63 L 498.36 123.79 L 500.06 122.95 L 501.75 122.12 L 503.44 121.29 L 505.14 120.47 L 506.83 119.66 L 508.53 118.85 L 510.22 118.06 L 511.92 117.26 L 513.61 116.48 L 515.31 115.70 L 517.00 114.93 L 518.69 114.16 L 520.39 113.41 L 522.08 112.65 L 523.78 111.91 L 525.47 111.17 L 527.17 110.44 L 528.86 109.72 L 530.56 109.00 L 532.25 108.29 L 533.94 107.59 L 535.64 106.90 L 537.33 106.21 L 539.03 105.53 L 540.72 104.85 L 542.42 104.18 L 544.11 103.52 L 545.81 102.87 L 547.50 102.22 L 549.19 101.58 L 550.89 100.94 L 552.58 100.32 L 554.28 99.70 L 555.97 99.08 L 557.67 98.48 L 559.36 97.88 L 561.06 97.28 L 562.75 96.70 L 564.44 96.12 L 566.14 95.54 L 567.83 94.98 L 569.53 94.41 L 571.22 93.86 L 572.92 93.31 L 574.61 92.77 L 576.31 92.24 L 578.00 91.71 L 579.69 91.18 L 581.39 90.67 L 583.08 90.16 L 584.78 89.65 L 586.47 89.16 L 588.17 88.66 L 589.86 88.18 L 591.56 87.70 L 593.25 87.23 L 594.94 86.76 L 596.64 86.30 L 598.33 85.84 L 600.03 85.39 L 601.72 84.94 L 603.42 84.50 L 605.11 84.07 L 606.81 83.64 L 608.50 83.22 L 610.19 82.80 L 611.89 82.39 L 613.58 81.99 L 615.28 81.58 L 616.97 81.19 L 618.67 80.80 L 620.36 80.41 L 622.06 80.03 L 623.75 79.66 L 625.44 79.29 L 627.14 78.92 L 628.83 78.56 L 630.53 78.21 L 632.22 77.86 L 633.92 77.51 L 635.61 77.17 L 637.31 76.84 L 639.00 76.50 L 640.69 76.18 L 642.39 75.85 L 644.08 75.54 L 645.78 75.22 L 647.47 74.91 L 649.17 74.61 L 650.86 74.31 L 652.56 74.01 L 654.25 73.72 L 655.94 73.43 L 657.64 73.15 L 659.33 72.87 L 661.03 72.59 L 662.72 72.32 L 664.42 72.05 L 666.11 71.79 L 667.81 71.53 L 669.50 71.27 L 671.19 71.02 L 672.89 70.77 L 674.58 70.52 L 676.28 70.28 L 677.97 70.04 L 679.67 69.81 L 681.36 69.58 L 683.06 69.35 L 684.75 69.12 L 686.44 68.90 L 688.14 68.68 L 689.83 68.47 L 691.53 68.26 L 693.22 68.05 L 694.92 67.84 L 696.61 67.64 L 698.31 67.44 L 700.00 67.24" fill="none" stroke="#b8b4dc" stroke-width="6" stroke-linecap="butt" stroke-linejoin="round" stroke-dasharray="8 9"/>
<path d="M 90.00 313.05 L 91.69 312.98 L 93.39 312.91 L 95.08 312.84 L 96.78 312.76 L 98.47 312.68 L 100.17 312.59 L 101.86 312.51 L 103.56 312.41 L 105.25 312.32 L 106.94 312.22 L 108.64 312.11 L 110.33 312.00 L 112.03 311.89 L 113.72 311.77 L 115.42 311.65 L 117.11 311.52 L 118.81 311.39 L 120.50 311.25 L 122.19 311.11 L 123.89 310.96 L 125.58 310.81 L 127.28 310.65 L 128.97 310.49 L 130.67 310.32 L 132.36 310.14 L 134.06 309.96 L 135.75 309.77 L 137.44 309.58 L 139.14 309.38 L 140.83 309.18 L 142.53 308.96 L 144.22 308.75 L 145.92 308.52 L 147.61 308.29 L 149.31 308.05 L 151.00 307.81 L 152.69 307.55 L 154.39 307.30 L 156.08 307.03 L 157.78 306.76 L 159.47 306.47 L 161.17 306.19 L 162.86 305.89 L 164.56 305.59 L 166.25 305.28 L 167.94 304.96 L 169.64 304.63 L 171.33 304.29 L 173.03 303.95 L 174.72 303.60 L 176.42 303.24 L 178.11 302.87 L 179.81 302.50 L 181.50 302.11 L 183.19 301.72 L 184.89 301.31 L 186.58 300.90 L 188.28 300.48 L 189.97 300.06 L 191.67 299.62 L 193.36 299.17 L 195.06 298.72 L 196.75 298.25 L 198.44 297.78 L 200.14 297.29 L 201.83 296.80 L 203.53 296.30 L 205.22 295.79 L 206.92 295.27 L 208.61 294.74 L 210.31 294.20 L 212.00 293.65 L 213.69 293.09 L 215.39 292.52 L 217.08 291.94 L 218.78 291.35 L 220.47 290.75 L 222.17 290.15 L 223.86 289.53 L 225.56 288.90 L 227.25 288.27 L 228.94 287.62 L 230.64 286.96 L 232.33 286.30 L 234.03 285.62 L 235.72 284.93 L 237.42 284.24 L 239.11 283.53 L 240.81 282.81 L 242.50 282.09 L 244.19 281.35 L 245.89 280.61 L 247.58 279.85 L 249.28 279.09 L 250.97 278.31 L 252.67 277.53 L 254.36 276.73 L 256.06 275.93 L 257.75 275.11 L 259.44 274.29 L 261.14 273.46 L 262.83 272.61 L 264.53 271.76 L 266.22 270.90 L 267.92 270.03 L 269.61 269.15 L 271.31 268.26 L 273.00 267.36 L 274.69 266.45 L 276.39 265.53 L 278.08 264.60 L 279.78 263.67 L 281.47 262.72 L 283.17 261.77 L 284.86 260.81 L 286.56 259.83 L 288.25 258.85 L 289.94 257.86 L 291.64 256.87 L 293.33 255.86 L 295.03 254.85 L 296.72 253.82 L 298.42 252.79 L 300.11 251.76 L 301.81 250.71 L 303.50 249.65 L 305.19 248.59 L 306.89 247.52 L 308.58 246.45 L 310.28 245.36 L 311.97 244.27 L 313.67 243.17 L 315.36 242.06 L 317.06 240.95 L 318.75 239.83 L 320.44 238.70 L 322.14 237.57 L 323.83 236.43 L 325.53 235.28 L 327.22 234.13 L 328.92 232.97 L 330.61 231.80 L 332.31 230.63 L 334.00 229.45 L 335.69 228.27 L 337.39 227.08 L 339.08 225.89 L 340.78 224.69 L 342.47 223.49 L 344.17 222.28 L 345.86 221.07 L 347.56 219.85 L 349.25 218.63 L 350.94 217.40 L 352.64 216.17 L 354.33 214.93 L 356.03 213.69 L 357.72 212.45 L 359.42 211.21 L 361.11 209.96 L 362.81 208.70 L 364.50 207.45 L 366.19 206.19 L 367.89 204.93 L 369.58 203.66 L 371.28 202.40 L 372.97 201.13 L 374.67 199.86 L 376.36 198.59 L 378.06 197.31 L 379.75 196.03 L 381.44 194.76 L 383.14 193.48 L 384.83 192.20 L 386.53 190.92 L 388.22 189.63 L 389.92 188.35 L 391.61 187.07 L 393.31 185.78 L 395.00 184.50 L 396.69 183.22 L 398.39 181.93 L 400.08 180.65 L 401.78 179.37 L 403.47 178.08 L 405.17 176.80 L 406.86 175.52 L 408.56 174.24 L 410.25 172.97 L 411.94 171.69 L 413.64 170.41 L 415.33 169.14 L 417.03 167.87 L 418.72 166.60 L 420.42 165.34 L 422.11 164.07 L 423.81 162.81 L 425.50 161.55 L 427.19 160.30 L 428.89 159.04 L 430.58 157.79 L 432.28 156.55 L 433.97 155.31 L 435.67 154.07 L 437.36 152.83 L 439.06 151.60 L 440.75 150.37 L 442.44 149.15 L 444.14 147.93 L 445.83 146.72 L 447.53 145.51 L 449.22 144.31 L 450.92 143.11 L 452.61 141.92 L 454.31 140.73 L 456.00 139.55 L 457.69 138.37 L 459.39 137.20 L 461.08 136.03 L 462.78 134.87 L 464.47 133.72 L 466.17 132.57 L 467.86 131.43 L 469.56 130.30 L 471.25 129.17 L 472.94 128.05 L 474.64 126.94 L 476.33 125.83 L 478.03 124.73 L 479.72 123.64 L 481.42 122.55 L 483.11 121.48 L 484.81 120.41 L 486.50 119.35 L 488.19 118.29 L 489.89 117.24 L 491.58 116.21 L 493.28 115.18 L 494.97 114.15 L 496.67 113.14 L 498.36 112.13 L 500.06 111.14 L 501.75 110.15 L 503.44 109.17 L 505.14 108.19 L 506.83 107.23 L 508.53 106.28 L 510.22 105.33 L 511.92 104.40 L 513.61 103.47 L 515.31 102.55 L 517.00 101.64 L 518.69 100.74 L 520.39 99.85 L 522.08 98.97 L 523.78 98.10 L 525.47 97.24 L 527.17 96.39 L 528.86 95.54 L 530.56 94.71 L 532.25 93.89 L 533.94 93.07 L 535.64 92.27 L 537.33 91.47 L 539.03 90.69 L 540.72 89.91 L 542.42 89.15 L 544.11 88.39 L 545.81 87.65 L 547.50 86.91 L 549.19 86.19 L 550.89 85.47 L 552.58 84.76 L 554.28 84.07 L 555.97 83.38 L 557.67 82.70 L 559.36 82.04 L 561.06 81.38 L 562.75 80.73 L 564.44 80.10 L 566.14 79.47 L 567.83 78.85 L 569.53 78.25 L 571.22 77.65 L 572.92 77.06 L 574.61 76.48 L 576.31 75.91 L 578.00 75.35 L 579.69 74.80 L 581.39 74.26 L 583.08 73.73 L 584.78 73.21 L 586.47 72.70 L 588.17 72.20 L 589.86 71.71 L 591.56 71.22 L 593.25 70.75 L 594.94 70.28 L 596.64 69.83 L 598.33 69.38 L 600.03 68.94 L 601.72 68.52 L 603.42 68.10 L 605.11 67.69 L 606.81 67.28 L 608.50 66.89 L 610.19 66.50 L 611.89 66.13 L 613.58 65.76 L 615.28 65.40 L 616.97 65.05 L 618.67 64.71 L 620.36 64.37 L 622.06 64.04 L 623.75 63.72 L 625.44 63.41 L 627.14 63.11 L 628.83 62.81 L 630.53 62.53 L 632.22 62.24 L 633.92 61.97 L 635.61 61.70 L 637.31 61.45 L 639.00 61.19 L 640.69 60.95 L 642.39 60.71 L 644.08 60.48 L 645.78 60.25 L 647.47 60.04 L 649.17 59.82 L 650.86 59.62 L 652.56 59.42 L 654.25 59.23 L 655.94 59.04 L 657.64 58.86 L 659.33 58.68 L 661.03 58.51 L 662.72 58.35 L 664.42 58.19 L 666.11 58.04 L 667.81 57.89 L 669.50 57.75 L 671.19 57.61 L 672.89 57.48 L 674.58 57.35 L 676.28 57.23 L 677.97 57.11 L 679.67 57.00 L 681.36 56.89 L 683.06 56.78 L 684.75 56.68 L 686.44 56.59 L 688.14 56.49 L 689.83 56.41 L 691.53 56.32 L 693.22 56.24 L 694.92 56.16 L 696.61 56.09 L 698.31 56.02 L 700.00 55.95" fill="none" stroke="#ff7f78" stroke-width="4" stroke-linecap="butt" stroke-linejoin="round"/>
<path d="M 90.00 314.05 L 91.69 314.05 L 93.39 314.05 L 95.08 314.05 L 96.78 314.05 L 98.47 314.05 L 100.17 314.05 L 101.86 314.05 L 103.56 314.05 L 105.25 314.05 L 106.94 314.05 L 108.64 314.05 L 110.33 314.05 L 112.03 314.05 L 113.72 314.05 L 115.42 314.05 L 117.11 314.05 L 118.81 314.05 L 120.50 314.05 L 122.19 314.05 L 123.89 314.05 L 125.58 314.05 L 127.28 314.05 L 128.97 314.05 L 130.67 314.05 L 132.36 314.05 L 134.06 314.05 L 135.75 314.05 L 137.44 314.05 L 139.14 314.05 L 140.83 314.05 L 142.53 314.05 L 144.22 314.05 L 145.92 314.05 L 147.61 314.05 L 149.31 314.05 L 151.00 314.05 L 152.69 314.05 L 154.39 314.05 L 156.08 314.05 L 157.78 314.05 L 159.47 314.05 L 161.17 314.05 L 162.86 314.05 L 164.56 314.05 L 166.25 314.05 L 167.94 314.05 L 169.64 314.05 L 171.33 314.05 L 173.03 314.05 L 174.72 314.05 L 176.42 314.05 L 178.11 314.05 L 179.81 314.05 L 181.50 314.05 L 183.19 314.05 L 184.89 314.05 L 186.58 314.05 L 188.28 314.05 L 189.97 314.05 L 191.67 314.05 L 193.36 314.03 L 195.06 313.97 L 196.75 313.89 L 198.44 313.77 L 200.14 313.61 L 201.83 313.43 L 203.53 313.21 L 205.22 312.96 L 206.92 312.69 L 208.61 312.38 L 210.31 312.05 L 212.00 311.69 L 213.69 311.30 L 215.39 310.88 L 217.08 310.44 L 218.78 309.97 L 220.47 309.48 L 222.17 308.96 L 223.86 308.42 L 225.56 307.85 L 227.25 307.26 L 228.94 306.65 L 230.64 306.02 L 232.33 305.36 L 234.03 304.68 L 235.72 303.98 L 237.42 303.27 L 239.11 302.53 L 240.81 301.77 L 242.50 300.99 L 244.19 300.19 L 245.89 299.38 L 247.58 298.54 L 249.28 297.69 L 250.97 296.82 L 252.67 295.93 L 254.36 295.03 L 256.06 294.11 L 257.75 293.17 L 259.44 292.21 L 261.14 291.24 L 262.83 290.26 L 264.53 289.26 L 266.22 288.24 L 267.92 287.21 L 269.61 286.17 L 271.31 285.11 L 273.00 284.04 L 274.69 282.95 L 276.39 281.85 L 278.08 280.74 L 279.78 279.62 L 281.47 278.48 L 283.17 277.33 L 284.86 276.17 L 286.56 274.99 L 288.25 273.81 L 289.94 272.61 L 291.64 271.40 L 293.33 270.19 L 295.03 268.96 L 296.72 267.72 L 298.42 266.47 L 300.11 265.21 L 301.81 263.94 L 303.50 262.66 L 305.19 261.37 L 306.89 260.07 L 308.58 258.76 L 310.28 257.45 L 311.97 256.12 L 313.67 254.79 L 315.36 253.45 L 317.06 252.10 L 318.75 250.74 L 320.44 249.38 L 322.14 248.01 L 323.83 246.63 L 325.53 245.24 L 327.22 243.85 L 328.92 242.45 L 330.61 241.04 L 332.31 239.63 L 334.00 238.21 L 335.69 236.79 L 337.39 235.36 L 339.08 233.92 L 340.78 232.48 L 342.47 231.03 L 344.17 229.58 L 345.86 228.12 L 347.56 226.66 L 349.25 225.20 L 350.94 223.73 L 352.64 222.25 L 354.33 220.77 L 356.03 219.29 L 357.72 217.80 L 359.42 216.31 L 361.11 214.82 L 362.81 213.33 L 364.50 211.83 L 366.19 210.32 L 367.89 208.82 L 369.58 207.31 L 371.28 205.80 L 372.97 204.29 L 374.67 202.77 L 376.36 201.26 L 378.06 199.74 L 379.75 198.22 L 381.44 196.70 L 383.14 195.18 L 384.83 193.65 L 386.53 192.13 L 388.22 190.61 L 389.92 189.08 L 391.61 187.55 L 393.31 186.03 L 395.00 184.50 L 396.69 182.97 L 398.39 181.45 L 400.08 179.92 L 401.78 178.39 L 403.47 176.87 L 405.17 175.35 L 406.86 173.82 L 408.56 172.30 L 410.25 170.78 L 411.94 169.26 L 413.64 167.74 L 415.33 166.23 L 417.03 164.71 L 418.72 163.20 L 420.42 161.69 L 422.11 160.18 L 423.81 158.68 L 425.50 157.17 L 427.19 155.67 L 428.89 154.18 L 430.58 152.69 L 432.28 151.20 L 433.97 149.71 L 435.67 148.23 L 437.36 146.75 L 439.06 145.27 L 440.75 143.80 L 442.44 142.34 L 444.14 140.88 L 445.83 139.42 L 447.53 137.97 L 449.22 136.52 L 450.92 135.08 L 452.61 133.64 L 454.31 132.21 L 456.00 130.79 L 457.69 129.37 L 459.39 127.96 L 461.08 126.55 L 462.78 125.15 L 464.47 123.76 L 466.17 122.37 L 467.86 120.99 L 469.56 119.62 L 471.25 118.26 L 472.94 116.90 L 474.64 115.55 L 476.33 114.21 L 478.03 112.88 L 479.72 111.55 L 481.42 110.24 L 483.11 108.93 L 484.81 107.63 L 486.50 106.34 L 488.19 105.06 L 489.89 103.79 L 491.58 102.53 L 493.28 101.28 L 494.97 100.04 L 496.67 98.81 L 498.36 97.60 L 500.06 96.39 L 501.75 95.19 L 503.44 94.01 L 505.14 92.83 L 506.83 91.67 L 508.53 90.52 L 510.22 89.38 L 511.92 88.26 L 513.61 87.15 L 515.31 86.05 L 517.00 84.96 L 518.69 83.89 L 520.39 82.83 L 522.08 81.79 L 523.78 80.76 L 525.47 79.74 L 527.17 78.74 L 528.86 77.76 L 530.56 76.79 L 532.25 75.83 L 533.94 74.89 L 535.64 73.97 L 537.33 73.07 L 539.03 72.18 L 540.72 71.31 L 542.42 70.46 L 544.11 69.62 L 545.81 68.81 L 547.50 68.01 L 549.19 67.23 L 550.89 66.47 L 552.58 65.73 L 554.28 65.02 L 555.97 64.32 L 557.67 63.64 L 559.36 62.98 L 561.06 62.35 L 562.75 61.74 L 564.44 61.15 L 566.14 60.58 L 567.83 60.04 L 569.53 59.52 L 571.22 59.03 L 572.92 58.56 L 574.61 58.12 L 576.31 57.70 L 578.00 57.31 L 579.69 56.95 L 581.39 56.62 L 583.08 56.31 L 584.78 56.04 L 586.47 55.79 L 588.17 55.57 L 589.86 55.39 L 591.56 55.23 L 593.25 55.11 L 594.94 55.03 L 596.64 54.97 L 598.33 54.95 L 600.03 54.95 L 601.72 54.95 L 603.42 54.95 L 605.11 54.95 L 606.81 54.95 L 608.50 54.95 L 610.19 54.95 L 611.89 54.95 L 613.58 54.95 L 615.28 54.95 L 616.97 54.95 L 618.67 54.95 L 620.36 54.95 L 622.06 54.95 L 623.75 54.95 L 625.44 54.95 L 627.14 54.95 L 628.83 54.95 L 630.53 54.95 L 632.22 54.95 L 633.92 54.95 L 635.61 54.95 L 637.31 54.95 L 639.00 54.95 L 640.69 54.95 L 642.39 54.95 L 644.08 54.95 L 645.78 54.95 L 647.47 54.95 L 649.17 54.95 L 650.86 54.95 L 652.56 54.95 L 654.25 54.95 L 655.94 54.95 L 657.64 54.95 L 659.33 54.95 L 661.03 54.95 L 662.72 54.95 L 664.42 54.95 L 666.11 54.95 L 667.81 54.95 L 669.50 54.95 L 671.19 54.95 L 672.89 54.95 L 674.58 54.95 L 676.28 54.95 L 677.97 54.95 L 679.67 54.95 L 681.36 54.95 L 683.06 54.95 L 684.75 54.95 L 686.44 54.95 L 688.14 54.95 L 689.83 54.95 L 691.53 54.95 L 693.22 54.95 L 694.92 54.95 L 696.61 54.95 L 698.31 54.95 L 700.00 54.95" fill="none" stroke="#000000" stroke-width="5" stroke-linecap="butt" stroke-linejoin="round" stroke-dasharray="11 7"/>
<path d="M 90.00 314.05 L 91.69 314.05 L 93.39 314.05 L 95.08 314.05 L 96.78 314.05 L 98.47 314.05 L 100.17 314.05 L 101.86 314.05 L 103.56 314.05 L 105.25 314.05 L 106.94 314.05 L 108.64 314.05 L 110.33 314.05 L 112.03 314.05 L 113.72 314.05 L 115.42 314.05 L 117.11 314.05 L 118.81 314.05 L 120.50 314.05 L 122.19 314.05 L 123.89 314.05 L 125.58 314.05 L 127.28 314.05 L 128.97 314.05 L 130.67 314.05 L 132.36 314.05 L 134.06 314.05 L 135.75 314.05 L 137.44 314.05 L 139.14 314.05 L 140.83 314.05 L 142.53 314.05 L 144.22 314.05 L 145.92 314.05 L 147.61 314.05 L 149.31 314.05 L 151.00 314.05 L 152.69 314.05 L 154.39 314.05 L 156.08 314.05 L 157.78 314.05 L 159.47 314.05 L 161.17 314.05 L 162.86 314.05 L 164.56 314.05 L 166.25 314.05 L 167.94 314.05 L 169.64 314.05 L 171.33 314.05 L 173.03 314.05 L 174.72 314.05 L 176.42 314.05 L 178.11 314.05 L 179.81 314.05 L 181.50 314.05 L 183.19 314.05 L 184.89 314.05 L 186.58 314.05 L 188.28 314.05 L 189.97 314.05 L 191.67 314.05 L 193.36 314.05 L 195.06 314.05 L 196.75 314.05 L 198.44 314.05 L 200.14 314.05 L 201.83 314.05 L 203.53 314.05 L 205.22 314.05 L 206.92 314.05 L 208.61 314.05 L 210.31 314.05 L 212.00 314.05 L 213.69 314.05 L 215.39 314.05 L 217.08 314.05 L 218.78 314.05 L 220.47 314.05 L 222.17 314.05 L 223.86 314.05 L 225.56 314.05 L 227.25 314.05 L 228.94 314.05 L 230.64 314.05 L 232.33 314.05 L 234.03 314.05 L 235.72 314.05 L 237.42 314.05 L 239.11 314.05 L 240.81 314.05 L 242.50 314.05 L 244.19 314.05 L 245.89 314.05 L 247.58 314.05 L 249.28 314.05 L 250.97 314.05 L 252.67 314.05 L 254.36 314.05 L 256.06 314.05 L 257.75 314.05 L 259.44 314.05 L 261.14 314.05 L 262.83 314.05 L 264.53 314.05 L 266.22 314.05 L 267.92 314.05 L 269.61 314.05 L 271.31 314.05 L 273.00 314.05 L 274.69 314.05 L 276.39 314.05 L 278.08 314.05 L 279.78 314.05 L 281.47 314.05 L 283.17 314.05 L 284.86 314.05 L 286.56 314.05 L 288.25 314.05 L 289.94 314.05 L 291.64 314.05 L 293.33 314.05 L 295.03 311.89 L 296.72 309.73 L 298.42 307.57 L 300.11 305.41 L 301.81 303.25 L 303.50 301.09 L 305.19 298.93 L 306.89 296.77 L 308.58 294.61 L 310.28 292.45 L 311.97 290.30 L 313.67 288.14 L 315.36 285.98 L 317.06 283.82 L 318.75 281.66 L 320.44 279.50 L 322.14 277.34 L 323.83 275.18 L 325.53 273.02 L 327.22 270.86 L 328.92 268.70 L 330.61 266.55 L 332.31 264.39 L 334.00 262.23 L 335.69 260.07 L 337.39 257.91 L 339.08 255.75 L 340.78 253.59 L 342.47 251.43 L 344.17 249.27 L 345.86 247.11 L 347.56 244.95 L 349.25 242.80 L 350.94 240.64 L 352.64 238.48 L 354.33 236.32 L 356.03 234.16 L 357.72 232.00 L 359.42 229.84 L 361.11 227.68 L 362.81 225.52 L 364.50 223.36 L 366.19 221.20 L 367.89 219.05 L 369.58 216.89 L 371.28 214.73 L 372.97 212.57 L 374.67 210.41 L 376.36 208.25 L 378.06 206.09 L 379.75 203.93 L 381.44 201.77 L 383.14 199.61 L 384.83 197.45 L 386.53 195.30 L 388.22 193.14 L 389.92 190.98 L 391.61 188.82 L 393.31 186.66 L 395.00 184.50 L 396.69 182.34 L 398.39 180.18 L 400.08 178.02 L 401.78 175.86 L 403.47 173.70 L 405.17 171.55 L 406.86 169.39 L 408.56 167.23 L 410.25 165.07 L 411.94 162.91 L 413.64 160.75 L 415.33 158.59 L 417.03 156.43 L 418.72 154.27 L 420.42 152.11 L 422.11 149.95 L 423.81 147.80 L 425.50 145.64 L 427.19 143.48 L 428.89 141.32 L 430.58 139.16 L 432.28 137.00 L 433.97 134.84 L 435.67 132.68 L 437.36 130.52 L 439.06 128.36 L 440.75 126.20 L 442.44 124.05 L 444.14 121.89 L 445.83 119.73 L 447.53 117.57 L 449.22 115.41 L 450.92 113.25 L 452.61 111.09 L 454.31 108.93 L 456.00 106.77 L 457.69 104.61 L 459.39 102.45 L 461.08 100.30 L 462.78 98.14 L 464.47 95.98 L 466.17 93.82 L 467.86 91.66 L 469.56 89.50 L 471.25 87.34 L 472.94 85.18 L 474.64 83.02 L 476.33 80.86 L 478.03 78.70 L 479.72 76.55 L 481.42 74.39 L 483.11 72.23 L 484.81 70.07 L 486.50 67.91 L 488.19 65.75 L 489.89 63.59 L 491.58 61.43 L 493.28 59.27 L 494.97 57.11 L 496.67 54.95 L 498.36 54.95 L 500.06 54.95 L 501.75 54.95 L 503.44 54.95 L 505.14 54.95 L 506.83 54.95 L 508.53 54.95 L 510.22 54.95 L 511.92 54.95 L 513.61 54.95 L 515.31 54.95 L 517.00 54.95 L 518.69 54.95 L 520.39 54.95 L 522.08 54.95 L 523.78 54.95 L 525.47 54.95 L 527.17 54.95 L 528.86 54.95 L 530.56 54.95 L 532.25 54.95 L 533.94 54.95 L 535.64 54.95 L 537.33 54.95 L 539.03 54.95 L 540.72 54.95 L 542.42 54.95 L 544.11 54.95 L 545.81 54.95 L 547.50 54.95 L 549.19 54.95 L 550.89 54.95 L 552.58 54.95 L 554.28 54.95 L 555.97 54.95 L 557.67 54.95 L 559.36 54.95 L 561.06 54.95 L 562.75 54.95 L 564.44 54.95 L 566.14 54.95 L 567.83 54.95 L 569.53 54.95 L 571.22 54.95 L 572.92 54.95 L 574.61 54.95 L 576.31 54.95 L 578.00 54.95 L 579.69 54.95 L 581.39 54.95 L 583.08 54.95 L 584.78 54.95 L 586.47 54.95 L 588.17 54.95 L 589.86 54.95 L 591.56 54.95 L 593.25 54.95 L 594.94 54.95 L 596.64 54.95 L 598.33 54.95 L 600.03 54.95 L 601.72 54.95 L 603.42 54.95 L 605.11 54.95 L 606.81 54.95 L 608.50 54.95 L 610.19 54.95 L 611.89 54.95 L 613.58 54.95 L 615.28 54.95 L 616.97 54.95 L 618.67 54.95 L 620.36 54.95 L 622.06 54.95 L 623.75 54.95 L 625.44 54.95 L 627.14 54.95 L 628.83 54.95 L 630.53 54.95 L 632.22 54.95 L 633.92 54.95 L 635.61 54.95 L 637.31 54.95 L 639.00 54.95 L 640.69 54.95 L 642.39 54.95 L 644.08 54.95 L 645.78 54.95 L 647.47 54.95 L 649.17 54.95 L 650.86 54.95 L 652.56 54.95 L 654.25 54.95 L 655.94 54.95 L 657.64 54.95 L 659.33 54.95 L 661.03 54.95 L 662.72 54.95 L 664.42 54.95 L 666.11 54.95 L 667.81 54.95 L 669.50 54.95 L 671.19 54.95 L 672.89 54.95 L 674.58 54.95 L 676.28 54.95 L 677.97 54.95 L 679.67 54.95 L 681.36 54.95 L 683.06 54.95 L 684.75 54.95 L 686.44 54.95 L 688.14 54.95 L 689.83 54.95 L 691.53 54.95 L 693.22 54.95 L 694.92 54.95 L 696.61 54.95 L 698.31 54.95 L 700.00 54.95" fill="none" stroke="#8cd4c8" stroke-width="7" stroke-linecap="butt" stroke-linejoin="round"/>
<path d="M 90.00 314.05 L 91.69 314.05 L 93.39 314.05 L 95.08 314.05 L 96.78 314.05 L 98.47 314.05 L 100.17 314.05 L 101.86 314.05 L 103.56 314.05 L 105.25 314.05 L 106.94 314.05 L 108.64 314.05 L 110.33 314.05 L 112.03 314.05 L 113.72 314.05 L 115.42 314.05 L 117.11 314.05 L 118.81 314.05 L 120.50 314.05 L 122.19 314.05 L 123.89 314.05 L 125.58 314.05 L 127.28 314.05 L 128.97 314.05 L 130.67 314.05 L 132.36 314.05 L 134.06 314.05 L 135.75 314.05 L 137.44 314.05 L 139.14 314.05 L 140.83 314.05 L 142.53 314.05 L 144.22 314.05 L 145.92 314.05 L 147.61 314.05 L 149.31 314.05 L 151.00 314.05 L 152.69 314.05 L 154.39 314.05 L 156.08 314.05 L 157.78 314.05 L 159.47 314.05 L 161.17 314.05 L 162.86 314.05 L 164.56 314.05 L 166.25 314.05 L 167.94 314.05 L 169.64 314.05 L 171.33 314.05 L 173.03 314.05 L 174.72 314.05 L 176.42 314.05 L 178.11 314.05 L 179.81 314.05 L 181.50 314.05 L 183.19 314.05 L 184.89 314.05 L 186.58 314.05 L 188.28 314.05 L 189.97 314.05 L 191.67 314.05 L 193.36 314.05 L 195.06 314.05 L 196.75 314.05 L 198.44 314.05 L 200.14 314.05 L 201.83 314.05 L 203.53 314.05 L 205.22 314.05 L 206.92 314.05 L 208.61 314.05 L 210.31 314.05 L 212.00 314.05 L 213.69 314.05 L 215.39 314.05 L 217.08 314.05 L 218.78 314.05 L 220.47 314.05 L 222.17 314.05 L 223.86 314.05 L 225.56 314.05 L 227.25 314.05 L 228.94 314.05 L 230.64 314.05 L 232.33 314.05 L 234.03 314.05 L 235.72 314.05 L 237.42 314.05 L 239.11 314.05 L 240.81 314.05 L 242.50 314.05 L 244.19 314.05 L 245.89 314.05 L 247.58 314.05 L 249.28 314.05 L 250.97 314.05 L 252.67 314.05 L 254.36 314.05 L 256.06 314.05 L 257.75 314.05 L 259.44 314.05 L 261.14 314.05 L 262.83 314.05 L 264.53 314.05 L 266.22 314.05 L 267.92 314.05 L 269.61 314.05 L 271.31 314.05 L 273.00 314.05 L 274.69 314.05 L 276.39 314.05 L 278.08 314.05 L 279.78 314.05 L 281.47 314.05 L 283.17 314.05 L 284.86 314.05 L 286.56 314.05 L 288.25 314.05 L 289.94 314.05 L 291.64 314.05 L 293.33 314.05 L 295.03 314.05 L 296.72 314.05 L 298.42 314.05 L 300.11 314.05 L 301.81 314.05 L 303.50 314.05 L 305.19 314.05 L 306.89 314.05 L 308.58 314.05 L 310.28 314.05 L 311.97 314.05 L 313.67 314.05 L 315.36 314.05 L 317.06 314.05 L 318.75 314.05 L 320.44 314.05 L 322.14 314.05 L 323.83 314.05 L 325.53 314.05 L 327.22 314.05 L 328.92 314.05 L 330.61 314.05 L 332.31 314.05 L 334.00 314.05 L 335.69 314.05 L 337.39 314.05 L 339.08 314.05 L 340.78 314.05 L 342.47 314.05 L 344.17 314.05 L 345.86 314.05 L 347.56 314.05 L 349.25 314.05 L 350.94 314.05 L 352.64 314.05 L 354.33 314.05 L 356.03 314.05 L 357.72 314.05 L 359.42 314.05 L 361.11 314.05 L 362.81 309.65 L 364.50 305.11 L 366.19 300.40 L 367.89 295.51 L 369.58 290.43 L 371.28 285.15 L 372.97 279.66 L 374.67 273.93 L 376.36 267.96 L 378.06 261.72 L 379.75 255.21 L 381.44 248.41 L 383.14 241.31 L 384.83 233.92 L 386.53 226.24 L 388.22 218.28 L 389.92 210.08 L 391.61 201.67 L 393.31 193.12 L 395.00 184.50 L 396.69 175.88 L 398.39 167.33 L 400.08 158.92 L 401.78 150.72 L 403.47 142.76 L 405.17 135.08 L 406.86 127.69 L 408.56 120.59 L 410.25 113.79 L 411.94 107.28 L 413.64 101.04 L 415.33 95.07 L 417.03 89.34 L 418.72 83.85 L 420.42 78.57 L 422.11 73.49 L 423.81 68.60 L 425.50 63.89 L 427.19 59.35 L 428.89 54.95 L 430.58 54.95 L 432.28 54.95 L 433.97 54.95 L 435.67 54.95 L 437.36 54.95 L 439.06 54.95 L 440.75 54.95 L 442.44 54.95 L 444.14 54.95 L 445.83 54.95 L 447.53 54.95 L 449.22 54.95 L 450.92 54.95 L 452.61 54.95 L 454.31 54.95 L 456.00 54.95 L 457.69 54.95 L 459.39 54.95 L 461.08 54.95 L 462.78 54.95 L 464.47 54.95 L 466.17 54.95 L 467.86 54.95 L 469.56 54.95 L 471.25 54.95 L 472.94 54.95 L 474.64 54.95 L 476.33 54.95 L 478.03 54.95 L 479.72 54.95 L 481.42 54.95 L 483.11 54.95 L 484.81 54.95 L 486.50 54.95 L 488.19 54.95 L 489.89 54.95 L 491.58 54.95 L 493.28 54.95 L 494.97 54.95 L 496.67 54.95 L 498.36 54.95 L 500.06 54.95 L 501.75 54.95 L 503.44 54.95 L 505.14 54.95 L 506.83 54.95 L 508.53 54.95 L 510.22 54.95 L 511.92 54.95 L 513.61 54.95 L 515.31 54.95 L 517.00 54.95 L 518.69 54.95 L 520.39 54.95 L 522.08 54.95 L 523.78 54.95 L 525.47 54.95 L 527.17 54.95 L 528.86 54.95 L 530.56 54.95 L 532.25 54.95 L 533.94 54.95 L 535.64 54.95 L 537.33 54.95 L 539.03 54.95 L 540.72 54.95 L 542.42 54.95 L 544.11 54.95 L 545.81 54.95 L 547.50 54.95 L 549.19 54.95 L 550.89 54.95 L 552.58 54.95 L 554.28 54.95 L 555.97 54.95 L 557.67 54.95 L 559.36 54.95 L 561.06 54.95 L 562.75 54.95 L 564.44 54.95 L 566.14 54.95 L 567.83 54.95 L 569.53 54.95 L 571.22 54.95 L 572.92 54.95 L 574.61 54.95 L 576.31 54.95 L 578.00 54.95 L 579.69 54.95 L 581.39 54.95 L 583.08 54.95 L 584.78 54.95 L 586.47 54.95 L 588.17 54.95 L 589.86 54.95 L 591.56 54.95 L 593.25 54.95 L 594.94 54.95 L 596.64 54.95 L 598.33 54.95 L 600.03 54.95 L 601.72 54.95 L 603.42 54.95 L 605.11 54.95 L 606.81 54.95 L 608.50 54.95 L 610.19 54.95 L 611.89 54.95 L 613.58 54.95 L 615.28 54.95 L 616.97 54.95 L 618.67 54.95 L 620.36 54.95 L 622.06 54.95 L 623.75 54.95 L 625.44 54.95 L 627.14 54.95 L 628.83 54.95 L 630.53 54.95 L 632.22 54.95 L 633.92 54.95 L 635.61 54.95 L 637.31 54.95 L 639.00 54.95 L 640.69 54.95 L 642.39 54.95 L 644.08 54.95 L 645.78 54.95 L 647.47 54.95 L 649.17 54.95 L 650.86 54.95 L 652.56 54.95 L 654.25 54.95 L 655.94 54.95 L 657.64 54.95 L 659.33 54.95 L 661.03 54.95 L 662.72 54.95 L 664.42 54.95 L 666.11 54.95 L 667.81 54.95 L 669.50 54.95 L 671.19 54.95 L 672.89 54.95 L 674.58 54.95 L 676.28 54.95 L 677.97 54.95 L 679.67 54.95 L 681.36 54.95 L 683.06 54.95 L 684.75 54.95 L 686.44 54.95 L 688.14 54.95 L 689.83 54.95 L 691.53 54.95 L 693.22 54.95 L 694.92 54.95 L 696.61 54.95 L 698.31 54.95 L 700.00 54.95" fill="none" stroke="#8a8a8a" stroke-width="2.5" stroke-linecap="butt" stroke-linejoin="round"/>
<line x1="116" y1="58" x2="154" y2="58" stroke="#b8b4dc" stroke-width="6" stroke-dasharray="8 9"/>
<text x="170" y="66" font-family="Georgia, serif" font-size="23">alpha = 1 (softmax)</text>
<line x1="116" y1="88" x2="154" y2="88" stroke="#ff7f78" stroke-width="4"/>
<text x="170" y="96" font-family="Georgia, serif" font-size="23">alpha = 1.25</text>
<line x1="116" y1="118" x2="154" y2="118" stroke="#000000" stroke-width="5" stroke-dasharray="11 7"/>
<text x="170" y="126" font-family="Georgia, serif" font-size="23">alpha = 1.5</text>
<line x1="116" y1="148" x2="154" y2="148" stroke="#8cd4c8" stroke-width="7"/>
<text x="170" y="156" font-family="Georgia, serif" font-size="23">alpha = 2 (sparsemax)</text>
<line x1="116" y1="178" x2="154" y2="178" stroke="#8a8a8a" stroke-width="2.5"/>
<text x="170" y="186" font-family="Georgia, serif" font-size="23">alpha = 4</text>
</svg>
