<?xml version="1.0" encoding="utf-8" standalone="no"?>
<!DOCTYPE svg PUBLIC "-//W3C//DTD SVG 1.1//EN"
  "http://www.w3.org/Graphics/SVG/1.1/DTD/svg11.dtd">
<svg xmlns:xlink="http://www.w3.org/1999/xlink" width="640.380312pt" height="247.90386pt" viewBox="0 0 640.380312 247.90386" xmlns="http://www.w3.org/2000/svg" version="1.1">
 <metadata>
  <rdf:RDF xmlns:dc="http://purl.org/dc/elements/1.1/" xmlns:cc="http://creativecommons.org/ns#" xmlns:rdf="http://www.w3.org/1999/02/22-rdf-syntax-ns#">
   <cc:Work>
    <dc:type rdf:resource="http://purl.org/dc/dcmitype/StillImage"/>
    <dc:date>2026-07-19T14:06:18.002510</dc:date>
    <dc:format>image/svg+xml</dc:format>
    <dc:creator>
     <cc:Agent>
      <dc:title>Matplotlib v3.10.9, https://matplotlib.org/</dc:title>
     </cc:Agent>
    </dc:creator>
   </cc:Work>
  </rdf:RDF>
 </metadata>
 <defs>
  <style type="text/css">*{stroke-linejoin: round; stroke-linecap: butt}</style>
 </defs>
 <g id="figure_1">
  <g id="patch_1">
   <path d="M 0 247.90386
L 640.380312 247.90386
L 640.380312 0
L 0 0
L 0 247.90386
z
" style="fill: none; opacity: 0"/>
  </g>
  <g id="axes_1">
   <g id="patch_2">
    <path d="M 42.620313 210.34761
L 633.180312 210.34761
L 633.180312 31.34105
L 42.620313 31.34105
L 42.620313 210.34761
z
" style="fill: none; opacity: 0"/>
   </g>
   <g id="FillBetweenPolyCollection_1">
    <defs>
     <path id="me5b441a0b2" d="M 42.620313 -94.81248
L 42.620313 -65.293041
L 44.100407 -65.495062
L 45.580522 -65.702221
L 47.060616 -65.914632
L 48.540711 -66.132469
L 50.020806 -66.355899
L 51.50092 -66.585087
L 52.981015 -66.820188
L 54.46111 -67.061395
L 55.941224 -67.308898
L 57.421319 -67.562851
L 58.901413 -67.823485
L 60.381508 -68.090993
L 61.861623 -68.36556
L 63.341717 -68.647418
L 64.821812 -68.936786
L 66.301907 -69.233866
L 67.782021 -69.538931
L 69.262116 -69.852179
L 70.742211 -70.17388
L 72.222325 -70.504281
L 73.70242 -70.843645
L 75.182514 -71.192226
L 76.662609 -71.550315
L 78.142724 -71.918187
L 79.622818 -72.296134
L 81.102913 -72.684471
L 82.583028 -73.083494
L 84.063122 -73.493515
L 85.543217 -73.914867
L 87.023312 -74.347881
L 88.503426 -74.792911
L 89.983521 -75.250302
L 91.463615 -75.720413
L 92.94373 -76.203628
L 94.423825 -76.700316
L 95.903919 -77.21089
L 97.384014 -77.735741
L 98.864129 -78.2753
L 100.344223 -78.82998
L 101.824318 -79.400227
L 103.304433 -79.986506
L 104.784527 -80.589262
L 106.264622 -81.208999
L 107.744716 -81.846197
L 109.224831 -82.501373
L 110.704926 -83.175036
L 112.18502 -83.867754
L 113.665115 -84.580062
L 115.14523 -85.312564
L 116.625324 -86.065827
L 118.105419 -86.840483
L 119.585534 -87.637167
L 121.065628 -88.456516
L 122.545723 -89.299227
L 124.025817 -90.165995
L 125.505932 -91.05754
L 126.986027 -91.974586
L 128.466121 -92.917904
L 129.946236 -93.888294
L 131.426331 -94.886529
L 132.906425 -95.913437
L 134.38652 -96.969861
L 135.866635 -98.056661
L 137.346729 -99.174638
L 138.826824 -100.324678
L 140.306939 -101.507645
L 141.787033 -102.724339
L 143.267128 -103.975597
L 144.747222 -105.26223
L 146.227337 -106.585017
L 147.707432 -107.944682
L 149.187526 -109.341988
L 150.667621 -110.777711
L 152.147736 -112.252698
L 153.62783 -113.76795
L 155.107925 -115.324798
L 156.58804 -116.925027
L 158.068134 -118.571077
L 159.548229 -120.266336
L 161.028323 -122.015166
L 162.508438 -123.822873
L 163.988533 -125.69507
L 165.468627 -127.636512
L 166.948742 -129.648834
L 168.428837 -131.727049
L 169.908931 -133.855379
L 171.389036 -136.002834
L 172.86913 -138.121768
L 174.349235 -140.155806
L 175.82934 -142.061263
L 177.309434 -143.82844
L 178.789539 -145.476476
L 180.269634 -147.028916
L 181.749738 -148.498708
L 183.229833 -149.88808
L 184.709938 -151.194534
L 186.190032 -152.416072
L 187.670137 -153.553912
L 189.150242 -154.612498
L 190.630336 -155.597996
L 192.110441 -156.51601
L 193.590535 -157.368882
L 195.07064 -158.152886
L 196.550735 -158.855233
L 198.030839 -159.451679
L 199.510944 -159.906826
L 200.991039 -160.183176
L 202.471143 -160.263479
L 203.951238 -160.170623
L 205.431343 -159.957971
L 206.911437 -159.681238
L 208.391542 -159.381399
L 209.871636 -159.082467
L 211.351741 -158.794529
L 212.831846 -158.517192
L 214.31194 -158.24183
L 215.792045 -157.95305
L 217.27214 -157.629492
L 218.752244 -157.243611
L 220.232339 -156.760363
L 221.712444 -156.135782
L 223.192538 -155.320538
L 224.672643 -154.275868
L 226.152747 -152.994058
L 227.632842 -151.498296
L 229.112947 -149.824768
L 230.593041 -148.010323
L 232.073146 -146.089684
L 233.553241 -144.095666
L 235.033345 -142.058595
L 236.51345 -140.004982
L 237.993545 -137.955727
L 239.473649 -135.924756
L 240.953744 -133.918307
L 242.433848 -131.934609
L 243.913943 -129.964332
L 245.394048 -127.992019
L 246.874142 -125.999771
L 248.354247 -123.973424
L 249.834352 -121.910126
L 251.314446 -119.822767
L 252.794551 -117.737792
L 254.274651 -115.687668
L 255.75475 -113.70289
L 257.23485 -111.807124
L 258.714949 -110.01588
L 260.195049 -108.337172
L 261.675149 -106.772843
L 263.155248 -105.31976
L 264.635348 -103.970498
L 266.115453 -102.713561
L 267.595552 -101.533449
L 269.075652 -100.411138
L 270.555752 -99.326171
L 272.035851 -98.260978
L 273.515951 -97.206517
L 274.99605 -96.165989
L 276.47615 -95.153815
L 277.956255 -94.190718
L 279.436354 -93.298181
L 280.916454 -92.494578
L 282.396554 -91.793231
L 283.876653 -91.201711
L 285.356753 -90.721726
L 286.836853 -90.349048
L 288.316952 -90.073571
L 289.797057 -89.879437
L 291.277156 -89.745538
L 292.757256 -89.647184
L 294.237356 -89.559024
L 295.717455 -89.459079
L 297.197555 -89.332513
L 298.677655 -89.173736
L 300.157757 -88.986033
L 301.637856 -88.779424
L 303.117956 -88.568067
L 304.598056 -88.367921
L 306.078158 -88.195176
L 307.558257 -88.06531
L 309.038357 -87.99272
L 310.518457 -87.990676
L 311.998559 -88.071531
L 313.478658 -88.247026
L 314.958758 -88.528712
L 316.438858 -88.928364
L 317.918959 -89.45832
L 319.39906 -90.131913
L 320.879159 -90.963791
L 322.35926 -91.970039
L 323.83936 -93.168123
L 325.319461 -94.576308
L 326.79956 -96.212425
L 328.279661 -98.09201
L 329.759761 -100.225815
L 331.239862 -102.617116
L 332.719962 -105.259128
L 334.200062 -108.133163
L 335.680162 -111.207833
L 337.160262 -114.439739
L 338.640363 -117.77558
L 340.120463 -121.155635
L 341.600563 -124.518083
L 343.080663 -127.80348
L 344.560763 -130.958879
L 346.040864 -133.940956
L 347.520964 -136.717853
L 349.001065 -139.269685
L 350.481164 -141.587861
L 351.961265 -143.673545
L 353.441365 -145.5356
L 354.921466 -147.188269
L 356.401565 -148.64906
L 357.881666 -149.936881
L 359.361767 -151.070643
L 360.841867 -152.068269
L 362.321967 -152.946074
L 363.802066 -153.71853
L 365.282168 -154.398143
L 366.762268 -154.995548
L 368.242368 -155.519619
L 369.722467 -155.977658
L 371.202569 -156.375528
L 372.682669 -156.717814
L 374.162769 -157.007968
L 375.642868 -157.248361
L 377.12297 -157.440381
L 378.60307 -157.584437
L 380.08317 -157.680035
L 381.563269 -157.725699
L 383.043369 -157.719045
L 384.523469 -157.656722
L 386.003568 -157.534514
L 387.483673 -157.347469
L 388.963772 -157.090241
L 390.443872 -156.757546
L 391.923972 -156.344941
L 393.404071 -155.849717
L 394.884171 -155.271721
L 396.364271 -154.61382
L 397.84437 -153.881707
L 399.324475 -153.082815
L 400.804575 -152.224409
L 402.284674 -151.31096
L 403.764774 -150.340777
L 405.244873 -149.302461
L 406.724973 -148.172164
L 408.205073 -146.914466
L 409.685172 -145.490775
L 411.165277 -143.875224
L 412.645377 -142.067522
L 414.125476 -140.091574
L 415.605576 -137.985254
L 417.085676 -135.792266
L 418.565775 -133.558148
L 420.045875 -131.326113
L 421.525974 -129.129718
L 423.006074 -126.982226
L 424.486179 -124.866028
L 425.966273 -122.731095
L 427.446378 -120.515992
L 428.926483 -118.194177
L 430.406577 -115.810431
L 431.886682 -113.462547
L 433.366777 -111.24744
L 434.846881 -109.225504
L 436.326976 -107.417769
L 437.80708 -105.818009
L 439.287175 -104.405031
L 440.76728 -103.150106
L 442.247384 -102.020446
L 443.727479 -100.980757
L 445.207584 -99.995251
L 446.687678 -99.032307
L 448.167783 -98.072043
L 449.647878 -97.112877
L 451.127982 -96.170388
L 452.608087 -95.268832
L 454.088181 -94.431979
L 455.568286 -93.678285
L 457.048381 -93.019704
L 458.528485 -92.462065
L 460.00858 -92.005466
L 461.488685 -91.644698
L 462.968779 -91.369992
L 464.448884 -91.168709
L 465.928989 -91.028424
L 467.409083 -90.940482
L 468.889188 -90.90256
L 470.369282 -90.918519
L 471.849387 -90.995636
L 473.329482 -91.141018
L 474.809586 -91.358973
L 476.289681 -91.650123
L 477.769786 -92.011893
L 479.24989 -92.439699
L 480.729985 -92.928331
L 482.21009 -93.473167
L 483.690184 -94.070957
L 485.170289 -94.720335
L 486.650383 -95.421838
L 488.130488 -96.177798
L 489.610593 -96.991994
L 491.090687 -97.869312
L 492.570792 -98.815402
L 494.050887 -99.836343
L 495.530991 -100.938384
L 497.011086 -102.12761
L 498.491191 -103.409606
L 499.971285 -104.788997
L 501.45139 -106.268962
L 502.931495 -107.850568
L 504.411589 -109.532016
L 505.891694 -111.307935
L 507.371788 -113.16854
L 508.851883 -115.09916
L 510.331998 -117.079832
L 511.812092 -119.085478
L 513.292187 -121.087018
L 514.772302 -123.053455
L 516.252396 -124.955485
L 517.732491 -126.770436
L 519.212585 -128.486379
L 520.6927 -130.103209
L 522.172795 -131.629656
L 523.652889 -133.078537
L 525.133004 -134.462586
L 526.613099 -135.792212
L 528.093193 -137.075002
L 529.573288 -138.315893
L 531.053403 -139.517737
L 532.533497 -140.681854
L 534.013592 -141.808521
L 535.493686 -142.897343
L 536.973801 -143.947605
L 538.453896 -144.958388
L 539.93399 -145.928884
L 541.414105 -146.858442
L 542.8942 -147.746631
L 544.374294 -148.593378
L 545.854389 -149.398941
L 547.334504 -150.163943
L 548.814598 -150.889268
L 550.294693 -151.57611
L 551.774808 -152.225927
L 553.254902 -152.840278
L 554.734997 -153.420905
L 556.215091 -153.969586
L 557.695206 -154.488121
L 559.175301 -154.978296
L 560.655395 -155.441858
L 562.13551 -155.880515
L 563.615605 -156.295838
L 565.095699 -156.689371
L 566.575794 -157.062525
L 568.055909 -157.416649
L 569.536003 -157.752966
L 571.016098 -158.072651
L 572.496192 -158.376749
L 573.976307 -158.666276
L 575.456402 -158.942126
L 576.936496 -159.205157
L 578.416611 -159.456156
L 579.896706 -159.695829
L 581.3768 -159.924856
L 582.856895 -160.143875
L 584.33701 -160.35343
L 585.817104 -160.554079
L 587.297199 -160.746304
L 588.777313 -160.930575
L 590.257408 -161.107317
L 591.737503 -161.276927
L 593.217597 -161.439778
L 594.697712 -161.596232
L 596.177807 -161.746583
L 597.657901 -161.891165
L 599.138016 -162.030243
L 600.618111 -162.16411
L 602.098205 -162.292983
L 603.5783 -162.41712
L 605.058414 -162.536718
L 606.538509 -162.652036
L 608.018604 -162.763214
L 609.498718 -162.870464
L 610.978813 -162.973955
L 612.458908 -163.073843
L 613.939002 -163.170321
L 615.419117 -163.263496
L 616.899212 -163.353511
L 618.379306 -163.440521
L 619.859401 -163.524631
L 621.339515 -163.605974
L 622.81961 -163.684655
L 624.299705 -163.760782
L 625.779819 -163.834452
L 627.259914 -163.905766
L 628.740009 -163.974823
L 630.220103 -164.041709
L 631.700218 -164.10649
L 633.180312 -164.169269
L 633.180312 -187.677664
L 633.180312 -187.677664
L 631.700218 -187.464346
L 630.220103 -187.24561
L 628.740009 -187.021306
L 627.259914 -186.791277
L 625.779819 -186.555339
L 624.299705 -186.313295
L 622.81961 -186.065
L 621.339515 -185.81023
L 619.859401 -185.5488
L 618.379306 -185.280516
L 616.899212 -185.005154
L 615.419117 -184.722503
L 613.939002 -184.432343
L 612.458908 -184.134447
L 610.978813 -183.828586
L 609.498718 -183.514493
L 608.018604 -183.191938
L 606.538509 -182.860662
L 605.058414 -182.520412
L 603.5783 -182.1709
L 602.098205 -181.811859
L 600.618111 -181.44301
L 599.138016 -181.064062
L 597.657901 -180.674707
L 596.177807 -180.274662
L 594.697712 -179.863619
L 593.217597 -179.441253
L 591.737503 -179.007246
L 590.257408 -178.561301
L 588.777313 -178.103086
L 587.297199 -177.632256
L 585.817104 -177.148524
L 584.33701 -176.651516
L 582.856895 -176.140954
L 581.3768 -175.616506
L 579.896706 -175.077846
L 578.416611 -174.524683
L 576.936496 -173.956698
L 575.456402 -173.373628
L 573.976307 -172.775193
L 572.496192 -172.161124
L 571.016098 -171.531214
L 569.536003 -170.885246
L 568.055909 -170.223028
L 566.575794 -169.544391
L 565.095699 -168.849203
L 563.615605 -168.137355
L 562.13551 -167.408763
L 560.655395 -166.663334
L 559.175301 -165.901026
L 557.695206 -165.121758
L 556.215091 -164.325406
L 554.734997 -163.511807
L 553.254902 -162.680709
L 551.774808 -161.831665
L 550.294693 -160.964081
L 548.814598 -160.077101
L 547.334504 -159.169506
L 545.854389 -158.239692
L 544.374294 -157.285641
L 542.8942 -156.304793
L 541.414105 -155.294072
L 539.93399 -154.249852
L 538.453896 -153.168067
L 536.973801 -152.044207
L 535.493686 -150.873448
L 534.013592 -149.650958
L 532.533497 -148.372029
L 531.053403 -147.032534
L 529.573288 -145.629368
L 528.093193 -144.161178
L 526.613099 -142.629019
L 525.133004 -141.037341
L 523.652889 -139.394914
L 522.172795 -137.715593
L 520.6927 -136.017946
L 519.212585 -134.323455
L 517.732491 -132.652617
L 516.252396 -131.019874
L 514.772302 -129.430458
L 513.292187 -127.880794
L 511.812092 -126.36199
L 510.331998 -124.863536
L 508.851883 -123.376183
L 507.371788 -121.893322
L 505.891694 -120.411254
L 504.411589 -118.929175
L 502.931495 -117.448742
L 501.45139 -115.973546
L 499.971285 -114.508642
L 498.491191 -113.060107
L 497.011086 -111.634568
L 495.530991 -110.239049
L 494.050887 -108.88065
L 492.570792 -107.56645
L 491.090687 -106.303403
L 489.610593 -105.098261
L 488.130488 -103.957446
L 486.650383 -102.88693
L 485.170289 -101.891996
L 483.690184 -100.976957
L 482.21009 -100.144964
L 480.729985 -99.397803
L 479.24989 -98.735983
L 477.769786 -98.158999
L 476.289681 -97.666052
L 474.809586 -97.256837
L 473.329482 -96.932513
L 471.849387 -96.696325
L 470.369282 -96.553569
L 468.889188 -96.510175
L 467.409083 -96.569923
L 465.928989 -96.730993
L 464.448884 -96.983955
L 462.968779 -97.312676
L 461.488685 -97.698106
L 460.00858 -98.123032
L 458.528485 -98.575734
L 457.048381 -99.05198
L 455.568286 -99.555564
L 454.088181 -100.098258
L 452.608087 -100.699711
L 451.127982 -101.387304
L 449.647878 -102.194552
L 448.167783 -103.155934
L 446.687678 -104.297606
L 445.207584 -105.628689
L 443.727479 -107.140157
L 442.247384 -108.811209
L 440.76728 -110.616696
L 439.287175 -112.531167
L 437.80708 -114.530092
L 436.326976 -116.590176
L 434.846881 -118.690706
L 433.366777 -120.818286
L 431.886682 -122.974877
L 430.406577 -125.185464
L 428.926483 -127.491673
L 427.446378 -129.917783
L 425.966273 -132.425696
L 424.486179 -134.911573
L 423.006074 -137.25641
L 421.525974 -139.378666
L 420.045875 -141.252736
L 418.565775 -142.899171
L 417.085676 -144.365411
L 415.605576 -145.708795
L 414.125476 -146.985778
L 412.645377 -148.246532
L 411.165277 -149.53097
L 409.685172 -150.861543
L 408.205073 -152.234422
L 406.724973 -153.620004
L 405.244873 -154.977473
L 403.764774 -156.271787
L 402.284674 -157.482438
L 400.804575 -158.603936
L 399.324475 -159.642191
L 397.84437 -160.610049
L 396.364271 -161.523145
L 394.884171 -162.3967
L 393.404071 -163.24333
L 391.923972 -164.071744
L 390.443872 -164.886559
L 388.963772 -165.688783
L 387.483673 -166.47671
L 386.003568 -167.246889
L 384.523469 -167.994891
L 383.043369 -168.715956
L 381.563269 -169.405275
L 380.08317 -170.058215
L 378.60307 -170.67036
L 377.12297 -171.237524
L 375.642868 -171.755805
L 374.162769 -172.221456
L 372.682669 -172.630965
L 371.202569 -172.980998
L 369.722467 -173.268487
L 368.242368 -173.490587
L 366.762268 -173.644866
L 365.282168 -173.729308
L 363.802066 -173.742538
L 362.321967 -173.683913
L 360.841867 -173.553764
L 359.361767 -173.353462
L 357.881666 -173.085556
L 356.401565 -172.753715
L 354.921466 -172.362517
L 353.441365 -171.916954
L 351.961265 -171.421731
L 350.481164 -170.880264
L 349.001065 -170.293525
L 347.520964 -169.658909
L 346.040864 -168.969232
L 344.560763 -168.212194
L 343.080663 -167.37034
L 341.600563 -166.421774
L 340.120463 -165.341536
L 338.640363 -164.103724
L 337.160262 -162.684057
L 335.680162 -161.062628
L 334.200062 -159.226464
L 332.719962 -157.171634
L 331.239862 -154.904323
L 329.759761 -152.440965
L 328.279661 -149.807161
L 326.79956 -147.035636
L 325.319461 -144.163461
L 323.83936 -141.229087
L 322.35926 -138.269472
L 320.879159 -135.317989
L 319.39906 -132.402992
L 317.918959 -129.547393
L 316.438858 -126.768885
L 314.958758 -124.080617
L 313.478658 -121.492169
L 311.998559 -119.010607
L 310.518457 -116.641556
L 309.038357 -114.390212
L 307.558257 -112.262307
L 306.078158 -110.264838
L 304.598056 -108.406646
L 303.117956 -106.698562
L 301.637856 -105.153092
L 300.157757 -103.783474
L 298.677655 -102.601924
L 297.197555 -101.617171
L 295.717455 -100.831618
L 294.237356 -100.239044
L 292.757256 -99.824162
L 291.277156 -99.564615
L 289.797057 -99.434776
L 288.316952 -99.409842
L 286.836853 -99.468787
L 285.356753 -99.595981
L 283.876653 -99.781772
L 282.396554 -100.022497
L 280.916454 -100.320383
L 279.436354 -100.68346
L 277.956255 -101.125287
L 276.47615 -101.66421
L 274.99605 -102.321405
L 273.515951 -103.117115
L 272.035851 -104.065191
L 270.555752 -105.168237
L 269.075652 -106.416605
L 267.595552 -107.792057
L 266.115453 -109.273216
L 264.635348 -110.839753
L 263.155248 -112.47425
L 261.675149 -114.162604
L 260.195049 -115.89399
L 258.714949 -117.66097
L 257.23485 -119.460042
L 255.75475 -121.292572
L 254.274651 -123.165572
L 252.794551 -125.091739
L 251.314446 -127.087392
L 249.834352 -129.167015
L 248.354247 -131.335259
L 246.874142 -133.579676
L 245.394048 -135.869677
L 243.913943 -138.162511
L 242.433848 -140.412135
L 240.953744 -142.576786
L 239.473649 -144.623148
L 237.993545 -146.528023
L 236.51345 -148.27822
L 235.033345 -149.869898
L 233.553241 -151.307174
L 232.073146 -152.600784
L 230.593041 -153.766748
L 229.112947 -154.825571
L 227.632842 -155.802693
L 226.152747 -156.729353
L 224.672643 -157.640307
L 223.192538 -158.561506
L 221.712444 -159.492002
L 220.232339 -160.403387
L 218.752244 -161.259648
L 217.27214 -162.032533
L 215.792045 -162.704235
L 214.31194 -163.265154
L 212.831846 -163.711353
L 211.351741 -164.043191
L 209.871636 -164.26461
L 208.391542 -164.3834
L 206.911437 -164.412466
L 205.431343 -164.372525
L 203.951238 -164.295138
L 202.471143 -164.220836
L 200.991039 -164.18302
L 199.510944 -164.181428
L 198.030839 -164.174407
L 196.550735 -164.100963
L 195.07064 -163.905003
L 193.590535 -163.545691
L 192.110441 -162.998389
L 190.630336 -162.252286
L 189.150242 -161.30726
L 187.670137 -160.170694
L 186.190032 -158.854816
L 184.709938 -157.374511
L 183.229833 -155.746121
L 181.749738 -153.987917
L 180.269634 -152.12273
L 178.789539 -150.183138
L 177.309434 -148.216532
L 175.82934 -146.283871
L 174.349235 -144.442579
L 172.86913 -142.720063
L 171.389036 -141.106158
L 169.908931 -139.572505
L 168.428837 -138.093184
L 166.948742 -136.652356
L 165.468627 -135.243525
L 163.988533 -133.866443
L 162.508438 -132.523841
L 161.028323 -131.219225
L 159.548229 -129.955605
L 158.068134 -128.734748
L 156.58804 -127.557176
L 155.107925 -126.422341
L 153.62783 -125.328953
L 152.147736 -124.275182
L 150.667621 -123.25899
L 149.187526 -122.278336
L 147.707432 -121.331208
L 146.227337 -120.415747
L 144.747222 -119.530263
L 143.267128 -118.673292
L 141.787033 -117.843486
L 140.306939 -117.039673
L 138.826824 -116.260802
L 137.346729 -115.50596
L 135.866635 -114.774294
L 134.38652 -114.065038
L 132.906425 -113.377495
L 131.426331 -112.710987
L 129.946236 -112.064901
L 128.466121 -111.438636
L 126.986027 -110.831627
L 125.505932 -110.24331
L 124.025817 -109.67315
L 122.545723 -109.120636
L 121.065628 -108.585237
L 119.585534 -108.066457
L 118.105419 -107.563799
L 116.625324 -107.076792
L 115.14523 -106.604936
L 113.665115 -106.147786
L 112.18502 -105.704872
L 110.704926 -105.275758
L 109.224831 -104.860006
L 107.744716 -104.457178
L 106.264622 -104.066855
L 104.784527 -103.688641
L 103.304433 -103.322144
L 101.824318 -102.966952
L 100.344223 -102.622715
L 98.864129 -102.289066
L 97.384014 -101.965633
L 95.903919 -101.652091
L 94.423825 -101.348112
L 92.94373 -101.053359
L 91.463615 -100.767516
L 89.983521 -100.490295
L 88.503426 -100.221404
L 87.023312 -99.960548
L 85.543217 -99.707473
L 84.063122 -99.461899
L 82.583028 -99.223585
L 81.102913 -98.99228
L 79.622818 -98.767746
L 78.142724 -98.54977
L 76.662609 -98.338101
L 75.182514 -98.132563
L 73.70242 -97.93293
L 72.222325 -97.73901
L 70.742211 -97.550611
L 69.262116 -97.367559
L 67.782021 -97.189668
L 66.301907 -97.016766
L 64.821812 -96.848699
L 63.341717 -96.685306
L 61.861623 -96.526434
L 60.381508 -96.371935
L 58.901413 -96.221662
L 57.421319 -96.075496
L 55.941224 -95.933295
L 54.46111 -95.794926
L 52.981015 -95.660284
L 51.50092 -95.529236
L 50.020806 -95.401673
L 48.540711 -95.277487
L 47.060616 -95.156579
L 45.580522 -95.03884
L 44.100407 -94.924176
L 42.620313 -94.81248
z
"/>
    </defs>
    <g clip-path="url(#pfc52b4c272)">
     <use xlink:href="#me5b441a0b2" x="0" y="247.90386" style="fill: #60a5fa; fill-opacity: 0.22"/>
    </g>
   </g>
   <g id="matplotlib.axis_1">
    <g id="xtick_1">
     <g id="line2d_1">
      <defs>
       <path id="m57c3a643a1" d="M 0 0
L 0 3.5
" style="stroke: #9ca3af; stroke-width: 0.8"/>
      </defs>
      <g>
       <use xlink:href="#m57c3a643a1" x="84.80317" y="210.34761" style="fill: #9ca3af; stroke: #9ca3af; stroke-width: 0.8"/>
      </g>
     </g>
     <g id="text_1">
      <!-- −6 -->
      <g style="fill: #9ca3af" transform="translate(77.432076 224.946047) scale(0.1 -0.1)">
       <defs>
        <path id="DejaVuSans-2212" d="M 678 2272
L 4684 2272
L 4684 1741
L 678 1741
L 678 2272
z
" transform="scale(0.015625)"/>
        <path id="DejaVuSans-36" d="M 2113 2584
Q 1688 2584 1439 2293
Q 1191 2003 1191 1497
Q 1191 994 1439 701
Q 1688 409 2113 409
Q 2538 409 2786 701
Q 3034 994 3034 1497
Q 3034 2003 2786 2293
Q 2538 2584 2113 2584
z
M 3366 4563
L 3366 3988
Q 3128 4100 2886 4159
Q 2644 4219 2406 4219
Q 1781 4219 1451 3797
Q 1122 3375 1075 2522
Q 1259 2794 1537 2939
Q 1816 3084 2150 3084
Q 2853 3084 3261 2657
Q 3669 2231 3669 1497
Q 3669 778 3244 343
Q 2819 -91 2113 -91
Q 1303 -91 875 529
Q 447 1150 447 2328
Q 447 3434 972 4092
Q 1497 4750 2381 4750
Q 2619 4750 2861 4703
Q 3103 4656 3366 4563
z
" transform="scale(0.015625)"/>
       </defs>
       <use xlink:href="#DejaVuSans-2212"/>
       <use xlink:href="#DejaVuSans-36" transform="translate(83.789062 0)"/>
      </g>
     </g>
    </g>
    <g id="xtick_2">
     <g id="line2d_2">
      <g>
       <use xlink:href="#m57c3a643a1" x="169.168884" y="210.34761" style="fill: #9ca3af; stroke: #9ca3af; stroke-width: 0.8"/>
      </g>
     </g>
     <g id="text_2">
      <!-- −4 -->
      <g style="fill: #9ca3af" transform="translate(161.79779 224.946047) scale(0.1 -0.1)">
       <defs>
        <path id="DejaVuSans-34" d="M 2419 4116
L 825 1625
L 2419 1625
L 2419 4116
z
M 2253 4666
L 3047 4666
L 3047 1625
L 3713 1625
L 3713 1100
L 3047 1100
L 3047 0
L 2419 0
L 2419 1100
L 313 1100
L 313 1709
L 2253 4666
z
" transform="scale(0.015625)"/>
       </defs>
       <use xlink:href="#DejaVuSans-2212"/>
       <use xlink:href="#DejaVuSans-34" transform="translate(83.789062 0)"/>
      </g>
     </g>
    </g>
    <g id="xtick_3">
     <g id="line2d_3">
      <g>
       <use xlink:href="#m57c3a643a1" x="253.534598" y="210.34761" style="fill: #9ca3af; stroke: #9ca3af; stroke-width: 0.8"/>
      </g>
     </g>
     <g id="text_3">
      <!-- −2 -->
      <g style="fill: #9ca3af" transform="translate(246.163504 224.946047) scale(0.1 -0.1)">
       <defs>
        <path id="DejaVuSans-32" d="M 1228 531
L 3431 531
L 3431 0
L 469 0
L 469 531
Q 828 903 1448 1529
Q 2069 2156 2228 2338
Q 2531 2678 2651 2914
Q 2772 3150 2772 3378
Q 2772 3750 2511 3984
Q 2250 4219 1831 4219
Q 1534 4219 1204 4116
Q 875 4013 500 3803
L 500 4441
Q 881 4594 1212 4672
Q 1544 4750 1819 4750
Q 2544 4750 2975 4387
Q 3406 4025 3406 3419
Q 3406 3131 3298 2873
Q 3191 2616 2906 2266
Q 2828 2175 2409 1742
Q 1991 1309 1228 531
z
" transform="scale(0.015625)"/>
       </defs>
       <use xlink:href="#DejaVuSans-2212"/>
       <use xlink:href="#DejaVuSans-32" transform="translate(83.789062 0)"/>
      </g>
     </g>
    </g>
    <g id="xtick_4">
     <g id="line2d_4">
      <g>
       <use xlink:href="#m57c3a643a1" x="337.900312" y="210.34761" style="fill: #9ca3af; stroke: #9ca3af; stroke-width: 0.8"/>
      </g>
     </g>
     <g id="text_4">
      <!-- 0 -->
      <g style="fill: #9ca3af" transform="translate(334.719063 224.946047) scale(0.1 -0.1)">
       <defs>
        <path id="DejaVuSans-30" d="M 2034 4250
Q 1547 4250 1301 3770
Q 1056 3291 1056 2328
Q 1056 1369 1301 889
Q 1547 409 2034 409
Q 2525 409 2770 889
Q 3016 1369 3016 2328
Q 3016 3291 2770 3770
Q 2525 4250 2034 4250
z
M 2034 4750
Q 2819 4750 3233 4129
Q 3647 3509 3647 2328
Q 3647 1150 3233 529
Q 2819 -91 2034 -91
Q 1250 -91 836 529
Q 422 1150 422 2328
Q 422 3509 836 4129
Q 1250 4750 2034 4750
z
" transform="scale(0.015625)"/>
       </defs>
       <use xlink:href="#DejaVuSans-30"/>
      </g>
     </g>
    </g>
    <g id="xtick_5">
     <g id="line2d_5">
      <g>
       <use xlink:href="#m57c3a643a1" x="422.266027" y="210.34761" style="fill: #9ca3af; stroke: #9ca3af; stroke-width: 0.8"/>
      </g>
     </g>
     <g id="text_5">
      <!-- 2 -->
      <g style="fill: #9ca3af" transform="translate(419.084777 224.946047) scale(0.1 -0.1)">
       <use xlink:href="#DejaVuSans-32"/>
      </g>
     </g>
    </g>
    <g id="xtick_6">
     <g id="line2d_6">
      <g>
       <use xlink:href="#m57c3a643a1" x="506.631741" y="210.34761" style="fill: #9ca3af; stroke: #9ca3af; stroke-width: 0.8"/>
      </g>
     </g>
     <g id="text_6">
      <!-- 4 -->
      <g style="fill: #9ca3af" transform="translate(503.450491 224.946047) scale(0.1 -0.1)">
       <use xlink:href="#DejaVuSans-34"/>
      </g>
     </g>
    </g>
    <g id="xtick_7">
     <g id="line2d_7">
      <g>
       <use xlink:href="#m57c3a643a1" x="590.997455" y="210.34761" style="fill: #9ca3af; stroke: #9ca3af; stroke-width: 0.8"/>
      </g>
     </g>
     <g id="text_7">
      <!-- 6 -->
      <g style="fill: #9ca3af" transform="translate(587.816205 224.946047) scale(0.1 -0.1)">
       <use xlink:href="#DejaVuSans-36"/>
      </g>
     </g>
    </g>
    <g id="text_8">
     <!-- x -->
     <g style="fill: #e5e7eb" transform="translate(334.940937 238.624172) scale(0.1 -0.1)">
      <defs>
       <path id="DejaVuSans-78" d="M 3513 3500
L 2247 1797
L 3578 0
L 2900 0
L 1881 1375
L 863 0
L 184 0
L 1544 1831
L 300 3500
L 978 3500
L 1906 2253
L 2834 3500
L 3513 3500
z
" transform="scale(0.015625)"/>
      </defs>
      <use xlink:href="#DejaVuSans-78"/>
     </g>
    </g>
   </g>
   <g id="matplotlib.axis_2">
    <g id="ytick_1">
     <g id="line2d_8">
      <defs>
       <path id="mcc6af27f56" d="M 0 0
L -3.5 0
" style="stroke: #9ca3af; stroke-width: 0.8"/>
      </defs>
      <g>
       <use xlink:href="#mcc6af27f56" x="42.620313" y="189.693007" style="fill: #9ca3af; stroke: #9ca3af; stroke-width: 0.8"/>
      </g>
     </g>
     <g id="text_9">
      <!-- −2 -->
      <g style="fill: #9ca3af" transform="translate(20.878125 193.492225) scale(0.1 -0.1)">
       <use xlink:href="#DejaVuSans-2212"/>
       <use xlink:href="#DejaVuSans-32" transform="translate(83.789062 0)"/>
      </g>
     </g>
    </g>
    <g id="ytick_2">
     <g id="line2d_9">
      <g>
       <use xlink:href="#mcc6af27f56" x="42.620313" y="155.268668" style="fill: #9ca3af; stroke: #9ca3af; stroke-width: 0.8"/>
      </g>
     </g>
     <g id="text_10">
      <!-- −1 -->
      <g style="fill: #9ca3af" transform="translate(20.878125 159.067887) scale(0.1 -0.1)">
       <defs>
        <path id="DejaVuSans-31" d="M 794 531
L 1825 531
L 1825 4091
L 703 3866
L 703 4441
L 1819 4666
L 2450 4666
L 2450 531
L 3481 531
L 3481 0
L 794 0
L 794 531
z
" transform="scale(0.015625)"/>
       </defs>
       <use xlink:href="#DejaVuSans-2212"/>
       <use xlink:href="#DejaVuSans-31" transform="translate(83.789062 0)"/>
      </g>
     </g>
    </g>
    <g id="ytick_3">
     <g id="line2d_10">
      <g>
       <use xlink:href="#mcc6af27f56" x="42.620313" y="120.84433" style="fill: #9ca3af; stroke: #9ca3af; stroke-width: 0.8"/>
      </g>
     </g>
     <g id="text_11">
      <!-- 0 -->
      <g style="fill: #9ca3af" transform="translate(29.257813 124.643548) scale(0.1 -0.1)">
       <use xlink:href="#DejaVuSans-30"/>
      </g>
     </g>
    </g>
    <g id="ytick_4">
     <g id="line2d_11">
      <g>
       <use xlink:href="#mcc6af27f56" x="42.620313" y="86.419991" style="fill: #9ca3af; stroke: #9ca3af; stroke-width: 0.8"/>
      </g>
     </g>
     <g id="text_12">
      <!-- 1 -->
      <g style="fill: #9ca3af" transform="translate(29.257813 90.21921) scale(0.1 -0.1)">
       <use xlink:href="#DejaVuSans-31"/>
      </g>
     </g>
    </g>
    <g id="ytick_5">
     <g id="line2d_12">
      <g>
       <use xlink:href="#mcc6af27f56" x="42.620313" y="51.995653" style="fill: #9ca3af; stroke: #9ca3af; stroke-width: 0.8"/>
      </g>
     </g>
     <g id="text_13">
      <!-- 2 -->
      <g style="fill: #9ca3af" transform="translate(29.257813 55.794871) scale(0.1 -0.1)">
       <use xlink:href="#DejaVuSans-32"/>
      </g>
     </g>
    </g>
    <g id="text_14">
     <!-- y -->
     <g style="fill: #e5e7eb" transform="translate(14.798438 123.803705) rotate(-90) scale(0.1 -0.1)">
      <defs>
       <path id="DejaVuSans-79" d="M 2059 -325
Q 1816 -950 1584 -1140
Q 1353 -1331 966 -1331
L 506 -1331
L 506 -850
L 844 -850
Q 1081 -850 1212 -737
Q 1344 -625 1503 -206
L 1606 56
L 191 3500
L 800 3500
L 1894 763
L 2988 3500
L 3597 3500
L 2059 -325
z
" transform="scale(0.015625)"/>
      </defs>
      <use xlink:href="#DejaVuSans-79"/>
     </g>
    </g>
   </g>
   <g id="line2d_13">
    <path d="M 42.620313 90.561385
L 45.580522 92.448997
L 48.540711 94.650928
L 51.50092 97.142845
L 54.46111 99.897117
L 57.421319 102.883274
L 61.861623 107.724404
L 66.301907 112.891913
L 75.182514 123.687021
L 81.102913 130.793505
L 85.543217 135.851621
L 89.983521 140.536369
L 92.94373 143.394088
L 95.903919 146.002152
L 98.864129 148.331721
L 101.824318 150.357002
L 104.784527 152.055591
L 107.744716 153.408655
L 110.704926 154.401238
L 113.665115 155.022333
L 116.625324 155.265079
L 119.585534 155.126783
L 122.545723 154.60898
L 125.505932 153.717389
L 128.466121 152.461901
L 131.426331 150.856391
L 134.38652 148.918659
L 137.346729 146.67013
L 140.306939 144.135709
L 143.267128 141.343463
L 147.707432 136.739934
L 152.147736 131.740937
L 158.068134 124.676456
L 169.908931 110.359249
L 174.349235 105.33399
L 178.789539 100.694629
L 181.749738 97.873578
L 184.709938 95.306826
L 187.670137 93.022766
L 190.630336 91.046694
L 193.590535 89.400487
L 196.550735 88.102365
L 199.510944 87.166701
L 202.471143 86.603853
L 205.431343 86.420051
L 208.391542 86.617328
L 211.351741 87.193502
L 214.31194 88.142195
L 217.27214 89.452905
L 220.232339 91.111112
L 223.192538 93.098477
L 226.152747 95.392998
L 229.112947 97.969258
L 232.073146 100.798752
L 236.51345 105.448598
L 240.953744 110.48146
L 246.874142 117.570384
L 258.714949 131.862521
L 263.155248 136.853573
L 267.595552 141.446338
L 270.555752 144.229983
L 273.515951 146.754742
L 276.47615 148.992675
L 279.436354 150.919004
L 282.396554 152.512399
L 285.356753 153.755227
L 288.316952 154.633727
L 291.277156 155.138177
L 294.237356 155.262989
L 297.197555 155.006782
L 300.157757 154.372395
L 303.117956 153.366849
L 306.078158 152.001273
L 309.038357 150.290789
L 311.998559 148.254325
L 314.958758 145.914434
L 317.918959 143.297013
L 320.879159 140.43104
L 325.319461 135.736106
L 329.759761 130.670683
L 335.680162 123.559218
L 346.040864 111.017977
L 350.481164 105.952553
L 354.921466 101.257619
L 357.881666 98.391646
L 360.841867 95.774226
L 363.802066 93.434334
L 366.762268 91.397871
L 369.722467 89.687387
L 372.682669 88.32181
L 375.642868 87.316264
L 378.60307 86.681877
L 381.563269 86.425671
L 384.523469 86.550483
L 387.483673 87.054932
L 390.443872 87.933432
L 393.404071 89.17626
L 396.364271 90.769656
L 399.324475 92.695984
L 402.284674 94.933917
L 405.244873 97.458676
L 408.205073 100.242321
L 412.645377 104.835086
L 417.085676 109.826138
L 423.006074 116.88478
L 434.846881 131.207199
L 439.287175 136.240061
L 443.727479 140.889907
L 446.687678 143.719401
L 449.647878 146.295661
L 452.608087 148.590182
L 455.568286 150.577547
L 458.528485 152.235754
L 461.488685 153.546464
L 464.448884 154.495157
L 467.409083 155.071331
L 470.369282 155.268609
L 473.329482 155.084806
L 476.289681 154.521959
L 479.24989 153.586294
L 482.21009 152.288173
L 485.170289 150.641965
L 488.130488 148.665893
L 491.090687 146.381833
L 494.050887 143.815081
L 497.011086 140.994031
L 501.45139 136.354669
L 505.891694 131.329411
L 511.812092 124.245902
L 523.652889 109.947722
L 528.093193 104.948725
L 532.533497 100.345196
L 535.493686 97.55295
L 538.453896 95.018529
L 541.414105 92.770001
L 544.374294 90.832268
L 547.334504 89.226758
L 550.294693 87.97127
L 553.254902 87.07968
L 556.215091 86.561877
L 559.175301 86.42358
L 562.13551 86.666326
L 565.095699 87.287421
L 568.055909 88.280004
L 571.016098 89.633068
L 573.976307 91.331657
L 576.936496 93.356938
L 579.896706 95.686507
L 582.856895 98.294571
L 585.817104 101.15229
L 590.257408 105.837038
L 594.697712 110.895154
L 600.618111 118.001638
L 610.978813 130.547714
L 615.419117 135.620398
L 619.859401 140.325439
L 622.81961 143.199634
L 625.779819 145.826378
L 628.740009 148.176545
L 631.700218 150.224161
L 633.180312 151.127275
L 633.180312 151.127275
" clip-path="url(#pfc52b4c272)" style="fill: none; stroke-dasharray: 5.18,2.24; stroke-dashoffset: 0; stroke: #9ca3af; stroke-opacity: 0.8; stroke-width: 1.4"/>
   </g>
   <g id="line2d_14">
    <path d="M 42.620313 167.851099
L 52.981015 166.663624
L 63.341717 165.237497
L 72.222325 163.782214
L 79.622818 162.37192
L 87.023312 160.749645
L 94.423825 158.879646
L 100.344223 157.177513
L 106.264622 155.265933
L 112.18502 153.117547
L 118.105419 150.701719
L 124.025817 147.984287
L 128.466121 145.72559
L 132.906425 143.258393
L 137.346729 140.563561
L 141.787033 137.619947
L 146.227337 134.403478
L 150.667621 130.885509
L 155.107925 127.03029
L 159.548229 122.792889
L 163.988533 118.123103
L 168.428837 112.993743
L 174.349235 105.604667
L 178.789539 100.074053
L 181.749738 96.660547
L 184.709938 93.619337
L 187.670137 91.041557
L 190.630336 88.978718
L 192.110441 88.14666
L 193.590535 87.446573
L 195.07064 86.874915
L 198.030839 86.090817
L 200.991039 85.720762
L 203.951238 85.67098
L 206.911437 85.857009
L 209.871636 86.230322
L 212.831846 86.789587
L 215.792045 87.575216
L 218.752244 88.65223
L 221.712444 90.089968
L 224.672643 91.945772
L 227.632842 94.253365
L 230.593041 97.015324
L 233.553241 100.202439
L 236.51345 103.762259
L 239.473649 107.629907
L 243.913943 113.840438
L 252.794551 126.489094
L 257.23485 132.270276
L 260.195049 135.788279
L 263.155248 139.006854
L 266.115453 141.910471
L 269.075652 144.489988
L 272.035851 146.740775
L 274.99605 148.660162
L 277.956255 150.245857
L 280.916454 151.496378
L 283.876653 152.412119
L 286.836853 152.994943
L 289.797057 153.246752
L 292.757256 153.168187
L 295.717455 152.75851
L 298.677655 152.01603
L 301.637856 150.937602
L 304.598056 149.516576
L 307.558257 147.740051
L 310.518457 145.587744
L 313.478658 143.034261
L 316.438858 140.055235
L 319.39906 136.636407
L 322.35926 132.784105
L 325.319461 128.533975
L 329.759761 121.57047
L 340.120463 104.655274
L 343.080663 100.316949
L 346.040864 96.448765
L 349.001065 93.122254
L 351.961265 90.356222
L 354.921466 88.128466
L 357.881666 86.39264
L 360.841867 85.092842
L 363.802066 84.173326
L 366.762268 83.583653
L 369.722467 83.280787
L 372.682669 83.22947
L 375.642868 83.401777
L 378.60307 83.776461
L 381.563269 84.338372
L 384.523469 85.078052
L 387.483673 85.99177
L 390.443872 87.081807
L 393.404071 88.357336
L 396.364271 89.835376
L 399.324475 91.541357
L 402.284674 93.507161
L 405.244873 95.763892
L 408.205073 98.329415
L 411.165277 101.200763
L 414.125476 104.365183
L 417.085676 107.82502
L 420.045875 111.614435
L 423.006074 115.784541
L 425.966273 120.325464
L 431.886682 129.685148
L 434.846881 133.945754
L 437.80708 137.729809
L 440.76728 141.020458
L 443.727479 143.843402
L 446.687678 146.238903
L 449.647878 148.250145
L 452.608087 149.919588
L 455.568286 151.286935
L 458.528485 152.38496
L 461.488685 153.232457
L 464.448884 153.827526
L 467.409083 154.148657
L 470.369282 154.167815
L 473.329482 153.867094
L 476.289681 153.245773
L 479.24989 152.316018
L 482.21009 151.094794
L 485.170289 149.597694
L 488.130488 147.836238
L 491.090687 145.817502
L 494.050887 143.545363
L 497.011086 141.022771
L 499.971285 138.25504
L 502.931495 135.254205
L 507.371788 130.372928
L 513.292187 123.419953
L 519.212585 116.498942
L 523.652889 111.667134
L 528.093193 107.285769
L 531.053403 104.628725
L 535.493686 101.018464
L 539.93399 97.814491
L 544.374294 94.96435
L 548.814598 92.420675
L 553.254902 90.143365
L 557.695206 88.09892
L 562.13551 86.25922
L 568.055909 84.084021
L 573.976307 82.183125
L 579.896706 80.517023
L 585.817104 79.052559
L 593.217597 77.463344
L 600.618111 76.1003
L 609.498718 74.711381
L 618.379306 73.543341
L 628.740009 72.405795
L 633.180312 71.980393
L 633.180312 71.980393
" clip-path="url(#pfc52b4c272)" style="fill: none; stroke: #93c5fd; stroke-width: 2.2; stroke-linecap: square"/>
   </g>
   <g id="patch_3">
    <path d="M 42.620313 210.34761
L 42.620313 31.34105
" style="fill: none; stroke: #9ca3af; stroke-width: 0.8; stroke-linejoin: miter; stroke-linecap: square"/>
   </g>
   <g id="patch_4">
    <path d="M 42.620313 210.34761
L 633.180312 210.34761
" style="fill: none; stroke: #9ca3af; stroke-width: 0.8; stroke-linejoin: miter; stroke-linecap: square"/>
   </g>
   <g id="PathCollection_1">
    <defs>
     <path id="mf0c2ba4448" d="M 0 2
C 0.530406 2 1.03916 1.789267 1.414214 1.414214
C 1.789267 1.03916 2 0.530406 2 0
C 2 -0.530406 1.789267 -1.03916 1.414214 -1.414214
C 1.03916 -1.789267 0.530406 -2 0 -2
C -0.530406 -2 -1.03916 -1.789267 -1.414214 -1.414214
C -1.789267 -1.03916 -2 -0.530406 -2 0
C -2 0.530406 -1.789267 1.03916 -1.414214 1.414214
C -1.03916 1.789267 -0.530406 2 0 2
z
" style="stroke: #cbd5e1; stroke-opacity: 0.8"/>
    </defs>
    <g clip-path="url(#pfc52b4c272)">
     <use xlink:href="#mf0c2ba4448" x="242.118475" y="111.646946" style="fill: #cbd5e1; fill-opacity: 0.8; stroke: #cbd5e1; stroke-opacity: 0.8"/>
     <use xlink:href="#mf0c2ba4448" x="187.908764" y="84.580023" style="fill: #cbd5e1; fill-opacity: 0.8; stroke: #cbd5e1; stroke-opacity: 0.8"/>
     <use xlink:href="#mf0c2ba4448" x="154.126787" y="128.63911" style="fill: #cbd5e1; fill-opacity: 0.8; stroke: #cbd5e1; stroke-opacity: 0.8"/>
     <use xlink:href="#mf0c2ba4448" x="150.517588" y="136.230123" style="fill: #cbd5e1; fill-opacity: 0.8; stroke: #cbd5e1; stroke-opacity: 0.8"/>
     <use xlink:href="#mf0c2ba4448" x="268.148672" y="143.54444" style="fill: #cbd5e1; fill-opacity: 0.8; stroke: #cbd5e1; stroke-opacity: 0.8"/>
     <use xlink:href="#mf0c2ba4448" x="282.836691" y="157.227192" style="fill: #cbd5e1; fill-opacity: 0.8; stroke: #cbd5e1; stroke-opacity: 0.8"/>
     <use xlink:href="#mf0c2ba4448" x="237.641161" y="111.973332" style="fill: #cbd5e1; fill-opacity: 0.8; stroke: #cbd5e1; stroke-opacity: 0.8"/>
     <use xlink:href="#mf0c2ba4448" x="255.780326" y="125.801248" style="fill: #cbd5e1; fill-opacity: 0.8; stroke: #cbd5e1; stroke-opacity: 0.8"/>
     <use xlink:href="#mf0c2ba4448" x="228.338252" y="94.868621" style="fill: #cbd5e1; fill-opacity: 0.8; stroke: #cbd5e1; stroke-opacity: 0.8"/>
     <use xlink:href="#mf0c2ba4448" x="286.131548" y="148.673112" style="fill: #cbd5e1; fill-opacity: 0.8; stroke: #cbd5e1; stroke-opacity: 0.8"/>
     <use xlink:href="#mf0c2ba4448" x="268.530075" y="145.468491" style="fill: #cbd5e1; fill-opacity: 0.8; stroke: #cbd5e1; stroke-opacity: 0.8"/>
     <use xlink:href="#mf0c2ba4448" x="148.481774" y="128.915661" style="fill: #cbd5e1; fill-opacity: 0.8; stroke: #cbd5e1; stroke-opacity: 0.8"/>
     <use xlink:href="#mf0c2ba4448" x="274.664621" y="148.845812" style="fill: #cbd5e1; fill-opacity: 0.8; stroke: #cbd5e1; stroke-opacity: 0.8"/>
     <use xlink:href="#mf0c2ba4448" x="153.036026" y="124.200479" style="fill: #cbd5e1; fill-opacity: 0.8; stroke: #cbd5e1; stroke-opacity: 0.8"/>
     <use xlink:href="#mf0c2ba4448" x="255.803784" y="130.221246" style="fill: #cbd5e1; fill-opacity: 0.8; stroke: #cbd5e1; stroke-opacity: 0.8"/>
     <use xlink:href="#mf0c2ba4448" x="174.011254" y="108.742685" style="fill: #cbd5e1; fill-opacity: 0.8; stroke: #cbd5e1; stroke-opacity: 0.8"/>
     <use xlink:href="#mf0c2ba4448" x="275.517193" y="147.268846" style="fill: #cbd5e1; fill-opacity: 0.8; stroke: #cbd5e1; stroke-opacity: 0.8"/>
     <use xlink:href="#mf0c2ba4448" x="228.018786" y="92.725083" style="fill: #cbd5e1; fill-opacity: 0.8; stroke: #cbd5e1; stroke-opacity: 0.8"/>
     <use xlink:href="#mf0c2ba4448" x="192.326922" y="89.396481" style="fill: #cbd5e1; fill-opacity: 0.8; stroke: #cbd5e1; stroke-opacity: 0.8"/>
     <use xlink:href="#mf0c2ba4448" x="210.482992" y="89.404196" style="fill: #cbd5e1; fill-opacity: 0.8; stroke: #cbd5e1; stroke-opacity: 0.8"/>
     <use xlink:href="#mf0c2ba4448" x="152.258566" y="137.152647" style="fill: #cbd5e1; fill-opacity: 0.8; stroke: #cbd5e1; stroke-opacity: 0.8"/>
     <use xlink:href="#mf0c2ba4448" x="166.426634" y="120.27892" style="fill: #cbd5e1; fill-opacity: 0.8; stroke: #cbd5e1; stroke-opacity: 0.8"/>
     <use xlink:href="#mf0c2ba4448" x="247.088441" y="115.755069" style="fill: #cbd5e1; fill-opacity: 0.8; stroke: #cbd5e1; stroke-opacity: 0.8"/>
     <use xlink:href="#mf0c2ba4448" x="243.62851" y="109.557499" style="fill: #cbd5e1; fill-opacity: 0.8; stroke: #cbd5e1; stroke-opacity: 0.8"/>
     <use xlink:href="#mf0c2ba4448" x="238.932915" y="108.829956" style="fill: #cbd5e1; fill-opacity: 0.8; stroke: #cbd5e1; stroke-opacity: 0.8"/>
     <use xlink:href="#mf0c2ba4448" x="204.723609" y="90.867453" style="fill: #cbd5e1; fill-opacity: 0.8; stroke: #cbd5e1; stroke-opacity: 0.8"/>
     <use xlink:href="#mf0c2ba4448" x="295.305528" y="151.607951" style="fill: #cbd5e1; fill-opacity: 0.8; stroke: #cbd5e1; stroke-opacity: 0.8"/>
     <use xlink:href="#mf0c2ba4448" x="292.887984" y="160.542572" style="fill: #cbd5e1; fill-opacity: 0.8; stroke: #cbd5e1; stroke-opacity: 0.8"/>
     <use xlink:href="#mf0c2ba4448" x="249.290872" y="123.469402" style="fill: #cbd5e1; fill-opacity: 0.8; stroke: #cbd5e1; stroke-opacity: 0.8"/>
     <use xlink:href="#mf0c2ba4448" x="244.111265" y="111.659467" style="fill: #cbd5e1; fill-opacity: 0.8; stroke: #cbd5e1; stroke-opacity: 0.8"/>
     <use xlink:href="#mf0c2ba4448" x="249.71973" y="130.343894" style="fill: #cbd5e1; fill-opacity: 0.8; stroke: #cbd5e1; stroke-opacity: 0.8"/>
     <use xlink:href="#mf0c2ba4448" x="205.49781" y="84.824238" style="fill: #cbd5e1; fill-opacity: 0.8; stroke: #cbd5e1; stroke-opacity: 0.8"/>
     <use xlink:href="#mf0c2ba4448" x="168.02311" y="114.982642" style="fill: #cbd5e1; fill-opacity: 0.8; stroke: #cbd5e1; stroke-opacity: 0.8"/>
     <use xlink:href="#mf0c2ba4448" x="254.597994" y="126.53577" style="fill: #cbd5e1; fill-opacity: 0.8; stroke: #cbd5e1; stroke-opacity: 0.8"/>
     <use xlink:href="#mf0c2ba4448" x="225.640767" y="95.287962" style="fill: #cbd5e1; fill-opacity: 0.8; stroke: #cbd5e1; stroke-opacity: 0.8"/>
     <use xlink:href="#mf0c2ba4448" x="193.88157" y="88.422252" style="fill: #cbd5e1; fill-opacity: 0.8; stroke: #cbd5e1; stroke-opacity: 0.8"/>
     <use xlink:href="#mf0c2ba4448" x="219.806186" y="87.98407" style="fill: #cbd5e1; fill-opacity: 0.8; stroke: #cbd5e1; stroke-opacity: 0.8"/>
     <use xlink:href="#mf0c2ba4448" x="279.401441" y="154.030953" style="fill: #cbd5e1; fill-opacity: 0.8; stroke: #cbd5e1; stroke-opacity: 0.8"/>
     <use xlink:href="#mf0c2ba4448" x="285.979639" y="148.100771" style="fill: #cbd5e1; fill-opacity: 0.8; stroke: #cbd5e1; stroke-opacity: 0.8"/>
     <use xlink:href="#mf0c2ba4448" x="200.902334" y="83.855798" style="fill: #cbd5e1; fill-opacity: 0.8; stroke: #cbd5e1; stroke-opacity: 0.8"/>
     <use xlink:href="#mf0c2ba4448" x="464.463829" y="151.013614" style="fill: #cbd5e1; fill-opacity: 0.8; stroke: #cbd5e1; stroke-opacity: 0.8"/>
     <use xlink:href="#mf0c2ba4448" x="427.603964" y="117.691717" style="fill: #cbd5e1; fill-opacity: 0.8; stroke: #cbd5e1; stroke-opacity: 0.8"/>
     <use xlink:href="#mf0c2ba4448" x="467.825621" y="151.868627" style="fill: #cbd5e1; fill-opacity: 0.8; stroke: #cbd5e1; stroke-opacity: 0.8"/>
     <use xlink:href="#mf0c2ba4448" x="429.972379" y="121.903389" style="fill: #cbd5e1; fill-opacity: 0.8; stroke: #cbd5e1; stroke-opacity: 0.8"/>
     <use xlink:href="#mf0c2ba4448" x="437.901799" y="134.392925" style="fill: #cbd5e1; fill-opacity: 0.8; stroke: #cbd5e1; stroke-opacity: 0.8"/>
     <use xlink:href="#mf0c2ba4448" x="511.52327" y="130.491435" style="fill: #cbd5e1; fill-opacity: 0.8; stroke: #cbd5e1; stroke-opacity: 0.8"/>
     <use xlink:href="#mf0c2ba4448" x="413.620717" y="106.45932" style="fill: #cbd5e1; fill-opacity: 0.8; stroke: #cbd5e1; stroke-opacity: 0.8"/>
     <use xlink:href="#mf0c2ba4448" x="472.090518" y="158.386873" style="fill: #cbd5e1; fill-opacity: 0.8; stroke: #cbd5e1; stroke-opacity: 0.8"/>
     <use xlink:href="#mf0c2ba4448" x="392.487194" y="94.630352" style="fill: #cbd5e1; fill-opacity: 0.8; stroke: #cbd5e1; stroke-opacity: 0.8"/>
     <use xlink:href="#mf0c2ba4448" x="503.014748" y="133.555462" style="fill: #cbd5e1; fill-opacity: 0.8; stroke: #cbd5e1; stroke-opacity: 0.8"/>
     <use xlink:href="#mf0c2ba4448" x="496.290369" y="144.051286" style="fill: #cbd5e1; fill-opacity: 0.8; stroke: #cbd5e1; stroke-opacity: 0.8"/>
     <use xlink:href="#mf0c2ba4448" x="415.423672" y="112.173086" style="fill: #cbd5e1; fill-opacity: 0.8; stroke: #cbd5e1; stroke-opacity: 0.8"/>
     <use xlink:href="#mf0c2ba4448" x="509.487295" y="131.371506" style="fill: #cbd5e1; fill-opacity: 0.8; stroke: #cbd5e1; stroke-opacity: 0.8"/>
     <use xlink:href="#mf0c2ba4448" x="388.730154" y="86.27092" style="fill: #cbd5e1; fill-opacity: 0.8; stroke: #cbd5e1; stroke-opacity: 0.8"/>
     <use xlink:href="#mf0c2ba4448" x="429.707493" y="123.586959" style="fill: #cbd5e1; fill-opacity: 0.8; stroke: #cbd5e1; stroke-opacity: 0.8"/>
     <use xlink:href="#mf0c2ba4448" x="402.270428" y="89.459469" style="fill: #cbd5e1; fill-opacity: 0.8; stroke: #cbd5e1; stroke-opacity: 0.8"/>
     <use xlink:href="#mf0c2ba4448" x="446.571277" y="143.670202" style="fill: #cbd5e1; fill-opacity: 0.8; stroke: #cbd5e1; stroke-opacity: 0.8"/>
     <use xlink:href="#mf0c2ba4448" x="497.652482" y="136.048504" style="fill: #cbd5e1; fill-opacity: 0.8; stroke: #cbd5e1; stroke-opacity: 0.8"/>
     <use xlink:href="#mf0c2ba4448" x="414.135186" y="100.678628" style="fill: #cbd5e1; fill-opacity: 0.8; stroke: #cbd5e1; stroke-opacity: 0.8"/>
     <use xlink:href="#mf0c2ba4448" x="387.763594" y="82.370869" style="fill: #cbd5e1; fill-opacity: 0.8; stroke: #cbd5e1; stroke-opacity: 0.8"/>
     <use xlink:href="#mf0c2ba4448" x="439.811204" y="146.581977" style="fill: #cbd5e1; fill-opacity: 0.8; stroke: #cbd5e1; stroke-opacity: 0.8"/>
     <use xlink:href="#mf0c2ba4448" x="409.391634" y="96.348362" style="fill: #cbd5e1; fill-opacity: 0.8; stroke: #cbd5e1; stroke-opacity: 0.8"/>
     <use xlink:href="#mf0c2ba4448" x="393.481949" y="87.810815" style="fill: #cbd5e1; fill-opacity: 0.8; stroke: #cbd5e1; stroke-opacity: 0.8"/>
     <use xlink:href="#mf0c2ba4448" x="465.763447" y="153.046918" style="fill: #cbd5e1; fill-opacity: 0.8; stroke: #cbd5e1; stroke-opacity: 0.8"/>
     <use xlink:href="#mf0c2ba4448" x="424.182663" y="116.785033" style="fill: #cbd5e1; fill-opacity: 0.8; stroke: #cbd5e1; stroke-opacity: 0.8"/>
     <use xlink:href="#mf0c2ba4448" x="479.296495" y="151.98749" style="fill: #cbd5e1; fill-opacity: 0.8; stroke: #cbd5e1; stroke-opacity: 0.8"/>
     <use xlink:href="#mf0c2ba4448" x="409.53963" y="100.25433" style="fill: #cbd5e1; fill-opacity: 0.8; stroke: #cbd5e1; stroke-opacity: 0.8"/>
     <use xlink:href="#mf0c2ba4448" x="519.176742" y="116.743735" style="fill: #cbd5e1; fill-opacity: 0.8; stroke: #cbd5e1; stroke-opacity: 0.8"/>
     <use xlink:href="#mf0c2ba4448" x="433.988039" y="138.055476" style="fill: #cbd5e1; fill-opacity: 0.8; stroke: #cbd5e1; stroke-opacity: 0.8"/>
     <use xlink:href="#mf0c2ba4448" x="395.658493" y="90.808721" style="fill: #cbd5e1; fill-opacity: 0.8; stroke: #cbd5e1; stroke-opacity: 0.8"/>
     <use xlink:href="#mf0c2ba4448" x="472.964698" y="158.448166" style="fill: #cbd5e1; fill-opacity: 0.8; stroke: #cbd5e1; stroke-opacity: 0.8"/>
     <use xlink:href="#mf0c2ba4448" x="516.968266" y="113.481116" style="fill: #cbd5e1; fill-opacity: 0.8; stroke: #cbd5e1; stroke-opacity: 0.8"/>
     <use xlink:href="#mf0c2ba4448" x="445.100455" y="143.42469" style="fill: #cbd5e1; fill-opacity: 0.8; stroke: #cbd5e1; stroke-opacity: 0.8"/>
     <use xlink:href="#mf0c2ba4448" x="521.018915" y="112.704654" style="fill: #cbd5e1; fill-opacity: 0.8; stroke: #cbd5e1; stroke-opacity: 0.8"/>
     <use xlink:href="#mf0c2ba4448" x="453.887792" y="152.998039" style="fill: #cbd5e1; fill-opacity: 0.8; stroke: #cbd5e1; stroke-opacity: 0.8"/>
     <use xlink:href="#mf0c2ba4448" x="442.86392" y="142.130546" style="fill: #cbd5e1; fill-opacity: 0.8; stroke: #cbd5e1; stroke-opacity: 0.8"/>
     <use xlink:href="#mf0c2ba4448" x="471.651482" y="155.2834" style="fill: #cbd5e1; fill-opacity: 0.8; stroke: #cbd5e1; stroke-opacity: 0.8"/>
     <use xlink:href="#mf0c2ba4448" x="526.999214" y="112.284257" style="fill: #cbd5e1; fill-opacity: 0.8; stroke: #cbd5e1; stroke-opacity: 0.8"/>
     <use xlink:href="#mf0c2ba4448" x="520.185215" y="112.804691" style="fill: #cbd5e1; fill-opacity: 0.8; stroke: #cbd5e1; stroke-opacity: 0.8"/>
     <use xlink:href="#mf0c2ba4448" x="448.004233" y="145.336405" style="fill: #cbd5e1; fill-opacity: 0.8; stroke: #cbd5e1; stroke-opacity: 0.8"/>
    </g>
   </g>
   <g id="legend_1">
    <g id="patch_5">
     <path d="M 123.512578 17.638594
L 136.112578 17.638594
L 136.112578 11.338594
L 123.512578 11.338594
z
" style="fill: #60a5fa; fill-opacity: 0.22"/>
    </g>
    <g id="text_15">
     <!-- Epistemic uncertainty (±2σ) -->
     <g style="fill: #e5e7eb" transform="translate(143.312578 17.638594) scale(0.09 -0.09)">
      <defs>
       <path id="DejaVuSans-45" d="M 628 4666
L 3578 4666
L 3578 4134
L 1259 4134
L 1259 2753
L 3481 2753
L 3481 2222
L 1259 2222
L 1259 531
L 3634 531
L 3634 0
L 628 0
L 628 4666
z
" transform="scale(0.015625)"/>
       <path id="DejaVuSans-70" d="M 1159 525
L 1159 -1331
L 581 -1331
L 581 3500
L 1159 3500
L 1159 2969
Q 1341 3281 1617 3432
Q 1894 3584 2278 3584
Q 2916 3584 3314 3078
Q 3713 2572 3713 1747
Q 3713 922 3314 415
Q 2916 -91 2278 -91
Q 1894 -91 1617 61
Q 1341 213 1159 525
z
M 3116 1747
Q 3116 2381 2855 2742
Q 2594 3103 2138 3103
Q 1681 3103 1420 2742
Q 1159 2381 1159 1747
Q 1159 1113 1420 752
Q 1681 391 2138 391
Q 2594 391 2855 752
Q 3116 1113 3116 1747
z
" transform="scale(0.015625)"/>
       <path id="DejaVuSans-69" d="M 603 3500
L 1178 3500
L 1178 0
L 603 0
L 603 3500
z
M 603 4863
L 1178 4863
L 1178 4134
L 603 4134
L 603 4863
z
" transform="scale(0.015625)"/>
       <path id="DejaVuSans-73" d="M 2834 3397
L 2834 2853
Q 2591 2978 2328 3040
Q 2066 3103 1784 3103
Q 1356 3103 1142 2972
Q 928 2841 928 2578
Q 928 2378 1081 2264
Q 1234 2150 1697 2047
L 1894 2003
Q 2506 1872 2764 1633
Q 3022 1394 3022 966
Q 3022 478 2636 193
Q 2250 -91 1575 -91
Q 1294 -91 989 -36
Q 684 19 347 128
L 347 722
Q 666 556 975 473
Q 1284 391 1588 391
Q 1994 391 2212 530
Q 2431 669 2431 922
Q 2431 1156 2273 1281
Q 2116 1406 1581 1522
L 1381 1569
Q 847 1681 609 1914
Q 372 2147 372 2553
Q 372 3047 722 3315
Q 1072 3584 1716 3584
Q 2034 3584 2315 3537
Q 2597 3491 2834 3397
z
" transform="scale(0.015625)"/>
       <path id="DejaVuSans-74" d="M 1172 4494
L 1172 3500
L 2356 3500
L 2356 3053
L 1172 3053
L 1172 1153
Q 1172 725 1289 603
Q 1406 481 1766 481
L 2356 481
L 2356 0
L 1766 0
Q 1100 0 847 248
Q 594 497 594 1153
L 594 3053
L 172 3053
L 172 3500
L 594 3500
L 594 4494
L 1172 4494
z
" transform="scale(0.015625)"/>
       <path id="DejaVuSans-65" d="M 3597 1894
L 3597 1613
L 953 1613
Q 991 1019 1311 708
Q 1631 397 2203 397
Q 2534 397 2845 478
Q 3156 559 3463 722
L 3463 178
Q 3153 47 2828 -22
Q 2503 -91 2169 -91
Q 1331 -91 842 396
Q 353 884 353 1716
Q 353 2575 817 3079
Q 1281 3584 2069 3584
Q 2775 3584 3186 3129
Q 3597 2675 3597 1894
z
M 3022 2063
Q 3016 2534 2758 2815
Q 2500 3097 2075 3097
Q 1594 3097 1305 2825
Q 1016 2553 972 2059
L 3022 2063
z
" transform="scale(0.015625)"/>
       <path id="DejaVuSans-6d" d="M 3328 2828
Q 3544 3216 3844 3400
Q 4144 3584 4550 3584
Q 5097 3584 5394 3201
Q 5691 2819 5691 2113
L 5691 0
L 5113 0
L 5113 2094
Q 5113 2597 4934 2840
Q 4756 3084 4391 3084
Q 3944 3084 3684 2787
Q 3425 2491 3425 1978
L 3425 0
L 2847 0
L 2847 2094
Q 2847 2600 2669 2842
Q 2491 3084 2119 3084
Q 1678 3084 1418 2786
Q 1159 2488 1159 1978
L 1159 0
L 581 0
L 581 3500
L 1159 3500
L 1159 2956
Q 1356 3278 1631 3431
Q 1906 3584 2284 3584
Q 2666 3584 2933 3390
Q 3200 3197 3328 2828
z
" transform="scale(0.015625)"/>
       <path id="DejaVuSans-63" d="M 3122 3366
L 3122 2828
Q 2878 2963 2633 3030
Q 2388 3097 2138 3097
Q 1578 3097 1268 2742
Q 959 2388 959 1747
Q 959 1106 1268 751
Q 1578 397 2138 397
Q 2388 397 2633 464
Q 2878 531 3122 666
L 3122 134
Q 2881 22 2623 -34
Q 2366 -91 2075 -91
Q 1284 -91 818 406
Q 353 903 353 1747
Q 353 2603 823 3093
Q 1294 3584 2113 3584
Q 2378 3584 2631 3529
Q 2884 3475 3122 3366
z
" transform="scale(0.015625)"/>
       <path id="DejaVuSans-20" transform="scale(0.015625)"/>
       <path id="DejaVuSans-75" d="M 544 1381
L 544 3500
L 1119 3500
L 1119 1403
Q 1119 906 1312 657
Q 1506 409 1894 409
Q 2359 409 2629 706
Q 2900 1003 2900 1516
L 2900 3500
L 3475 3500
L 3475 0
L 2900 0
L 2900 538
Q 2691 219 2414 64
Q 2138 -91 1772 -91
Q 1169 -91 856 284
Q 544 659 544 1381
z
M 1991 3584
L 1991 3584
z
" transform="scale(0.015625)"/>
       <path id="DejaVuSans-6e" d="M 3513 2113
L 3513 0
L 2938 0
L 2938 2094
Q 2938 2591 2744 2837
Q 2550 3084 2163 3084
Q 1697 3084 1428 2787
Q 1159 2491 1159 1978
L 1159 0
L 581 0
L 581 3500
L 1159 3500
L 1159 2956
Q 1366 3272 1645 3428
Q 1925 3584 2291 3584
Q 2894 3584 3203 3211
Q 3513 2838 3513 2113
z
" transform="scale(0.015625)"/>
       <path id="DejaVuSans-72" d="M 2631 2963
Q 2534 3019 2420 3045
Q 2306 3072 2169 3072
Q 1681 3072 1420 2755
Q 1159 2438 1159 1844
L 1159 0
L 581 0
L 581 3500
L 1159 3500
L 1159 2956
Q 1341 3275 1631 3429
Q 1922 3584 2338 3584
Q 2397 3584 2469 3576
Q 2541 3569 2628 3553
L 2631 2963
z
" transform="scale(0.015625)"/>
       <path id="DejaVuSans-61" d="M 2194 1759
Q 1497 1759 1228 1600
Q 959 1441 959 1056
Q 959 750 1161 570
Q 1363 391 1709 391
Q 2188 391 2477 730
Q 2766 1069 2766 1631
L 2766 1759
L 2194 1759
z
M 3341 1997
L 3341 0
L 2766 0
L 2766 531
Q 2569 213 2275 61
Q 1981 -91 1556 -91
Q 1019 -91 701 211
Q 384 513 384 1019
Q 384 1609 779 1909
Q 1175 2209 1959 2209
L 2766 2209
L 2766 2266
Q 2766 2663 2505 2880
Q 2244 3097 1772 3097
Q 1472 3097 1187 3025
Q 903 2953 641 2809
L 641 3341
Q 956 3463 1253 3523
Q 1550 3584 1831 3584
Q 2591 3584 2966 3190
Q 3341 2797 3341 1997
z
" transform="scale(0.015625)"/>
       <path id="DejaVuSans-28" d="M 1984 4856
Q 1566 4138 1362 3434
Q 1159 2731 1159 2009
Q 1159 1288 1364 580
Q 1569 -128 1984 -844
L 1484 -844
Q 1016 -109 783 600
Q 550 1309 550 2009
Q 550 2706 781 3412
Q 1013 4119 1484 4856
L 1984 4856
z
" transform="scale(0.015625)"/>
       <path id="DejaVuSans-b1" d="M 2944 4013
L 2944 2803
L 4684 2803
L 4684 2272
L 2944 2272
L 2944 1063
L 2419 1063
L 2419 2272
L 678 2272
L 678 2803
L 2419 2803
L 2419 4013
L 2944 4013
z
M 678 531
L 4684 531
L 4684 0
L 678 0
L 678 531
z
" transform="scale(0.015625)"/>
       <path id="DejaVuSans-3c3" d="M 1959 3044
Q 1484 3044 1228 2700
Q 959 2341 959 1747
Q 959 1119 1226 758
Q 1494 397 1959 397
Q 2419 397 2687 759
Q 2956 1122 2956 1747
Q 2956 2319 2688 2700
Q 2441 3044 1959 3044
z
M 1959 3500
L 3869 3500
L 3869 2925
L 3225 2925
Q 3566 2438 3566 1747
Q 3566 888 3138 400
Q 2709 -91 1959 -91
Q 1206 -91 781 400
Q 353 888 353 1747
Q 353 2613 781 3097
Q 1134 3500 1959 3500
z
" transform="scale(0.015625)"/>
       <path id="DejaVuSans-29" d="M 513 4856
L 1013 4856
Q 1481 4119 1714 3412
Q 1947 2706 1947 2009
Q 1947 1309 1714 600
Q 1481 -109 1013 -844
L 513 -844
Q 928 -128 1133 580
Q 1338 1288 1338 2009
Q 1338 2731 1133 3434
Q 928 4138 513 4856
z
" transform="scale(0.015625)"/>
      </defs>
      <use xlink:href="#DejaVuSans-45"/>
      <use xlink:href="#DejaVuSans-70" transform="translate(63.183594 0)"/>
      <use xlink:href="#DejaVuSans-69" transform="translate(126.660156 0)"/>
      <use xlink:href="#DejaVuSans-73" transform="translate(154.443359 0)"/>
      <use xlink:href="#DejaVuSans-74" transform="translate(206.542969 0)"/>
      <use xlink:href="#DejaVuSans-65" transform="translate(245.751953 0)"/>
      <use xlink:href="#DejaVuSans-6d" transform="translate(307.275391 0)"/>
      <use xlink:href="#DejaVuSans-69" transform="translate(404.6875 0)"/>
      <use xlink:href="#DejaVuSans-63" transform="translate(432.470703 0)"/>
      <use xlink:href="#DejaVuSans-20" transform="translate(487.451172 0)"/>
      <use xlink:href="#DejaVuSans-75" transform="translate(519.238281 0)"/>
      <use xlink:href="#DejaVuSans-6e" transform="translate(582.617188 0)"/>
      <use xlink:href="#DejaVuSans-63" transform="translate(645.996094 0)"/>
      <use xlink:href="#DejaVuSans-65" transform="translate(700.976562 0)"/>
      <use xlink:href="#DejaVuSans-72" transform="translate(762.5 0)"/>
      <use xlink:href="#DejaVuSans-74" transform="translate(803.613281 0)"/>
      <use xlink:href="#DejaVuSans-61" transform="translate(842.822266 0)"/>
      <use xlink:href="#DejaVuSans-69" transform="translate(904.101562 0)"/>
      <use xlink:href="#DejaVuSans-6e" transform="translate(931.884766 0)"/>
      <use xlink:href="#DejaVuSans-74" transform="translate(995.263672 0)"/>
      <use xlink:href="#DejaVuSans-79" transform="translate(1034.472656 0)"/>
      <use xlink:href="#DejaVuSans-20" transform="translate(1093.652344 0)"/>
      <use xlink:href="#DejaVuSans-28" transform="translate(1125.439453 0)"/>
      <use xlink:href="#DejaVuSans-b1" transform="translate(1164.453125 0)"/>
      <use xlink:href="#DejaVuSans-32" transform="translate(1248.242188 0)"/>
      <use xlink:href="#DejaVuSans-3c3" transform="translate(1311.865234 0)"/>
      <use xlink:href="#DejaVuSans-29" transform="translate(1375.244141 0)"/>
     </g>
    </g>
    <g id="line2d_15">
     <path d="M 281.395078 14.488594
L 287.695078 14.488594
L 293.995078 14.488594
" style="fill: none; stroke-dasharray: 5.18,2.24; stroke-dashoffset: 0; stroke: #9ca3af; stroke-opacity: 0.8; stroke-width: 1.4"/>
    </g>
    <g id="text_16">
     <!-- True function -->
     <g style="fill: #e5e7eb" transform="translate(301.195078 17.638594) scale(0.09 -0.09)">
      <defs>
       <path id="DejaVuSans-54" d="M -19 4666
L 3928 4666
L 3928 4134
L 2272 4134
L 2272 0
L 1638 0
L 1638 4134
L -19 4134
L -19 4666
z
" transform="scale(0.015625)"/>
       <path id="DejaVuSans-66" d="M 2375 4863
L 2375 4384
L 1825 4384
Q 1516 4384 1395 4259
Q 1275 4134 1275 3809
L 1275 3500
L 2222 3500
L 2222 3053
L 1275 3053
L 1275 0
L 697 0
L 697 3053
L 147 3053
L 147 3500
L 697 3500
L 697 3744
Q 697 4328 969 4595
Q 1241 4863 1831 4863
L 2375 4863
z
" transform="scale(0.015625)"/>
       <path id="DejaVuSans-6f" d="M 1959 3097
Q 1497 3097 1228 2736
Q 959 2375 959 1747
Q 959 1119 1226 758
Q 1494 397 1959 397
Q 2419 397 2687 759
Q 2956 1122 2956 1747
Q 2956 2369 2687 2733
Q 2419 3097 1959 3097
z
M 1959 3584
Q 2709 3584 3137 3096
Q 3566 2609 3566 1747
Q 3566 888 3137 398
Q 2709 -91 1959 -91
Q 1206 -91 779 398
Q 353 888 353 1747
Q 353 2609 779 3096
Q 1206 3584 1959 3584
z
" transform="scale(0.015625)"/>
      </defs>
      <use xlink:href="#DejaVuSans-54"/>
      <use xlink:href="#DejaVuSans-72" transform="translate(46.333984 0)"/>
      <use xlink:href="#DejaVuSans-75" transform="translate(87.447266 0)"/>
      <use xlink:href="#DejaVuSans-65" transform="translate(150.826172 0)"/>
      <use xlink:href="#DejaVuSans-20" transform="translate(212.349609 0)"/>
      <use xlink:href="#DejaVuSans-66" transform="translate(244.136719 0)"/>
      <use xlink:href="#DejaVuSans-75" transform="translate(279.341797 0)"/>
      <use xlink:href="#DejaVuSans-6e" transform="translate(342.720703 0)"/>
      <use xlink:href="#DejaVuSans-63" transform="translate(406.099609 0)"/>
      <use xlink:href="#DejaVuSans-74" transform="translate(461.080078 0)"/>
      <use xlink:href="#DejaVuSans-69" transform="translate(500.289062 0)"/>
      <use xlink:href="#DejaVuSans-6f" transform="translate(528.072266 0)"/>
      <use xlink:href="#DejaVuSans-6e" transform="translate(589.253906 0)"/>
     </g>
    </g>
    <g id="line2d_16">
     <path d="M 370.729922 14.488594
L 377.029922 14.488594
L 383.329922 14.488594
" style="fill: none; stroke: #93c5fd; stroke-width: 2.2; stroke-linecap: square"/>
    </g>
    <g id="text_17">
     <!-- Ensemble mean -->
     <g style="fill: #e5e7eb" transform="translate(390.529922 17.638594) scale(0.09 -0.09)">
      <defs>
       <path id="DejaVuSans-62" d="M 3116 1747
Q 3116 2381 2855 2742
Q 2594 3103 2138 3103
Q 1681 3103 1420 2742
Q 1159 2381 1159 1747
Q 1159 1113 1420 752
Q 1681 391 2138 391
Q 2594 391 2855 752
Q 3116 1113 3116 1747
z
M 1159 2969
Q 1341 3281 1617 3432
Q 1894 3584 2278 3584
Q 2916 3584 3314 3078
Q 3713 2572 3713 1747
Q 3713 922 3314 415
Q 2916 -91 2278 -91
Q 1894 -91 1617 61
Q 1341 213 1159 525
L 1159 0
L 581 0
L 581 4863
L 1159 4863
L 1159 2969
z
" transform="scale(0.015625)"/>
       <path id="DejaVuSans-6c" d="M 603 4863
L 1178 4863
L 1178 0
L 603 0
L 603 4863
z
" transform="scale(0.015625)"/>
      </defs>
      <use xlink:href="#DejaVuSans-45"/>
      <use xlink:href="#DejaVuSans-6e" transform="translate(63.183594 0)"/>
      <use xlink:href="#DejaVuSans-73" transform="translate(126.5625 0)"/>
      <use xlink:href="#DejaVuSans-65" transform="translate(178.662109 0)"/>
      <use xlink:href="#DejaVuSans-6d" transform="translate(240.185547 0)"/>
      <use xlink:href="#DejaVuSans-62" transform="translate(337.597656 0)"/>
      <use xlink:href="#DejaVuSans-6c" transform="translate(401.074219 0)"/>
      <use xlink:href="#DejaVuSans-65" transform="translate(428.857422 0)"/>
      <use xlink:href="#DejaVuSans-20" transform="translate(490.380859 0)"/>
      <use xlink:href="#DejaVuSans-6d" transform="translate(522.167969 0)"/>
      <use xlink:href="#DejaVuSans-65" transform="translate(619.580078 0)"/>
      <use xlink:href="#DejaVuSans-61" transform="translate(681.103516 0)"/>
      <use xlink:href="#DejaVuSans-6e" transform="translate(742.382812 0)"/>
     </g>
    </g>
    <g id="PathCollection_2">
     <g>
      <use xlink:href="#mf0c2ba4448" x="480.148828" y="15.276094" style="fill: #cbd5e1; fill-opacity: 0.8; stroke: #cbd5e1; stroke-opacity: 0.8"/>
     </g>
    </g>
    <g id="text_18">
     <!-- Training data -->
     <g style="fill: #e5e7eb" transform="translate(493.648828 17.638594) scale(0.09 -0.09)">
      <defs>
       <path id="DejaVuSans-67" d="M 2906 1791
Q 2906 2416 2648 2759
Q 2391 3103 1925 3103
Q 1463 3103 1205 2759
Q 947 2416 947 1791
Q 947 1169 1205 825
Q 1463 481 1925 481
Q 2391 481 2648 825
Q 2906 1169 2906 1791
z
M 3481 434
Q 3481 -459 3084 -895
Q 2688 -1331 1869 -1331
Q 1566 -1331 1297 -1286
Q 1028 -1241 775 -1147
L 775 -588
Q 1028 -725 1275 -790
Q 1522 -856 1778 -856
Q 2344 -856 2625 -561
Q 2906 -266 2906 331
L 2906 616
Q 2728 306 2450 153
Q 2172 0 1784 0
Q 1141 0 747 490
Q 353 981 353 1791
Q 353 2603 747 3093
Q 1141 3584 1784 3584
Q 2172 3584 2450 3431
Q 2728 3278 2906 2969
L 2906 3500
L 3481 3500
L 3481 434
z
" transform="scale(0.015625)"/>
       <path id="DejaVuSans-64" d="M 2906 2969
L 2906 4863
L 3481 4863
L 3481 0
L 2906 0
L 2906 525
Q 2725 213 2448 61
Q 2172 -91 1784 -91
Q 1150 -91 751 415
Q 353 922 353 1747
Q 353 2572 751 3078
Q 1150 3584 1784 3584
Q 2172 3584 2448 3432
Q 2725 3281 2906 2969
z
M 947 1747
Q 947 1113 1208 752
Q 1469 391 1925 391
Q 2381 391 2643 752
Q 2906 1113 2906 1747
Q 2906 2381 2643 2742
Q 2381 3103 1925 3103
Q 1469 3103 1208 2742
Q 947 2381 947 1747
z
" transform="scale(0.015625)"/>
      </defs>
      <use xlink:href="#DejaVuSans-54"/>
      <use xlink:href="#DejaVuSans-72" transform="translate(46.333984 0)"/>
      <use xlink:href="#DejaVuSans-61" transform="translate(87.447266 0)"/>
      <use xlink:href="#DejaVuSans-69" transform="translate(148.726562 0)"/>
      <use xlink:href="#DejaVuSans-6e" transform="translate(176.509766 0)"/>
      <use xlink:href="#DejaVuSans-69" transform="translate(239.888672 0)"/>
      <use xlink:href="#DejaVuSans-6e" transform="translate(267.671875 0)"/>
      <use xlink:href="#DejaVuSans-67" transform="translate(331.050781 0)"/>
      <use xlink:href="#DejaVuSans-20" transform="translate(394.527344 0)"/>
      <use xlink:href="#DejaVuSans-64" transform="translate(426.314453 0)"/>
      <use xlink:href="#DejaVuSans-61" transform="translate(489.791016 0)"/>
      <use xlink:href="#DejaVuSans-74" transform="translate(551.070312 0)"/>
      <use xlink:href="#DejaVuSans-61" transform="translate(590.279297 0)"/>
     </g>
    </g>
   </g>
  </g>
 </g>
 <defs>
  <clipPath id="pfc52b4c272">
   <rect x="42.620313" y="31.34105" width="590.56" height="179.00656"/>
  </clipPath>
 </defs>
</svg>
