<?xml version="1.0" encoding="utf-8" standalone="no"?>
<!DOCTYPE svg PUBLIC "-//W3C//DTD SVG 1.1//EN"
  "http://www.w3.org/Graphics/SVG/1.1/DTD/svg11.dtd">
<svg xmlns:xlink="http://www.w3.org/1999/xlink" width="640.821719pt" height="248.222203pt" viewBox="0 0 640.821719 248.222203" xmlns="http://www.w3.org/2000/svg" version="1.1">
 <metadata>
  <rdf:RDF xmlns:dc="http://purl.org/dc/elements/1.1/" xmlns:cc="http://creativecommons.org/ns#" xmlns:rdf="http://www.w3.org/1999/02/22-rdf-syntax-ns#">
   <cc:Work>
    <dc:type rdf:resource="http://purl.org/dc/dcmitype/StillImage"/>
    <dc:date>2026-07-21T15:39:18.867036</dc:date>
    <dc:format>image/svg+xml</dc:format>
    <dc:creator>
     <cc:Agent>
      <dc:title>Matplotlib v3.10.9, https://matplotlib.org/</dc:title>
     </cc:Agent>
    </dc:creator>
   </cc:Work>
  </rdf:RDF>
 </metadata>
 <defs>
<linearGradient id="cardbg" x1="0" y1="0" x2="1" y2="1"><stop offset="0" stop-color="#ffffff"/><stop offset="1" stop-color="#f7f8fa"/></linearGradient>
  <style type="text/css">*{stroke-linejoin: round; stroke-linecap: butt}</style>
 </defs>
 <g id="figure_1">
  <g id="patch_1">
   <rect x="0.6" y="0.6" width="639.6217" height="247.0222" style="fill: url(#cardbg)"/>
  </g>
  <g id="axes_1">
   <g id="patch_2">
    <path d="M 38.437969 209.95611
L 633.621719 209.95611
L 633.621719 31.28705
L 38.437969 31.28705
L 38.437969 209.95611
z
" style="fill: none; opacity: 0"/>
   </g>
   <g id="FillBetweenPolyCollection_1">
    <defs>
     <path id="m5247bf7fa6" d="M 38.437969 -95.414372
L 38.437969 -65.950589
L 39.929652 -66.15223
L 41.421355 -66.358998
L 42.913038 -66.571009
L 44.404721 -66.788435
L 45.896404 -67.011444
L 47.388107 -67.240199
L 48.87979 -67.474857
L 50.371473 -67.71561
L 51.863176 -67.962646
L 53.354859 -68.21612
L 54.846542 -68.476263
L 56.338224 -68.743267
L 57.829928 -69.017315
L 59.321611 -69.298642
L 60.813293 -69.587465
L 62.304976 -69.883984
L 63.79668 -70.188474
L 65.288362 -70.501131
L 66.780045 -70.822226
L 68.271749 -71.152005
L 69.763431 -71.490728
L 71.255114 -71.838652
L 72.746797 -72.196066
L 74.2385 -72.563244
L 75.730183 -72.940478
L 77.221866 -73.328084
L 78.713569 -73.726355
L 80.205252 -74.135603
L 81.696935 -74.55616
L 83.188618 -74.988358
L 84.680321 -75.432549
L 86.172004 -75.889077
L 87.663687 -76.358302
L 89.15539 -76.840606
L 90.647073 -77.336357
L 92.138756 -77.845969
L 93.630439 -78.36983
L 95.122142 -78.908371
L 96.613825 -79.462007
L 98.105508 -80.031178
L 99.597211 -80.616351
L 101.088894 -81.217971
L 102.580577 -81.836539
L 104.07226 -82.472536
L 105.563963 -83.126477
L 107.055646 -83.79887
L 108.547329 -84.490281
L 110.039012 -85.201246
L 111.530715 -85.932368
L 113.022398 -86.684211
L 114.514081 -87.457406
L 116.005784 -88.252588
L 117.497467 -89.070392
L 118.98915 -89.911515
L 120.480833 -90.776648
L 121.972536 -91.666512
L 123.464219 -92.581829
L 124.955902 -93.523368
L 126.447605 -94.491929
L 127.939288 -95.488282
L 129.430971 -96.513254
L 130.922654 -97.567686
L 132.414357 -98.652437
L 133.90604 -99.768306
L 135.397723 -100.916177
L 136.889426 -102.096915
L 138.381109 -103.311315
L 139.872792 -104.560213
L 141.364474 -105.844421
L 142.856178 -107.164714
L 144.347861 -108.521815
L 145.839543 -109.916486
L 147.331226 -111.349502
L 148.82293 -112.821709
L 150.314612 -114.334104
L 151.806295 -115.888017
L 153.297999 -117.485229
L 154.789681 -119.128175
L 156.281364 -120.820238
L 157.773047 -122.56577
L 159.26475 -124.370069
L 160.756433 -126.238736
L 162.248116 -128.176518
L 163.739819 -130.185046
L 165.231502 -132.259343
L 166.723185 -134.38366
L 168.214878 -136.527066
L 169.706561 -138.642005
L 171.198254 -140.672208
L 172.689947 -142.574073
L 174.18163 -144.337918
L 175.673323 -145.982846
L 177.165006 -147.53236
L 178.656699 -148.99938
L 180.148382 -150.386132
L 181.640075 -151.690123
L 183.131758 -152.909359
L 184.623451 -154.045053
L 186.115144 -155.101643
L 187.606827 -156.085283
L 189.09852 -157.001567
L 190.590203 -157.852831
L 192.081896 -158.635356
L 193.573579 -159.336379
L 195.065272 -159.9317
L 196.556965 -160.38599
L 198.048648 -160.661818
L 199.540341 -160.74197
L 201.032024 -160.649289
L 202.523717 -160.437038
L 204.0154 -160.160826
L 205.507093 -159.861553
L 206.998776 -159.563184
L 208.490469 -159.275789
L 209.982162 -158.998976
L 211.473845 -158.724132
L 212.965538 -158.435897
L 214.457221 -158.112949
L 215.948914 -157.727795
L 217.440597 -157.245459
L 218.93229 -156.622055
L 220.423973 -155.808349
L 221.915666 -154.765647
L 223.407359 -153.486255
L 224.899042 -151.993313
L 226.390735 -150.32294
L 227.882417 -148.511916
L 229.374111 -146.594898
L 230.865793 -144.60464
L 232.357486 -142.571409
L 233.84918 -140.521668
L 235.340862 -138.476277
L 236.832555 -136.449135
L 238.324238 -134.446469
L 239.815931 -132.466511
L 241.307614 -130.499949
L 242.799307 -128.531355
L 244.29099 -126.542862
L 245.782683 -124.520336
L 247.274376 -122.460928
L 248.766059 -120.377505
L 250.257752 -118.296461
L 251.74944 -116.250202
L 253.241128 -114.269167
L 254.732816 -112.376975
L 256.224504 -110.589108
L 257.716192 -108.913565
L 259.20788 -107.352186
L 260.699568 -105.901842
L 262.191256 -104.555124
L 263.682949 -103.300557
L 265.174637 -102.12267
L 266.666325 -101.002475
L 268.158013 -99.919554
L 269.649701 -98.856368
L 271.141389 -97.803896
L 272.633077 -96.76533
L 274.124765 -95.755064
L 275.616458 -94.793783
L 277.108146 -93.902929
L 278.599834 -93.100841
L 280.091522 -92.400816
L 281.58321 -91.810412
L 283.074898 -91.331331
L 284.566586 -90.959356
L 286.058274 -90.684398
L 287.549967 -90.490631
L 289.041655 -90.356983
L 290.533343 -90.258816
L 292.025031 -90.170822
L 293.516719 -90.071065
L 295.008407 -89.944737
L 296.500095 -89.78626
L 297.991785 -89.598911
L 299.483473 -89.392691
L 300.975161 -89.181733
L 302.466849 -88.981964
L 303.95854 -88.809545
L 305.450228 -88.679924
L 306.941916 -88.60747
L 308.433604 -88.605431
L 309.925294 -88.686133
L 311.416982 -88.861297
L 312.90867 -89.142452
L 314.400358 -89.54135
L 315.892047 -90.070307
L 317.383736 -90.742631
L 318.875424 -91.57294
L 320.367114 -92.577291
L 321.858802 -93.773116
L 323.350491 -95.178646
L 324.842179 -96.811678
L 326.333868 -98.687719
L 327.825557 -100.817502
L 329.317245 -103.204293
L 330.808934 -105.841324
L 332.300622 -108.70994
L 333.792311 -111.778814
L 335.283999 -115.004626
L 336.775688 -118.334177
L 338.267377 -121.70786
L 339.759065 -125.063969
L 341.250754 -128.343171
L 342.742442 -131.492621
L 344.234131 -134.469076
L 345.725819 -137.240737
L 347.217509 -139.787757
L 348.709197 -142.101563
L 350.200886 -144.183314
L 351.692574 -146.041859
L 353.184263 -147.691412
L 354.675951 -149.149448
L 356.16764 -150.434842
L 357.65933 -151.566466
L 359.151017 -152.562211
L 360.642705 -153.438361
L 362.134393 -154.20936
L 363.626084 -154.887693
L 365.117772 -155.483971
L 366.60946 -156.007054
L 368.101148 -156.464229
L 369.592838 -156.861349
L 371.084526 -157.20299
L 372.576214 -157.492597
L 374.067902 -157.732536
L 375.559593 -157.924195
L 377.051281 -158.067979
L 378.542969 -158.163397
L 380.034657 -158.208975
L 381.526345 -158.202333
L 383.018033 -158.140128
L 384.509721 -158.01815
L 386.001414 -157.831458
L 387.493102 -157.574715
L 388.98479 -157.242647
L 390.476478 -156.83082
L 391.968166 -156.336529
L 393.459854 -155.759623
L 394.951542 -155.102962
L 396.44323 -154.37223
L 397.934923 -153.574844
L 399.426611 -152.718057
L 400.918298 -151.80633
L 402.409986 -150.837977
L 403.901674 -149.801618
L 405.393362 -148.673452
L 406.88505 -147.418125
L 408.376738 -145.997119
L 409.868431 -144.384614
L 411.360119 -142.58032
L 412.851807 -140.608097
L 414.343495 -138.505748
L 415.835183 -136.316895
L 417.326871 -134.086989
L 418.818559 -131.859162
L 420.310247 -129.666909
L 421.801935 -127.523466
L 423.293628 -125.411257
L 424.785311 -123.28035
L 426.277004 -121.069423
L 427.768697 -118.751985
L 429.26038 -116.372734
L 430.752073 -114.029276
L 432.243756 -111.818346
L 433.735449 -109.800223
L 435.227132 -107.995895
L 436.718825 -106.399151
L 438.210508 -104.988837
L 439.702201 -103.736279
L 441.193894 -102.608748
L 442.685577 -101.57102
L 444.17727 -100.587372
L 445.668953 -99.626244
L 447.160646 -98.66779
L 448.652329 -97.710432
L 450.144022 -96.769721
L 451.635715 -95.869864
L 453.127398 -95.034588
L 454.619091 -94.282316
L 456.110774 -93.624977
L 457.602467 -93.068389
L 459.09415 -92.612651
L 460.585843 -92.252563
L 462.077526 -91.978375
L 463.569219 -91.777472
L 465.060912 -91.637451
L 466.552595 -91.549675
L 468.044288 -91.511824
L 469.535971 -91.527753
L 471.027664 -91.604725
L 472.519347 -91.749832
L 474.01104 -91.967377
L 475.502723 -92.257978
L 476.994416 -92.619065
L 478.486109 -93.046066
L 479.977792 -93.533776
L 481.469485 -94.077585
L 482.961167 -94.674248
L 484.452861 -95.322402
L 485.944543 -96.022582
L 487.436236 -96.777116
L 488.92793 -97.589778
L 490.419612 -98.465441
L 491.911305 -99.409747
L 493.402988 -100.428764
L 494.894681 -101.528727
L 496.386364 -102.71571
L 497.878057 -103.99529
L 499.36974 -105.37208
L 500.861433 -106.849255
L 502.353126 -108.427878
L 503.844809 -110.106156
L 505.336502 -111.878727
L 506.828185 -113.735824
L 508.319868 -115.662804
L 509.811571 -117.639742
L 511.303254 -119.641606
L 512.794937 -121.639372
L 514.28664 -123.602102
L 515.778323 -125.500546
L 517.270006 -127.312075
L 518.761689 -129.024783
L 520.253392 -130.638564
L 521.745075 -132.162133
L 523.236758 -133.608282
L 524.728461 -134.989722
L 526.220144 -136.316841
L 527.711827 -137.597212
L 529.20351 -138.835764
L 530.695213 -140.035342
L 532.186896 -141.197265
L 533.678579 -142.321807
L 535.170262 -143.408576
L 536.661965 -144.456858
L 538.153648 -145.465735
L 539.645331 -146.434402
L 541.137034 -147.362207
L 542.628717 -148.248721
L 544.1204 -149.093872
L 545.612083 -149.897916
L 547.103786 -150.661475
L 548.595469 -151.385433
L 550.087152 -152.07098
L 551.578855 -152.719572
L 553.070538 -153.332765
L 554.562221 -153.912296
L 556.053904 -154.459943
L 557.545607 -154.977501
L 559.03729 -155.466752
L 560.528973 -155.92944
L 562.020676 -156.36727
L 563.512359 -156.78181
L 565.004042 -157.174601
L 566.495724 -157.547051
L 567.987428 -157.900508
L 569.479111 -158.23619
L 570.970793 -158.555272
L 572.462476 -158.858797
L 573.95418 -159.147778
L 575.445862 -159.423109
L 576.937545 -159.685643
L 578.429249 -159.936169
L 579.920931 -160.17539
L 581.412614 -160.403985
L 582.904297 -160.622591
L 584.396 -160.831751
L 585.887683 -161.032022
L 587.379366 -161.223885
L 588.871069 -161.407808
L 590.362752 -161.584217
L 591.854435 -161.753507
L 593.346118 -161.916051
L 594.837821 -162.07221
L 596.329504 -162.222278
L 597.821187 -162.366587
L 599.31289 -162.505403
L 600.804573 -162.639018
L 602.296256 -162.767647
L 603.787939 -162.89155
L 605.279642 -163.010923
L 606.771325 -163.126024
L 608.263008 -163.236991
L 609.754711 -163.344039
L 611.246394 -163.447336
L 612.738077 -163.547035
L 614.22976 -163.643332
L 615.721463 -163.73633
L 617.213146 -163.826175
L 618.704829 -163.913022
L 620.196512 -163.996973
L 621.688215 -164.078163
L 623.179898 -164.156695
L 624.671581 -164.232679
L 626.163284 -164.30621
L 627.654967 -164.37739
L 629.14665 -164.446317
L 630.638333 -164.513077
L 632.130036 -164.577736
L 633.621719 -164.640396
L 633.621719 -188.104468
L 633.621719 -188.104468
L 632.130036 -187.891552
L 630.638333 -187.673229
L 629.14665 -187.449348
L 627.654967 -187.219752
L 626.163284 -186.984259
L 624.671581 -186.742671
L 623.179898 -186.494845
L 621.688215 -186.240555
L 620.196512 -185.979617
L 618.704829 -185.71184
L 617.213146 -185.436996
L 615.721463 -185.154879
L 614.22976 -184.865265
L 612.738077 -184.567931
L 611.246394 -184.262647
L 609.754711 -183.949146
L 608.263008 -183.627199
L 606.771325 -183.296548
L 605.279642 -182.956939
L 603.787939 -182.608086
L 602.296256 -182.249722
L 600.804573 -181.881569
L 599.31289 -181.503335
L 597.821187 -181.114714
L 596.329504 -180.715423
L 594.837821 -180.305155
L 593.346118 -179.883586
L 591.854435 -179.450397
L 590.362752 -179.005293
L 588.871069 -178.547942
L 587.379366 -178.077999
L 585.887683 -177.59518
L 584.396 -177.099109
L 582.904297 -176.58951
L 581.412614 -176.06605
L 579.920931 -175.528405
L 578.429249 -174.976286
L 576.937545 -174.409372
L 575.445862 -173.827401
L 573.95418 -173.230095
L 572.462476 -172.617183
L 570.970793 -171.98846
L 569.479111 -171.343711
L 567.987428 -170.682741
L 566.495724 -170.005383
L 565.004042 -169.311506
L 563.512359 -168.601
L 562.020676 -167.873782
L 560.528973 -167.129759
L 559.03729 -166.368888
L 557.545607 -165.591089
L 556.053904 -164.796239
L 554.562221 -163.984173
L 553.070538 -163.154642
L 551.578855 -162.307199
L 550.087152 -161.441251
L 548.595469 -160.555944
L 547.103786 -159.65006
L 545.612083 -158.721998
L 544.1204 -157.769746
L 542.628717 -156.790747
L 541.137034 -155.781932
L 539.645331 -154.739681
L 538.153648 -153.659936
L 536.661965 -152.538195
L 535.170262 -151.369643
L 533.678579 -150.149457
L 532.186896 -148.87294
L 530.695213 -147.53597
L 529.20351 -146.13545
L 527.711827 -144.670029
L 526.220144 -143.140757
L 524.728461 -141.552081
L 523.236758 -139.912751
L 521.745075 -138.236596
L 520.253392 -136.54215
L 518.761689 -134.850853
L 517.270006 -133.183165
L 515.778323 -131.553501
L 514.28664 -129.967081
L 512.794937 -128.42034
L 511.303254 -126.904398
L 509.811571 -125.40877
L 508.319868 -123.924222
L 506.828185 -122.444157
L 505.336502 -120.964883
L 503.844809 -119.485597
L 502.353126 -118.007956
L 500.861433 -116.535541
L 499.36974 -115.073399
L 497.878057 -113.627596
L 496.386364 -112.204744
L 494.894681 -110.811856
L 493.402988 -109.456018
L 491.911305 -108.144296
L 490.419612 -106.88363
L 488.92793 -105.68076
L 487.436236 -104.542097
L 485.944543 -103.473599
L 484.452861 -102.480541
L 482.961167 -101.567227
L 481.469485 -100.736803
L 479.977792 -99.991051
L 478.486109 -99.330478
L 476.994416 -98.754582
L 475.502723 -98.262564
L 474.01104 -97.854121
L 472.519347 -97.530409
L 471.027664 -97.294665
L 469.535971 -97.152179
L 468.044288 -97.108866
L 466.552595 -97.168502
L 465.060912 -97.329268
L 463.569219 -97.581754
L 462.077526 -97.909855
L 460.585843 -98.294558
L 459.09415 -98.718683
L 457.602467 -99.170531
L 456.110774 -99.64588
L 454.619091 -100.148514
L 453.127398 -100.690185
L 451.635715 -101.290503
L 450.144022 -101.976801
L 448.652329 -102.782526
L 447.160646 -103.742095
L 445.668953 -104.881615
L 444.17727 -106.210188
L 442.685577 -107.718807
L 441.193894 -109.386708
L 439.702201 -111.188791
L 438.210508 -113.099652
L 436.718825 -115.094809
L 435.227132 -117.151009
L 433.735449 -119.247579
L 432.243756 -121.371147
L 430.752073 -123.523672
L 429.26038 -125.730091
L 427.768697 -128.031952
L 426.277004 -130.453488
L 424.785311 -132.956672
L 423.293628 -135.437862
L 421.801935 -137.778279
L 420.310247 -139.896533
L 418.818559 -141.76707
L 417.326871 -143.410401
L 415.835183 -144.873876
L 414.343495 -146.214727
L 412.851807 -147.489303
L 411.360119 -148.747679
L 409.868431 -150.029695
L 408.376738 -151.357761
L 406.88505 -152.728051
L 405.393362 -154.11102
L 403.901674 -155.46593
L 402.409986 -156.757803
L 400.918298 -157.966172
L 399.426611 -159.085556
L 397.934923 -160.121853
L 396.44323 -161.087886
L 394.951542 -161.999261
L 393.459854 -162.871169
L 391.968166 -163.716203
L 390.476478 -164.543055
L 388.98479 -165.356333
L 387.493102 -166.157045
L 386.001414 -166.943486
L 384.509721 -167.712213
L 383.018033 -168.458805
L 381.526345 -169.178511
L 380.034657 -169.86653
L 378.542969 -170.518239
L 377.051281 -171.12923
L 375.559593 -171.695325
L 374.067902 -172.212628
L 372.576214 -172.677402
L 371.084526 -173.086138
L 369.592838 -173.435511
L 368.101148 -173.722458
L 366.60946 -173.94414
L 365.117772 -174.098128
L 363.626084 -174.18241
L 362.134393 -174.195616
L 360.642705 -174.137101
L 359.151017 -174.007197
L 357.65933 -173.807273
L 356.16764 -173.539872
L 354.675951 -173.208656
L 353.184263 -172.818196
L 351.692574 -172.373473
L 350.200886 -171.879184
L 348.709197 -171.338738
L 347.217509 -170.753105
L 345.725819 -170.119685
L 344.234131 -169.431309
L 342.742442 -168.675698
L 341.250754 -167.835432
L 339.759065 -166.888654
L 338.267377 -165.810453
L 336.775688 -164.574975
L 335.283999 -163.157984
L 333.792311 -161.539612
L 332.300622 -159.70691
L 330.808934 -157.655954
L 329.317245 -155.392918
L 327.825557 -152.934205
L 326.333868 -150.305366
L 324.842179 -147.539067
L 323.350491 -144.672307
L 321.858802 -141.743466
L 320.367114 -138.789431
L 318.875424 -135.843512
L 317.383736 -132.934011
L 315.892047 -130.083796
L 314.400358 -127.310527
L 312.90867 -124.627327
L 311.416982 -122.04376
L 309.925294 -119.566876
L 308.433604 -117.202292
L 306.941916 -114.955193
L 305.450228 -112.831299
L 303.95854 -110.837597
L 302.466849 -108.982908
L 300.975161 -107.278045
L 299.483473 -105.735488
L 297.991785 -104.368452
L 296.500095 -103.18913
L 295.008407 -102.206234
L 293.516719 -101.422162
L 292.025031 -100.830705
L 290.533343 -100.416605
L 289.041655 -100.157548
L 287.549967 -100.027953
L 286.058274 -100.003066
L 284.566586 -100.061901
L 283.074898 -100.188855
L 281.58321 -100.374296
L 280.091522 -100.614567
L 278.599834 -100.911891
L 277.108146 -101.274283
L 275.616458 -101.715277
L 274.124765 -102.253184
L 272.633077 -102.90914
L 271.141389 -103.70335
L 269.649701 -104.649638
L 268.158013 -105.750605
L 266.666325 -106.996619
L 265.174637 -108.369478
L 263.682949 -109.847844
L 262.191256 -111.411427
L 260.699568 -113.042842
L 259.20788 -114.728014
L 257.716192 -116.456135
L 256.224504 -118.219784
L 254.732816 -120.015464
L 253.241128 -121.844539
L 251.74944 -123.714008
L 250.257752 -125.636543
L 248.766059 -127.628433
L 247.274376 -129.704136
L 245.782683 -131.868291
L 244.29099 -134.108476
L 242.799307 -136.39416
L 241.307614 -138.682672
L 239.815931 -140.928053
L 238.324238 -143.088623
L 236.832555 -145.131128
L 235.340862 -147.03241
L 233.84918 -148.779308
L 232.357486 -150.367985
L 230.865793 -151.802551
L 229.374111 -153.093722
L 227.882417 -154.257488
L 226.390735 -155.314314
L 224.899042 -156.289594
L 223.407359 -157.214507
L 221.915666 -158.123744
L 220.423973 -159.043206
L 218.93229 -159.971947
L 217.440597 -160.881614
L 215.948914 -161.736261
L 214.457221 -162.507689
L 212.965538 -163.178124
L 211.473845 -163.737985
L 209.982162 -164.183343
L 208.490469 -164.514555
L 206.998776 -164.735557
L 205.507093 -164.854123
L 204.0154 -164.883135
L 202.523717 -164.843269
L 201.032024 -164.766027
L 199.540341 -164.691866
L 198.048648 -164.654121
L 196.556965 -164.652532
L 195.065272 -164.645524
L 193.573579 -164.572218
L 192.081896 -164.376628
L 190.590203 -164.017993
L 189.09852 -163.471723
L 187.606827 -162.727028
L 186.115144 -161.783782
L 184.623451 -160.64936
L 183.131758 -159.335963
L 181.640075 -157.858448
L 180.148382 -156.233129
L 178.656699 -154.47824
L 177.165006 -152.616569
L 175.673323 -150.680634
L 174.18163 -148.717736
L 172.689947 -146.788719
L 171.198254 -144.950899
L 169.706561 -143.231631
L 168.214878 -141.620768
L 166.723185 -140.090007
L 165.231502 -138.613474
L 163.739819 -137.175363
L 162.248116 -135.769189
L 160.756433 -134.394703
L 159.26475 -133.054632
L 157.773047 -131.752476
L 156.281364 -130.491239
L 154.789681 -129.272683
L 153.297999 -128.097331
L 151.806295 -126.964636
L 150.314612 -125.873309
L 148.82293 -124.821525
L 147.331226 -123.807249
L 145.839543 -122.828444
L 144.347861 -121.883102
L 142.856178 -120.969367
L 141.364474 -120.085553
L 139.872792 -119.230197
L 138.381109 -118.401955
L 136.889426 -117.599658
L 135.397723 -116.822256
L 133.90604 -116.068837
L 132.414357 -115.33855
L 130.922654 -114.630632
L 129.430971 -113.944385
L 127.939288 -113.279133
L 126.447605 -112.634266
L 124.955902 -112.009182
L 123.464219 -111.403317
L 121.972536 -110.81611
L 120.480833 -110.247025
L 118.98915 -109.695552
L 117.497467 -109.161162
L 116.005784 -108.643361
L 114.514081 -108.14165
L 113.022398 -107.655562
L 111.530715 -107.184595
L 110.039012 -106.728307
L 108.547329 -106.286228
L 107.055646 -105.857923
L 105.563963 -105.442955
L 104.07226 -105.040887
L 102.580577 -104.651299
L 101.088894 -104.273799
L 99.597211 -103.907992
L 98.105508 -103.55347
L 96.613825 -103.209882
L 95.122142 -102.876862
L 93.630439 -102.554039
L 92.138756 -102.241089
L 90.647073 -101.937682
L 89.15539 -101.643485
L 87.663687 -101.358181
L 86.172004 -101.081482
L 84.680321 -100.813098
L 83.188618 -100.552734
L 81.696935 -100.300136
L 80.205252 -100.055026
L 78.713569 -99.817161
L 77.221866 -99.586292
L 75.730183 -99.362181
L 74.2385 -99.144616
L 72.746797 -98.933346
L 71.255114 -98.728195
L 69.763431 -98.528939
L 68.271749 -98.335384
L 66.780045 -98.147341
L 65.288362 -97.964634
L 63.79668 -97.787078
L 62.304976 -97.614503
L 60.813293 -97.446753
L 59.321611 -97.283668
L 57.829928 -97.125095
L 56.338224 -96.970888
L 54.846542 -96.820898
L 53.354859 -96.675008
L 51.863176 -96.533074
L 50.371473 -96.394967
L 48.87979 -96.260578
L 47.388107 -96.129777
L 45.896404 -96.002454
L 44.404721 -95.878502
L 42.913038 -95.757823
L 41.421355 -95.640306
L 39.929652 -95.525858
L 38.437969 -95.414372
z
"/>
    </defs>
    <g clip-path="url(#p70fb7e3bfa)">
     <use xlink:href="#m5247bf7fa6" x="0" y="248.222203" style="fill: #ff0d57; fill-opacity: 0.22; stroke: #ff0d57; stroke-opacity: 0.9; stroke-width: 1.2"/>
    </g>
   </g>
   <g id="matplotlib.axis_1">
    <g id="xtick_1">
     <g id="line2d_1">
      <defs>
       <path id="m36e3915972" d="M 0 0
L 0 3.5
" style="stroke: #9aa4b0; stroke-width: 0.8"/>
      </defs>
      <g>
       <use xlink:href="#m36e3915972" x="80.951094" y="209.95611" style="fill: #9aa4b0; stroke: #9aa4b0; stroke-width: 0.8"/>
      </g>
     </g>
     <g id="text_1">
      <!-- −6 -->
      <g style="fill: #9aa4b0" transform="translate(75.96125 224.315485) scale(0.1 -0.1)">
       <defs>
        <path id="FiraSans-Thin-2212" d="M 499 2182
L 2605 2182
L 2605 2048
L 499 2048
L 499 2182
z
" transform="scale(0.015625)"/>
        <path id="FiraSans-Thin-36" d="M 1811 2733
Q 2291 2733 2588 2397
Q 2886 2061 2886 1421
Q 2886 730 2579 333
Q 2272 -64 1754 -64
Q 1101 -64 793 464
Q 486 992 486 1843
Q 486 2598 659 3152
Q 832 3706 1158 4006
Q 1485 4307 1939 4307
Q 2150 4307 2316 4246
Q 2483 4186 2637 4070
L 2554 3962
Q 2419 4070 2268 4121
Q 2118 4173 1933 4173
Q 1530 4173 1242 3891
Q 954 3610 800 3114
Q 646 2618 634 1984
Q 1101 2733 1811 2733
z
M 1754 70
Q 2227 70 2486 438
Q 2746 806 2746 1414
Q 2746 1997 2490 2297
Q 2234 2598 1805 2598
Q 1440 2598 1142 2380
Q 845 2163 634 1779
Q 646 992 915 531
Q 1184 70 1754 70
z
" transform="scale(0.015625)"/>
       </defs>
       <use xlink:href="#FiraSans-Thin-2212"/>
       <use xlink:href="#FiraSans-Thin-36" transform="translate(48.499985 0)"/>
      </g>
     </g>
    </g>
    <g id="xtick_2">
     <g id="line2d_2">
      <g>
       <use xlink:href="#m36e3915972" x="165.977344" y="209.95611" style="fill: #9aa4b0; stroke: #9aa4b0; stroke-width: 0.8"/>
      </g>
     </g>
     <g id="text_2">
      <!-- −4 -->
      <g style="fill: #9aa4b0" transform="translate(161.0375 224.315485) scale(0.1 -0.1)">
       <defs>
        <path id="FiraSans-Thin-34" d="M 2963 1197
L 2368 1197
L 2368 0
L 2227 0
L 2227 1197
L 326 1197
L 326 1312
L 1645 4307
L 1766 4256
L 480 1325
L 2227 1325
L 2246 2675
L 2368 2675
L 2368 1325
L 2963 1325
L 2963 1197
z
" transform="scale(0.015625)"/>
       </defs>
       <use xlink:href="#FiraSans-Thin-2212"/>
       <use xlink:href="#FiraSans-Thin-34" transform="translate(48.499985 0)"/>
      </g>
     </g>
    </g>
    <g id="xtick_3">
     <g id="line2d_3">
      <g>
       <use xlink:href="#m36e3915972" x="251.003594" y="209.95611" style="fill: #9aa4b0; stroke: #9aa4b0; stroke-width: 0.8"/>
      </g>
     </g>
     <g id="text_3">
      <!-- −2 -->
      <g style="fill: #9aa4b0" transform="translate(246.258281 224.315485) scale(0.1 -0.1)">
       <defs>
        <path id="FiraSans-Thin-32" d="M 1414 4307
Q 1914 4307 2205 4006
Q 2496 3706 2496 3238
Q 2496 2803 2323 2435
Q 2150 2067 1779 1619
Q 1408 1171 480 141
L 2592 141
L 2566 0
L 301 0
L 301 134
Q 1235 1158 1625 1635
Q 2016 2112 2182 2467
Q 2349 2822 2349 3226
Q 2349 3654 2096 3913
Q 1843 4173 1414 4173
Q 1088 4173 841 4041
Q 595 3910 384 3661
L 275 3731
Q 518 4026 790 4166
Q 1062 4307 1414 4307
z
" transform="scale(0.015625)"/>
       </defs>
       <use xlink:href="#FiraSans-Thin-2212"/>
       <use xlink:href="#FiraSans-Thin-32" transform="translate(48.499985 0)"/>
      </g>
     </g>
    </g>
    <g id="xtick_4">
     <g id="line2d_4">
      <g>
       <use xlink:href="#m36e3915972" x="336.029844" y="209.95611" style="fill: #9aa4b0; stroke: #9aa4b0; stroke-width: 0.8"/>
      </g>
     </g>
     <g id="text_4">
      <!-- 0 -->
      <g style="fill: #9aa4b0" transform="translate(333.325156 224.315485) scale(0.1 -0.1)">
       <defs>
        <path id="FiraSans-Thin-30" d="M 1734 4307
Q 2342 4307 2659 3756
Q 2976 3206 2976 2112
Q 2976 1030 2659 483
Q 2342 -64 1734 -64
Q 1120 -64 803 489
Q 486 1043 486 2125
Q 486 3206 803 3756
Q 1120 4307 1734 4307
z
M 1734 4173
Q 1197 4173 915 3661
Q 634 3149 634 2125
Q 634 1101 912 585
Q 1190 70 1734 70
Q 2278 70 2553 579
Q 2829 1088 2829 2112
Q 2829 4173 1734 4173
z
" transform="scale(0.015625)"/>
       </defs>
       <use xlink:href="#FiraSans-Thin-30"/>
      </g>
     </g>
    </g>
    <g id="xtick_5">
     <g id="line2d_5">
      <g>
       <use xlink:href="#m36e3915972" x="421.056094" y="209.95611" style="fill: #9aa4b0; stroke: #9aa4b0; stroke-width: 0.8"/>
      </g>
     </g>
     <g id="text_5">
      <!-- 2 -->
      <g style="fill: #9aa4b0" transform="translate(418.735781 224.315485) scale(0.1 -0.1)">
       <use xlink:href="#FiraSans-Thin-32"/>
      </g>
     </g>
    </g>
    <g id="xtick_6">
     <g id="line2d_6">
      <g>
       <use xlink:href="#m36e3915972" x="506.082344" y="209.95611" style="fill: #9aa4b0; stroke: #9aa4b0; stroke-width: 0.8"/>
      </g>
     </g>
     <g id="text_6">
      <!-- 4 -->
      <g style="fill: #9aa4b0" transform="translate(503.5675 224.315485) scale(0.1 -0.1)">
       <use xlink:href="#FiraSans-Thin-34"/>
      </g>
     </g>
    </g>
    <g id="xtick_7">
     <g id="line2d_7">
      <g>
       <use xlink:href="#m36e3915972" x="591.108594" y="209.95611" style="fill: #9aa4b0; stroke: #9aa4b0; stroke-width: 0.8"/>
      </g>
     </g>
     <g id="text_7">
      <!-- 6 -->
      <g style="fill: #9aa4b0" transform="translate(588.54375 224.315485) scale(0.1 -0.1)">
       <use xlink:href="#FiraSans-Thin-36"/>
      </g>
     </g>
    </g>
    <g id="text_8">
     <!-- x -->
     <g style="fill: #1a1a1a" transform="translate(333.252344 238.602203) scale(0.11 -0.11)">
      <defs>
       <path id="FiraSans-SemiBold-78" d="M 3277 0
L 2234 0
L 1587 1312
L 954 0
L -45 0
L 1069 1786
L 70 3392
L 1094 3392
L 1626 2266
L 2144 3392
L 3117 3392
L 2163 1818
L 3277 0
z
" transform="scale(0.015625)"/>
      </defs>
      <use xlink:href="#FiraSans-SemiBold-78"/>
     </g>
    </g>
   </g>
   <g id="matplotlib.axis_2">
    <g id="ytick_1">
     <g id="line2d_8">
      <defs>
       <path id="m8bd5bb6ecc" d="M 0 0
L -3.5 0
" style="stroke: #9aa4b0; stroke-width: 0.8"/>
      </defs>
      <g>
       <use xlink:href="#m8bd5bb6ecc" x="38.437969" y="189.340449" style="fill: #9aa4b0; stroke: #9aa4b0; stroke-width: 0.8"/>
      </g>
     </g>
     <g id="text_9">
      <!-- −2 -->
      <g style="fill: #9aa4b0" transform="translate(21.947344 193.020136) scale(0.1 -0.1)">
       <use xlink:href="#FiraSans-Thin-2212"/>
       <use xlink:href="#FiraSans-Thin-32" transform="translate(48.499985 0)"/>
      </g>
     </g>
    </g>
    <g id="ytick_2">
     <g id="line2d_9">
      <g>
       <use xlink:href="#m8bd5bb6ecc" x="38.437969" y="154.981014" style="fill: #9aa4b0; stroke: #9aa4b0; stroke-width: 0.8"/>
      </g>
     </g>
     <g id="text_10">
      <!-- −1 -->
      <g style="fill: #9aa4b0" transform="translate(22.658281 158.660702) scale(0.1 -0.1)">
       <defs>
        <path id="FiraSans-Thin-31" d="M 1664 0
L 1523 0
L 1523 4064
L 410 3360
L 339 3469
L 1549 4230
L 1664 4230
L 1664 0
z
" transform="scale(0.015625)"/>
       </defs>
       <use xlink:href="#FiraSans-Thin-2212"/>
       <use xlink:href="#FiraSans-Thin-31" transform="translate(48.499985 0)"/>
      </g>
     </g>
    </g>
    <g id="ytick_3">
     <g id="line2d_10">
      <g>
       <use xlink:href="#m8bd5bb6ecc" x="38.437969" y="120.62158" style="fill: #9aa4b0; stroke: #9aa4b0; stroke-width: 0.8"/>
      </g>
     </g>
     <g id="text_11">
      <!-- 0 -->
      <g style="fill: #9aa4b0" transform="translate(26.028594 124.301267) scale(0.1 -0.1)">
       <use xlink:href="#FiraSans-Thin-30"/>
      </g>
     </g>
    </g>
    <g id="ytick_4">
     <g id="line2d_11">
      <g>
       <use xlink:href="#m8bd5bb6ecc" x="38.437969" y="86.262145" style="fill: #9aa4b0; stroke: #9aa4b0; stroke-width: 0.8"/>
      </g>
     </g>
     <g id="text_12">
      <!-- 1 -->
      <g style="fill: #9aa4b0" transform="translate(27.508281 89.941832) scale(0.1 -0.1)">
       <use xlink:href="#FiraSans-Thin-31"/>
      </g>
     </g>
    </g>
    <g id="ytick_5">
     <g id="line2d_12">
      <g>
       <use xlink:href="#m8bd5bb6ecc" x="38.437969" y="51.90271" style="fill: #9aa4b0; stroke: #9aa4b0; stroke-width: 0.8"/>
      </g>
     </g>
     <g id="text_13">
      <!-- 2 -->
      <g style="fill: #9aa4b0" transform="translate(26.797344 55.582398) scale(0.1 -0.1)">
       <use xlink:href="#FiraSans-Thin-32"/>
      </g>
     </g>
    </g>
    <g id="text_14">
     <!-- y -->
     <g style="fill: #1a1a1a" transform="translate(15.527344 123.437751) rotate(-90) scale(0.11 -0.11)">
      <defs>
       <path id="FiraSans-SemiBold-79" d="M 2195 -6
Q 1990 -653 1552 -1005
Q 1114 -1357 365 -1408
L 269 -755
Q 755 -691 982 -524
Q 1210 -358 1357 0
L 1043 0
L -13 3392
L 954 3392
L 1632 589
L 2349 3392
L 3290 3392
L 2195 -6
z
" transform="scale(0.015625)"/>
      </defs>
      <use xlink:href="#FiraSans-SemiBold-79"/>
     </g>
    </g>
   </g>
   <g id="line2d_13">
    <path d="M 38.437969 90.39573
L 41.421355 92.279783
L 44.404721 94.477563
L 47.388107 96.964782
L 50.371473 99.713861
L 53.354859 102.694388
L 57.829928 107.52639
L 62.304976 112.684156
L 71.255114 123.458912
L 77.221866 130.551997
L 81.696935 135.600577
L 86.172004 140.276492
L 89.15539 143.128823
L 92.138756 145.73197
L 95.122142 148.057146
L 98.105508 150.078608
L 101.088894 151.773995
L 104.07226 153.124508
L 107.055646 154.11522
L 110.039012 154.735144
L 113.022398 154.977432
L 116.005784 154.839396
L 118.98915 154.32257
L 121.972536 153.43266
L 124.955902 152.179539
L 127.939288 150.577056
L 130.922654 148.642977
L 133.90604 146.398688
L 136.889426 143.869045
L 139.872792 141.082064
L 144.347861 136.487214
L 148.82293 131.497642
L 154.789681 124.44648
L 166.723185 110.156267
L 171.198254 105.140483
L 175.673323 100.509869
L 178.656699 97.694138
L 181.640075 95.132225
L 184.623451 92.852471
L 187.606827 90.880125
L 190.590203 89.237021
L 193.573579 87.941347
L 196.556965 87.007447
L 199.540341 86.445661
L 202.523717 86.262204
L 205.507093 86.45911
L 208.490469 87.034197
L 211.473845 87.981102
L 214.457221 89.289341
L 217.440597 90.944421
L 220.423973 92.928039
L 223.407359 95.218234
L 226.390735 97.789637
L 229.374111 100.613796
L 233.84918 105.254875
L 238.324238 110.278248
L 244.29099 117.353807
L 256.224504 131.618998
L 260.699568 136.600639
L 265.174637 141.184745
L 268.158013 143.963142
L 271.141389 146.483141
L 274.124765 148.716854
L 277.108146 150.639551
L 280.091522 152.229942
L 283.074898 153.470427
L 286.058274 154.34727
L 289.041655 154.850769
L 292.025031 154.975345
L 295.008407 154.719622
L 297.991785 154.086431
L 300.975161 153.082781
L 303.95854 151.719779
L 306.941916 150.01252
L 309.925294 147.979896
L 312.90867 145.644416
L 315.892047 143.031931
L 318.875424 140.171361
L 323.350491 135.485279
L 327.825557 130.429406
L 333.792311 123.331349
L 344.234131 110.813753
L 348.709197 105.75788
L 353.184263 101.071798
L 356.16764 98.211228
L 359.151017 95.598743
L 362.134393 93.263263
L 365.117772 91.230639
L 368.101148 89.52338
L 371.084526 88.160378
L 374.067902 87.156728
L 377.051281 86.523537
L 380.034657 86.267814
L 383.018033 86.39239
L 386.001414 86.895889
L 388.98479 87.772732
L 391.968166 89.013217
L 394.951542 90.603609
L 397.934923 92.526305
L 400.918298 94.760019
L 403.901674 97.280017
L 406.88505 100.058414
L 411.360119 104.64252
L 415.835183 109.624162
L 421.801935 116.669495
L 433.735449 130.964911
L 438.210508 135.988284
L 442.685577 140.629363
L 445.668953 143.453522
L 448.652329 146.024925
L 451.635715 148.31512
L 454.619091 150.298738
L 457.602467 151.953818
L 460.585843 153.262057
L 463.569219 154.208962
L 466.552595 154.78405
L 469.535971 154.980955
L 472.519347 154.797499
L 475.502723 154.235713
L 478.486109 153.301812
L 481.469485 152.006138
L 484.452861 150.363034
L 487.436236 148.390688
L 490.419612 146.110934
L 493.402988 143.549022
L 496.386364 140.73329
L 500.861433 136.102676
L 505.336502 131.086892
L 511.303254 124.016739
L 523.236758 109.745517
L 527.711827 104.755945
L 532.186896 100.161096
L 535.170262 97.374114
L 538.153648 94.844471
L 541.137034 92.600182
L 544.1204 90.666103
L 547.103786 89.06362
L 550.087152 87.810499
L 553.070538 86.92059
L 556.053904 86.403763
L 559.03729 86.265727
L 562.020676 86.508015
L 565.004042 87.12794
L 567.987428 88.118651
L 570.970793 89.469164
L 573.95418 91.164551
L 576.937545 93.186013
L 579.920931 95.51119
L 582.904297 98.114336
L 585.887683 100.966667
L 590.362752 105.642583
L 594.837821 110.691162
L 600.804573 117.784248
L 611.246394 130.306669
L 615.721463 135.369789
L 620.196512 140.065959
L 623.179898 142.934736
L 626.163284 145.556527
L 629.14665 147.902263
L 632.130036 149.946018
L 633.621719 150.847429
L 633.621719 150.847429
" clip-path="url(#p70fb7e3bfa)" style="fill: none; stroke-dasharray: 5.18,2.24; stroke-dashoffset: 0; stroke: #9aa4b0; stroke-opacity: 0.8; stroke-width: 1.4"/>
   </g>
   <g id="line2d_14">
    <path d="M 38.437969 167.539723
L 48.87979 166.354486
L 59.321611 164.931048
L 68.271749 163.478509
L 75.730183 162.070874
L 83.188618 160.451657
L 90.647073 158.585184
L 96.613825 156.88626
L 102.580577 154.978284
L 108.547329 152.833949
L 114.514081 150.422676
L 120.480833 147.710367
L 124.955902 145.455928
L 129.430971 142.993384
L 133.90604 140.303632
L 138.381109 137.365568
L 142.856178 134.155163
L 147.331226 130.643828
L 151.806295 126.795877
L 156.281364 122.566465
L 160.756433 117.905484
L 165.231502 112.785795
L 171.198254 105.41065
L 175.673323 99.890463
L 178.656699 96.483393
L 181.640075 93.447917
L 184.623451 90.874997
L 187.606827 88.816048
L 189.09852 87.985559
L 190.590203 87.286791
L 192.081896 86.716211
L 195.065272 85.933591
L 198.048648 85.564234
L 201.032024 85.514546
L 204.0154 85.700224
L 206.998776 86.072834
L 209.982162 86.631044
L 212.965538 87.415192
L 215.948914 88.490175
L 218.93229 89.925202
L 221.915666 91.777508
L 224.899042 94.08075
L 227.882417 96.837502
L 230.865793 100.018607
L 233.84918 103.571716
L 236.832555 107.432071
L 241.307614 113.630893
L 250.257752 126.255702
L 254.732816 132.025984
L 257.716192 135.537353
L 260.699568 138.749861
L 263.682949 141.648003
L 266.666325 144.222656
L 269.649701 146.4692
L 272.633077 148.384968
L 275.616458 149.967673
L 278.599834 151.215836
L 281.58321 152.129851
L 284.566586 152.711576
L 287.549967 152.96291
L 290.533343 152.884493
L 293.516719 152.475589
L 296.500095 151.734508
L 299.483473 150.658114
L 302.466849 149.239767
L 305.450228 147.466592
L 308.433604 145.318343
L 311.416982 142.769674
L 314.400358 139.796265
L 317.383736 136.383882
L 320.367114 132.538844
L 323.350491 128.296727
L 327.825557 121.346351
L 338.267377 104.463046
L 341.250754 100.132901
L 344.234131 96.272011
L 347.217509 92.951771
L 350.200886 90.190955
L 353.184263 87.967399
L 356.16764 86.234845
L 359.151017 84.937498
L 362.134393 84.019715
L 365.117772 83.431154
L 368.101148 83.12886
L 371.084526 83.07764
L 374.067902 83.249621
L 377.051281 83.623599
L 380.034657 84.184451
L 383.018033 84.922736
L 386.001414 85.834731
L 388.98479 86.922713
L 391.968166 88.195837
L 394.951542 89.671091
L 397.934923 91.373855
L 400.918298 93.335952
L 403.901674 95.588429
L 406.88505 98.149115
L 409.868431 101.015049
L 412.851807 104.173503
L 415.835183 107.626817
L 418.818559 111.409087
L 421.801935 115.571331
L 424.785311 120.103693
L 430.752073 129.445729
L 433.735449 133.698302
L 436.718825 137.475223
L 439.702201 140.759668
L 442.685577 143.57729
L 445.668953 145.968274
L 448.652329 147.975724
L 451.635715 149.64202
L 454.619091 151.006789
L 457.602467 152.102744
L 460.585843 152.948642
L 463.569219 153.54259
L 466.552595 153.863115
L 469.535971 153.882237
L 472.519347 153.582083
L 475.502723 152.961933
L 478.486109 152.033931
L 481.469485 150.815009
L 484.452861 149.320732
L 487.436236 147.562597
L 490.419612 145.547668
L 493.402988 143.279812
L 496.386364 140.761976
L 499.36974 137.999464
L 502.353126 135.004286
L 506.828185 130.132213
L 512.794937 123.192347
L 518.761689 116.284385
L 523.236758 111.461687
L 527.711827 107.088583
L 530.695213 104.436548
L 535.170262 100.833094
L 539.645331 97.635162
L 544.1204 94.790394
L 548.595469 92.251515
L 553.070538 89.978499
L 557.545607 87.937908
L 562.020676 86.101677
L 567.987428 83.930579
L 573.95418 82.033267
L 579.920931 80.370306
L 585.887683 78.908604
L 593.346118 77.322385
L 600.804573 75.96191
L 609.754711 74.575611
L 618.704829 73.409772
L 629.14665 72.274371
L 633.621719 71.849771
L 633.621719 71.849771
" clip-path="url(#p70fb7e3bfa)" style="fill: none; stroke: #1e88e5; stroke-width: 2.2; stroke-linecap: square"/>
   </g>
   <g id="patch_3">
    <path d="M 38.437969 209.95611
L 38.437969 31.28705
" style="fill: none; stroke: #9aa4b0; stroke-width: 0.8; stroke-linejoin: miter; stroke-linecap: square"/>
   </g>
   <g id="patch_4">
    <path d="M 38.437969 209.95611
L 633.621719 209.95611
" style="fill: none; stroke: #9aa4b0; stroke-width: 0.8; stroke-linejoin: miter; stroke-linecap: square"/>
   </g>
   <g id="PathCollection_1">
    <defs>
     <path id="med203a786a" d="M 0 2
C 0.530406 2 1.03916 1.789267 1.414214 1.414214
C 1.789267 1.03916 2 0.530406 2 0
C 2 -0.530406 1.789267 -1.03916 1.414214 -1.414214
C 1.03916 -1.789267 0.530406 -2 0 -2
C -0.530406 -2 -1.03916 -1.789267 -1.414214 -1.414214
C -1.789267 -1.03916 -2 -0.530406 -2 0
C -2 0.530406 -1.789267 1.03916 -1.414214 1.414214
C -1.03916 1.789267 -0.530406 2 0 2
z
" style="stroke: #708090; stroke-opacity: 0.8"/>
    </defs>
    <g clip-path="url(#p70fb7e3bfa)">
     <use xlink:href="#med203a786a" x="239.498089" y="111.441537" style="fill: #708090; fill-opacity: 0.8; stroke: #708090; stroke-opacity: 0.8"/>
     <use xlink:href="#med203a786a" x="184.863946" y="84.425646" style="fill: #708090; fill-opacity: 0.8; stroke: #708090; stroke-opacity: 0.8"/>
     <use xlink:href="#med203a786a" x="150.817476" y="128.401664" style="fill: #708090; fill-opacity: 0.8; stroke: #708090; stroke-opacity: 0.8"/>
     <use xlink:href="#med203a786a" x="147.180019" y="135.978365" style="fill: #708090; fill-opacity: 0.8; stroke: #708090; stroke-opacity: 0.8"/>
     <use xlink:href="#med203a786a" x="265.732087" y="143.278891" style="fill: #708090; fill-opacity: 0.8; stroke: #708090; stroke-opacity: 0.8"/>
     <use xlink:href="#med203a786a" x="280.535105" y="156.935846" style="fill: #708090; fill-opacity: 0.8; stroke: #708090; stroke-opacity: 0.8"/>
     <use xlink:href="#med203a786a" x="234.98572" y="111.767307" style="fill: #708090; fill-opacity: 0.8; stroke: #708090; stroke-opacity: 0.8"/>
     <use xlink:href="#med203a786a" x="253.266904" y="125.569153" style="fill: #708090; fill-opacity: 0.8; stroke: #708090; stroke-opacity: 0.8"/>
     <use xlink:href="#med203a786a" x="225.609975" y="94.694846" style="fill: #708090; fill-opacity: 0.8; stroke: #708090; stroke-opacity: 0.8"/>
     <use xlink:href="#med203a786a" x="283.855759" y="148.397893" style="fill: #708090; fill-opacity: 0.8; stroke: #708090; stroke-opacity: 0.8"/>
     <use xlink:href="#med203a786a" x="266.116477" y="145.199314" style="fill: #708090; fill-opacity: 0.8; stroke: #708090; stroke-opacity: 0.8"/>
     <use xlink:href="#med203a786a" x="145.128265" y="128.677693" style="fill: #708090; fill-opacity: 0.8; stroke: #708090; stroke-opacity: 0.8"/>
     <use xlink:href="#med203a786a" x="272.299053" y="148.570268" style="fill: #708090; fill-opacity: 0.8; stroke: #708090; stroke-opacity: 0.8"/>
     <use xlink:href="#med203a786a" x="149.718174" y="123.971401" style="fill: #708090; fill-opacity: 0.8; stroke: #708090; stroke-opacity: 0.8"/>
     <use xlink:href="#med203a786a" x="253.290546" y="129.980817" style="fill: #708090; fill-opacity: 0.8; stroke: #708090; stroke-opacity: 0.8"/>
     <use xlink:href="#med203a786a" x="170.857627" y="108.542751" style="fill: #708090; fill-opacity: 0.8; stroke: #708090; stroke-opacity: 0.8"/>
     <use xlink:href="#med203a786a" x="273.1583" y="146.996275" style="fill: #708090; fill-opacity: 0.8; stroke: #708090; stroke-opacity: 0.8"/>
     <use xlink:href="#med203a786a" x="225.288007" y="92.55535" style="fill: #708090; fill-opacity: 0.8; stroke: #708090; stroke-opacity: 0.8"/>
     <use xlink:href="#med203a786a" x="189.316696" y="89.233023" style="fill: #708090; fill-opacity: 0.8; stroke: #708090; stroke-opacity: 0.8"/>
     <use xlink:href="#med203a786a" x="207.614918" y="89.240724" style="fill: #708090; fill-opacity: 0.8; stroke: #708090; stroke-opacity: 0.8"/>
     <use xlink:href="#med203a786a" x="148.934627" y="136.89915" style="fill: #708090; fill-opacity: 0.8; stroke: #708090; stroke-opacity: 0.8"/>
     <use xlink:href="#med203a786a" x="163.213623" y="120.057236" style="fill: #708090; fill-opacity: 0.8; stroke: #708090; stroke-opacity: 0.8"/>
     <use xlink:href="#med203a786a" x="244.506966" y="115.541915" style="fill: #708090; fill-opacity: 0.8; stroke: #708090; stroke-opacity: 0.8"/>
     <use xlink:href="#med203a786a" x="241.019947" y="109.35603" style="fill: #708090; fill-opacity: 0.8; stroke: #708090; stroke-opacity: 0.8"/>
     <use xlink:href="#med203a786a" x="236.287588" y="108.629858" style="fill: #708090; fill-opacity: 0.8; stroke: #708090; stroke-opacity: 0.8"/>
     <use xlink:href="#med203a786a" x="201.810442" y="90.701222" style="fill: #708090; fill-opacity: 0.8; stroke: #708090; stroke-opacity: 0.8"/>
     <use xlink:href="#med203a786a" x="293.101567" y="151.327199" style="fill: #708090; fill-opacity: 0.8; stroke: #708090; stroke-opacity: 0.8"/>
     <use xlink:href="#med203a786a" x="290.665095" y="160.244975" style="fill: #708090; fill-opacity: 0.8; stroke: #708090; stroke-opacity: 0.8"/>
     <use xlink:href="#med203a786a" x="246.726641" y="123.241703" style="fill: #708090; fill-opacity: 0.8; stroke: #708090; stroke-opacity: 0.8"/>
     <use xlink:href="#med203a786a" x="241.506481" y="111.454034" style="fill: #708090; fill-opacity: 0.8; stroke: #708090; stroke-opacity: 0.8"/>
     <use xlink:href="#med203a786a" x="247.158857" y="130.103233" style="fill: #708090; fill-opacity: 0.8; stroke: #708090; stroke-opacity: 0.8"/>
     <use xlink:href="#med203a786a" x="202.590705" y="84.669401" style="fill: #708090; fill-opacity: 0.8; stroke: #708090; stroke-opacity: 0.8"/>
     <use xlink:href="#med203a786a" x="164.822599" y="114.770943" style="fill: #708090; fill-opacity: 0.8; stroke: #708090; stroke-opacity: 0.8"/>
     <use xlink:href="#med203a786a" x="252.075315" y="126.30229" style="fill: #708090; fill-opacity: 0.8; stroke: #708090; stroke-opacity: 0.8"/>
     <use xlink:href="#med203a786a" x="222.891369" y="95.113396" style="fill: #708090; fill-opacity: 0.8; stroke: #708090; stroke-opacity: 0.8"/>
     <use xlink:href="#med203a786a" x="190.883516" y="88.260631" style="fill: #708090; fill-opacity: 0.8; stroke: #708090; stroke-opacity: 0.8"/>
     <use xlink:href="#med203a786a" x="217.011107" y="87.823274" style="fill: #708090; fill-opacity: 0.8; stroke: #708090; stroke-opacity: 0.8"/>
     <use xlink:href="#med203a786a" x="277.072959" y="153.745633" style="fill: #708090; fill-opacity: 0.8; stroke: #708090; stroke-opacity: 0.8"/>
     <use xlink:href="#med203a786a" x="283.702661" y="147.826631" style="fill: #708090; fill-opacity: 0.8; stroke: #708090; stroke-opacity: 0.8"/>
     <use xlink:href="#med203a786a" x="197.959249" y="83.702786" style="fill: #708090; fill-opacity: 0.8; stroke: #708090; stroke-opacity: 0.8"/>
     <use xlink:href="#med203a786a" x="463.584281" y="150.733983" style="fill: #708090; fill-opacity: 0.8; stroke: #708090; stroke-opacity: 0.8"/>
     <use xlink:href="#med203a786a" x="426.435824" y="117.474911" style="fill: #708090; fill-opacity: 0.8; stroke: #708090; stroke-opacity: 0.8"/>
     <use xlink:href="#med203a786a" x="466.972394" y="151.587383" style="fill: #708090; fill-opacity: 0.8; stroke: #708090; stroke-opacity: 0.8"/>
     <use xlink:href="#med203a786a" x="428.822782" y="121.678642" style="fill: #708090; fill-opacity: 0.8; stroke: #708090; stroke-opacity: 0.8"/>
     <use xlink:href="#med203a786a" x="436.814285" y="134.14463" style="fill: #708090; fill-opacity: 0.8; stroke: #708090; stroke-opacity: 0.8"/>
     <use xlink:href="#med203a786a" x="511.012171" y="130.250496" style="fill: #708090; fill-opacity: 0.8; stroke: #708090; stroke-opacity: 0.8"/>
     <use xlink:href="#med203a786a" x="412.343096" y="106.263692" style="fill: #708090; fill-opacity: 0.8; stroke: #708090; stroke-opacity: 0.8"/>
     <use xlink:href="#med203a786a" x="471.270682" y="158.09334" style="fill: #708090; fill-opacity: 0.8; stroke: #708090; stroke-opacity: 0.8"/>
     <use xlink:href="#med203a786a" x="391.044109" y="94.457026" style="fill: #708090; fill-opacity: 0.8; stroke: #708090; stroke-opacity: 0.8"/>
     <use xlink:href="#med203a786a" x="502.437031" y="133.308747" style="fill: #708090; fill-opacity: 0.8; stroke: #708090; stroke-opacity: 0.8"/>
     <use xlink:href="#med203a786a" x="495.660004" y="143.784781" style="fill: #708090; fill-opacity: 0.8; stroke: #708090; stroke-opacity: 0.8"/>
     <use xlink:href="#med203a786a" x="414.160167" y="111.966685" style="fill: #708090; fill-opacity: 0.8; stroke: #708090; stroke-opacity: 0.8"/>
     <use xlink:href="#med203a786a" x="508.960255" y="131.128908" style="fill: #708090; fill-opacity: 0.8; stroke: #708090; stroke-opacity: 0.8"/>
     <use xlink:href="#med203a786a" x="387.257654" y="86.113355" style="fill: #708090; fill-opacity: 0.8; stroke: #708090; stroke-opacity: 0.8"/>
     <use xlink:href="#med203a786a" x="428.555822" y="123.359038" style="fill: #708090; fill-opacity: 0.8; stroke: #708090; stroke-opacity: 0.8"/>
     <use xlink:href="#med203a786a" x="400.903941" y="89.295892" style="fill: #708090; fill-opacity: 0.8; stroke: #708090; stroke-opacity: 0.8"/>
     <use xlink:href="#med203a786a" x="445.55164" y="143.404416" style="fill: #708090; fill-opacity: 0.8; stroke: #708090; stroke-opacity: 0.8"/>
     <use xlink:href="#med203a786a" x="497.032783" y="135.797088" style="fill: #708090; fill-opacity: 0.8; stroke: #708090; stroke-opacity: 0.8"/>
     <use xlink:href="#med203a786a" x="412.861594" y="100.493899" style="fill: #708090; fill-opacity: 0.8; stroke: #708090; stroke-opacity: 0.8"/>
     <use xlink:href="#med203a786a" x="386.283527" y="82.220658" style="fill: #708090; fill-opacity: 0.8; stroke: #708090; stroke-opacity: 0.8"/>
     <use xlink:href="#med203a786a" x="438.73864" y="146.310701" style="fill: #708090; fill-opacity: 0.8; stroke: #708090; stroke-opacity: 0.8"/>
     <use xlink:href="#med203a786a" x="408.080901" y="96.171797" style="fill: #708090; fill-opacity: 0.8; stroke: #708090; stroke-opacity: 0.8"/>
     <use xlink:href="#med203a786a" x="392.046653" y="87.650347" style="fill: #708090; fill-opacity: 0.8; stroke: #708090; stroke-opacity: 0.8"/>
     <use xlink:href="#med203a786a" x="464.894075" y="152.763453" style="fill: #708090; fill-opacity: 0.8; stroke: #708090; stroke-opacity: 0.8"/>
     <use xlink:href="#med203a786a" x="422.987736" y="116.569936" style="fill: #708090; fill-opacity: 0.8; stroke: #708090; stroke-opacity: 0.8"/>
     <use xlink:href="#med203a786a" x="478.533078" y="151.706023" style="fill: #708090; fill-opacity: 0.8; stroke: #708090; stroke-opacity: 0.8"/>
     <use xlink:href="#med203a786a" x="408.230056" y="100.070401" style="fill: #708090; fill-opacity: 0.8; stroke: #708090; stroke-opacity: 0.8"/>
     <use xlink:href="#med203a786a" x="518.725565" y="116.528717" style="fill: #708090; fill-opacity: 0.8; stroke: #708090; stroke-opacity: 0.8"/>
     <use xlink:href="#med203a786a" x="432.869882" y="137.800276" style="fill: #708090; fill-opacity: 0.8; stroke: #708090; stroke-opacity: 0.8"/>
     <use xlink:href="#med203a786a" x="394.240238" y="90.6426" style="fill: #708090; fill-opacity: 0.8; stroke: #708090; stroke-opacity: 0.8"/>
     <use xlink:href="#med203a786a" x="472.151707" y="158.154518" style="fill: #708090; fill-opacity: 0.8; stroke: #708090; stroke-opacity: 0.8"/>
     <use xlink:href="#med203a786a" x="516.499798" y="113.272249" style="fill: #708090; fill-opacity: 0.8; stroke: #708090; stroke-opacity: 0.8"/>
     <use xlink:href="#med203a786a" x="444.069302" y="143.159366" style="fill: #708090; fill-opacity: 0.8; stroke: #708090; stroke-opacity: 0.8"/>
     <use xlink:href="#med203a786a" x="520.582161" y="112.49725" style="fill: #708090; fill-opacity: 0.8; stroke: #708090; stroke-opacity: 0.8"/>
     <use xlink:href="#med203a786a" x="452.92544" y="152.714666" style="fill: #708090; fill-opacity: 0.8; stroke: #708090; stroke-opacity: 0.8"/>
     <use xlink:href="#med203a786a" x="441.815256" y="141.867663" style="fill: #708090; fill-opacity: 0.8; stroke: #708090; stroke-opacity: 0.8"/>
     <use xlink:href="#med203a786a" x="470.828209" y="154.995719" style="fill: #708090; fill-opacity: 0.8; stroke: #708090; stroke-opacity: 0.8"/>
     <use xlink:href="#med203a786a" x="526.609282" y="112.077646" style="fill: #708090; fill-opacity: 0.8; stroke: #708090; stroke-opacity: 0.8"/>
     <use xlink:href="#med203a786a" x="519.741934" y="112.597099" style="fill: #708090; fill-opacity: 0.8; stroke: #708090; stroke-opacity: 0.8"/>
     <use xlink:href="#med203a786a" x="446.995816" y="145.067477" style="fill: #708090; fill-opacity: 0.8; stroke: #708090; stroke-opacity: 0.8"/>
    </g>
   </g>
   <g id="legend_1">
    <g id="patch_5">
     <path d="M 137.503203 18.405
L 150.103203 18.405
L 150.103203 12.105
L 137.503203 12.105
z
" style="fill: #ff0d57; fill-opacity: 0.22; stroke: #ff0d57; stroke-opacity: 0.9; stroke-width: 1.2"/>
    </g>
    <g id="text_15">
     <!-- Epistemic uncertainty (±2σ) -->
     <g style="fill: #1a1a1a" transform="translate(157.303203 18.405) scale(0.09 -0.09)">
      <defs>
       <path id="FiraSans-Regular-45" d="M 2957 3923
L 1248 3923
L 1248 2483
L 2733 2483
L 2733 1997
L 1248 1997
L 1248 486
L 3078 486
L 3078 0
L 640 0
L 640 4410
L 3027 4410
L 2957 3923
z
" transform="scale(0.015625)"/>
       <path id="FiraSans-Regular-70" d="M 2157 3450
Q 2803 3450 3104 2989
Q 3405 2528 3405 1690
Q 3405 896 3059 409
Q 2714 -77 2080 -77
Q 1517 -77 1197 307
L 1197 -1293
L 608 -1363
L 608 3373
L 1114 3373
L 1158 2918
Q 1344 3174 1606 3312
Q 1869 3450 2157 3450
z
M 1939 403
Q 2771 403 2771 1690
Q 2771 2982 2010 2982
Q 1760 2982 1555 2835
Q 1350 2688 1197 2458
L 1197 813
Q 1325 614 1517 508
Q 1709 403 1939 403
z
" transform="scale(0.015625)"/>
       <path id="FiraSans-Regular-69" d="M 1197 0
L 608 0
L 608 3373
L 1197 3373
L 1197 0
z
M 896 4992
Q 1082 4992 1197 4877
Q 1312 4762 1312 4589
Q 1312 4416 1197 4304
Q 1082 4192 896 4192
Q 717 4192 601 4304
Q 486 4416 486 4589
Q 486 4762 601 4877
Q 717 4992 896 4992
z
" transform="scale(0.015625)"/>
       <path id="FiraSans-Regular-73" d="M 1523 3450
Q 1869 3450 2144 3354
Q 2419 3258 2669 3066
L 2419 2694
Q 2189 2842 1981 2912
Q 1773 2982 1542 2982
Q 1254 2982 1088 2864
Q 922 2746 922 2541
Q 922 2336 1078 2221
Q 1235 2106 1645 1997
Q 2208 1856 2486 1613
Q 2765 1370 2765 947
Q 2765 448 2377 185
Q 1990 -77 1434 -77
Q 666 -77 160 365
L 474 723
Q 902 397 1421 397
Q 1754 397 1949 534
Q 2144 672 2144 909
Q 2144 1082 2073 1187
Q 2003 1293 1830 1373
Q 1658 1453 1325 1542
Q 787 1683 547 1920
Q 307 2157 307 2522
Q 307 2784 464 2998
Q 621 3213 899 3331
Q 1178 3450 1523 3450
z
" transform="scale(0.015625)"/>
       <path id="FiraSans-Regular-74" d="M 2310 154
Q 1978 -77 1555 -77
Q 1126 -77 886 169
Q 646 416 646 883
L 646 2918
L 58 2918
L 58 3373
L 646 3373
L 646 4134
L 1235 4205
L 1235 3373
L 2035 3373
L 1971 2918
L 1235 2918
L 1235 909
Q 1235 646 1328 528
Q 1421 410 1638 410
Q 1850 410 2086 557
L 2310 154
z
" transform="scale(0.015625)"/>
       <path id="FiraSans-Regular-65" d="M 3155 1786
Q 3155 1638 3142 1485
L 992 1485
Q 1030 928 1273 665
Q 1517 403 1901 403
Q 2144 403 2349 473
Q 2554 544 2778 698
L 3034 346
Q 2496 -77 1856 -77
Q 1152 -77 758 384
Q 365 845 365 1651
Q 365 2176 534 2582
Q 704 2989 1021 3219
Q 1338 3450 1766 3450
Q 2438 3450 2796 3008
Q 3155 2566 3155 1786
z
M 2573 1958
Q 2573 2458 2374 2720
Q 2176 2982 1779 2982
Q 1056 2982 992 1920
L 2573 1920
L 2573 1958
z
" transform="scale(0.015625)"/>
       <path id="FiraSans-Regular-6d" d="M 3994 3450
Q 4410 3450 4659 3171
Q 4909 2893 4909 2419
L 4909 0
L 4320 0
L 4320 2336
Q 4320 2989 3846 2989
Q 3597 2989 3424 2845
Q 3251 2701 3053 2394
L 3053 0
L 2464 0
L 2464 2336
Q 2464 2989 1990 2989
Q 1734 2989 1561 2841
Q 1389 2694 1197 2394
L 1197 0
L 608 0
L 608 3373
L 1114 3373
L 1165 2880
Q 1542 3450 2138 3450
Q 2451 3450 2672 3290
Q 2893 3130 2989 2842
Q 3187 3136 3427 3293
Q 3667 3450 3994 3450
z
" transform="scale(0.015625)"/>
       <path id="FiraSans-Regular-63" d="M 1837 3450
Q 2138 3450 2387 3363
Q 2637 3277 2867 3085
L 2586 2714
Q 2406 2842 2236 2902
Q 2067 2963 1862 2963
Q 1453 2963 1225 2636
Q 998 2310 998 1670
Q 998 1030 1222 726
Q 1446 422 1862 422
Q 2061 422 2227 483
Q 2394 544 2598 678
L 2867 294
Q 2406 -77 1837 -77
Q 1152 -77 758 384
Q 365 845 365 1658
Q 365 2195 544 2598
Q 723 3002 1052 3226
Q 1382 3450 1837 3450
z
" transform="scale(0.015625)"/>
       <path id="FiraSans-Regular-20" transform="scale(0.015625)"/>
       <path id="FiraSans-Regular-75" d="M 3117 0
L 2611 0
L 2566 525
Q 2374 211 2124 67
Q 1875 -77 1517 -77
Q 1075 -77 825 192
Q 576 461 576 954
L 576 3373
L 1165 3373
L 1165 1018
Q 1165 672 1286 528
Q 1408 384 1683 384
Q 2176 384 2528 966
L 2528 3373
L 3117 3373
L 3117 0
z
" transform="scale(0.015625)"/>
       <path id="FiraSans-Regular-6e" d="M 2195 3450
Q 2656 3450 2915 3174
Q 3174 2899 3174 2419
L 3174 0
L 2586 0
L 2586 2336
Q 2586 2694 2451 2841
Q 2317 2989 2054 2989
Q 1786 2989 1581 2835
Q 1376 2682 1197 2394
L 1197 0
L 608 0
L 608 3373
L 1114 3373
L 1165 2874
Q 1344 3142 1609 3296
Q 1875 3450 2195 3450
z
" transform="scale(0.015625)"/>
       <path id="FiraSans-Regular-72" d="M 2074 3450
Q 2253 3450 2406 3411
L 2298 2835
Q 2144 2874 2003 2874
Q 1690 2874 1498 2643
Q 1306 2413 1197 1926
L 1197 0
L 608 0
L 608 3373
L 1114 3373
L 1171 2688
Q 1306 3066 1536 3258
Q 1766 3450 2074 3450
z
" transform="scale(0.015625)"/>
       <path id="FiraSans-Regular-61" d="M 2880 787
Q 2880 582 2950 483
Q 3021 384 3162 333
L 3027 -77
Q 2765 -45 2605 70
Q 2445 186 2368 429
Q 2029 -77 1363 -77
Q 864 -77 576 204
Q 288 486 288 941
Q 288 1478 675 1766
Q 1062 2054 1773 2054
L 2291 2054
L 2291 2304
Q 2291 2662 2118 2816
Q 1946 2970 1587 2970
Q 1216 2970 678 2790
L 531 3219
Q 1158 3450 1696 3450
Q 2291 3450 2585 3158
Q 2880 2867 2880 2330
L 2880 787
z
M 1498 365
Q 2003 365 2291 890
L 2291 1664
L 1850 1664
Q 915 1664 915 973
Q 915 672 1062 518
Q 1210 365 1498 365
z
" transform="scale(0.015625)"/>
       <path id="FiraSans-Regular-79" d="M 1958 -19
Q 1760 -608 1405 -950
Q 1050 -1293 390 -1363
L 326 -902
Q 659 -845 857 -736
Q 1056 -627 1174 -457
Q 1293 -288 1395 0
L 1197 0
L 64 3373
L 691 3373
L 1594 429
L 2477 3373
L 3085 3373
L 1958 -19
z
" transform="scale(0.015625)"/>
       <path id="FiraSans-Regular-28" d="M 1818 5152
Q 1485 4659 1289 4272
Q 1094 3885 982 3392
Q 870 2899 870 2240
Q 870 1587 982 1094
Q 1094 602 1289 208
Q 1485 -186 1818 -672
L 1446 -928
Q 1024 -326 797 61
Q 570 448 413 989
Q 256 1530 256 2240
Q 256 2950 413 3491
Q 570 4032 797 4419
Q 1024 4806 1446 5408
L 1818 5152
z
" transform="scale(0.015625)"/>
       <path id="FiraSans-Regular-b1" d="M 397 492
L 2803 492
L 2803 0
L 397 0
L 397 492
z
M 1869 2509
L 2803 2509
L 2803 2022
L 1869 2022
L 1869 1069
L 1331 1069
L 1331 2022
L 403 2022
L 403 2509
L 1331 2509
L 1331 3469
L 1869 3469
L 1869 2509
z
" transform="scale(0.015625)"/>
       <path id="FiraSans-Regular-32" d="M 1459 4346
Q 1843 4346 2134 4192
Q 2426 4038 2586 3772
Q 2746 3507 2746 3174
Q 2746 2784 2570 2425
Q 2394 2067 2029 1651
Q 1664 1235 922 493
L 2848 493
L 2778 0
L 250 0
L 250 467
Q 1107 1357 1465 1769
Q 1824 2182 1977 2489
Q 2131 2797 2131 3149
Q 2131 3482 1939 3670
Q 1747 3859 1427 3859
Q 1165 3859 966 3750
Q 768 3642 557 3392
L 160 3699
Q 422 4026 742 4186
Q 1062 4346 1459 4346
z
" transform="scale(0.015625)"/>
       <path id="FiraSans-Regular-3c3" d="M 3584 2899
L 2778 2957
Q 3040 2810 3206 2477
Q 3373 2144 3373 1690
Q 3373 1165 3193 765
Q 3014 365 2675 144
Q 2336 -77 1869 -77
Q 1158 -77 761 396
Q 365 870 365 1683
Q 365 2477 784 2944
Q 1203 3411 2029 3411
Q 2714 3411 3584 3373
L 3584 2899
z
M 1869 397
Q 2739 397 2739 1690
Q 2739 2144 2608 2473
Q 2477 2803 2278 2970
L 2246 2970
Q 1766 2970 1497 2842
Q 1229 2714 1113 2435
Q 998 2157 998 1683
Q 998 397 1869 397
z
" transform="scale(0.015625)"/>
       <path id="FiraSans-Regular-29" d="M 627 5408
Q 1050 4806 1277 4419
Q 1504 4032 1661 3491
Q 1818 2950 1818 2240
Q 1818 1530 1661 989
Q 1504 448 1277 61
Q 1050 -326 627 -928
L 256 -672
Q 589 -186 784 208
Q 979 602 1091 1094
Q 1203 1587 1203 2240
Q 1203 2899 1091 3392
Q 979 3885 784 4272
Q 589 4659 256 5152
L 627 5408
z
" transform="scale(0.015625)"/>
      </defs>
      <use xlink:href="#FiraSans-Regular-45"/>
      <use xlink:href="#FiraSans-Regular-70" transform="translate(53.499985 0)"/>
      <use xlink:href="#FiraSans-Regular-69" transform="translate(112.899979 0)"/>
      <use xlink:href="#FiraSans-Regular-73" transform="translate(141.099976 0)"/>
      <use xlink:href="#FiraSans-Regular-74" transform="translate(187.799973 0)"/>
      <use xlink:href="#FiraSans-Regular-65" transform="translate(223.899963 0)"/>
      <use xlink:href="#FiraSans-Regular-6d" transform="translate(278.899948 0)"/>
      <use xlink:href="#FiraSans-Regular-69" transform="translate(364.59993 0)"/>
      <use xlink:href="#FiraSans-Regular-63" transform="translate(392.799927 0)"/>
      <use xlink:href="#FiraSans-Regular-20" transform="translate(440.599915 0)"/>
      <use xlink:href="#FiraSans-Regular-75" transform="translate(467.099899 0)"/>
      <use xlink:href="#FiraSans-Regular-6e" transform="translate(525.299896 0)"/>
      <use xlink:href="#FiraSans-Regular-63" transform="translate(583.899887 0)"/>
      <use xlink:href="#FiraSans-Regular-65" transform="translate(631.699875 0)"/>
      <use xlink:href="#FiraSans-Regular-72" transform="translate(686.69986 0)"/>
      <use xlink:href="#FiraSans-Regular-74" transform="translate(725.29985 0)"/>
      <use xlink:href="#FiraSans-Regular-61" transform="translate(761.399841 0)"/>
      <use xlink:href="#FiraSans-Regular-69" transform="translate(815.799835 0)"/>
      <use xlink:href="#FiraSans-Regular-6e" transform="translate(843.999832 0)"/>
      <use xlink:href="#FiraSans-Regular-74" transform="translate(902.599823 0)"/>
      <use xlink:href="#FiraSans-Regular-79" transform="translate(938.699814 0)"/>
      <use xlink:href="#FiraSans-Regular-20" transform="translate(987.899811 0)"/>
      <use xlink:href="#FiraSans-Regular-28" transform="translate(1014.399796 0)"/>
      <use xlink:href="#FiraSans-Regular-b1" transform="translate(1046.799789 0)"/>
      <use xlink:href="#FiraSans-Regular-32" transform="translate(1096.799774 0)"/>
      <use xlink:href="#FiraSans-Regular-3c3" transform="translate(1146.299759 0)"/>
      <use xlink:href="#FiraSans-Regular-29" transform="translate(1204.999756 0)"/>
     </g>
    </g>
    <g id="line2d_15">
     <path d="M 279.469766 15.255
L 285.769766 15.255
L 292.069766 15.255
" style="fill: none; stroke-dasharray: 5.18,2.24; stroke-dashoffset: 0; stroke: #9aa4b0; stroke-opacity: 0.8; stroke-width: 1.4"/>
    </g>
    <g id="text_16">
     <!-- True function -->
     <g style="fill: #1a1a1a" transform="translate(299.269766 18.405) scale(0.09 -0.09)">
      <defs>
       <path id="FiraSans-Regular-54" d="M 3181 3891
L 1958 3891
L 1958 0
L 1350 0
L 1350 3891
L 96 3891
L 96 4410
L 3245 4410
L 3181 3891
z
" transform="scale(0.015625)"/>
       <path id="FiraSans-Regular-66" d="M 1754 4326
Q 1485 4326 1369 4208
Q 1254 4090 1254 3840
L 1254 3373
L 2074 3373
L 2010 2918
L 1254 2918
L 1254 0
L 666 0
L 666 2918
L 64 2918
L 64 3373
L 666 3373
L 666 3834
Q 666 4269 944 4534
Q 1222 4800 1722 4800
Q 1952 4800 2134 4758
Q 2317 4717 2528 4627
L 2342 4198
Q 2054 4326 1754 4326
z
" transform="scale(0.015625)"/>
       <path id="FiraSans-Regular-6f" d="M 1875 3450
Q 2586 3450 2979 2976
Q 3373 2502 3373 1690
Q 3373 1165 3193 765
Q 3014 365 2675 144
Q 2336 -77 1869 -77
Q 1158 -77 761 396
Q 365 870 365 1683
Q 365 2208 544 2608
Q 723 3008 1062 3229
Q 1402 3450 1875 3450
z
M 1875 2976
Q 998 2976 998 1683
Q 998 397 1869 397
Q 2739 397 2739 1690
Q 2739 2976 1875 2976
z
" transform="scale(0.015625)"/>
      </defs>
      <use xlink:href="#FiraSans-Regular-54"/>
      <use xlink:href="#FiraSans-Regular-72" transform="translate(51.699997 0)"/>
      <use xlink:href="#FiraSans-Regular-75" transform="translate(90.299988 0)"/>
      <use xlink:href="#FiraSans-Regular-65" transform="translate(148.499985 0)"/>
      <use xlink:href="#FiraSans-Regular-20" transform="translate(203.499969 0)"/>
      <use xlink:href="#FiraSans-Regular-66" transform="translate(229.999954 0)"/>
      <use xlink:href="#FiraSans-Regular-75" transform="translate(263.499939 0)"/>
      <use xlink:href="#FiraSans-Regular-6e" transform="translate(321.699936 0)"/>
      <use xlink:href="#FiraSans-Regular-63" transform="translate(380.299927 0)"/>
      <use xlink:href="#FiraSans-Regular-74" transform="translate(428.099915 0)"/>
      <use xlink:href="#FiraSans-Regular-69" transform="translate(464.199905 0)"/>
      <use xlink:href="#FiraSans-Regular-6f" transform="translate(492.399902 0)"/>
      <use xlink:href="#FiraSans-Regular-6e" transform="translate(550.799896 0)"/>
     </g>
    </g>
    <g id="line2d_16">
     <path d="M 364.914922 15.255
L 371.214922 15.255
L 377.514922 15.255
" style="fill: none; stroke: #1e88e5; stroke-width: 2.2; stroke-linecap: square"/>
    </g>
    <g id="text_17">
     <!-- Ensemble mean -->
     <g style="fill: #1a1a1a" transform="translate(384.714922 18.405) scale(0.09 -0.09)">
      <defs>
       <path id="FiraSans-Regular-62" d="M 2150 3450
Q 2726 3450 3065 2986
Q 3405 2522 3405 1690
Q 3405 1165 3245 765
Q 3085 365 2784 144
Q 2483 -77 2080 -77
Q 1549 -77 1184 371
L 1126 0
L 608 0
L 608 4730
L 1197 4800
L 1197 2950
Q 1562 3450 2150 3450
z
M 1939 390
Q 2330 390 2550 707
Q 2771 1024 2771 1690
Q 2771 2374 2566 2678
Q 2362 2982 1984 2982
Q 1536 2982 1197 2458
L 1197 845
Q 1331 634 1526 512
Q 1722 390 1939 390
z
" transform="scale(0.015625)"/>
       <path id="FiraSans-Regular-6c" d="M 1280 -77
Q 954 -77 765 118
Q 576 314 576 666
L 576 4730
L 1165 4800
L 1165 678
Q 1165 538 1213 474
Q 1261 410 1376 410
Q 1498 410 1594 448
L 1747 38
Q 1536 -77 1280 -77
z
" transform="scale(0.015625)"/>
      </defs>
      <use xlink:href="#FiraSans-Regular-45"/>
      <use xlink:href="#FiraSans-Regular-6e" transform="translate(53.499985 0)"/>
      <use xlink:href="#FiraSans-Regular-73" transform="translate(112.099976 0)"/>
      <use xlink:href="#FiraSans-Regular-65" transform="translate(158.799973 0)"/>
      <use xlink:href="#FiraSans-Regular-6d" transform="translate(213.799957 0)"/>
      <use xlink:href="#FiraSans-Regular-62" transform="translate(299.499939 0)"/>
      <use xlink:href="#FiraSans-Regular-6c" transform="translate(358.899933 0)"/>
      <use xlink:href="#FiraSans-Regular-65" transform="translate(388.199921 0)"/>
      <use xlink:href="#FiraSans-Regular-20" transform="translate(443.199905 0)"/>
      <use xlink:href="#FiraSans-Regular-6d" transform="translate(469.69989 0)"/>
      <use xlink:href="#FiraSans-Regular-65" transform="translate(555.399872 0)"/>
      <use xlink:href="#FiraSans-Regular-61" transform="translate(610.399857 0)"/>
      <use xlink:href="#FiraSans-Regular-6e" transform="translate(664.79985 0)"/>
     </g>
    </g>
    <g id="PathCollection_2">
     <g>
      <use xlink:href="#med203a786a" x="466.921484" y="16.0425" style="fill: #708090; fill-opacity: 0.8; stroke: #708090; stroke-opacity: 0.8"/>
     </g>
    </g>
    <g id="text_18">
     <!-- Training data -->
     <g style="fill: #1a1a1a" transform="translate(480.421484 18.405) scale(0.09 -0.09)">
      <defs>
       <path id="FiraSans-Regular-67" d="M 3328 3219
Q 3136 3155 2905 3136
Q 2675 3117 2342 3117
Q 2938 2848 2938 2266
Q 2938 1760 2592 1440
Q 2246 1120 1651 1120
Q 1421 1120 1222 1184
Q 1146 1133 1101 1046
Q 1056 960 1056 870
Q 1056 595 1498 595
L 2035 595
Q 2374 595 2636 473
Q 2899 352 3043 141
Q 3187 -70 3187 -339
Q 3187 -832 2784 -1097
Q 2381 -1363 1606 -1363
Q 1062 -1363 745 -1251
Q 429 -1139 294 -915
Q 160 -691 160 -339
L 691 -339
Q 691 -544 768 -662
Q 845 -781 1043 -841
Q 1242 -902 1606 -902
Q 2138 -902 2365 -771
Q 2592 -640 2592 -378
Q 2592 -141 2413 -19
Q 2234 102 1914 102
L 1382 102
Q 954 102 733 284
Q 512 467 512 742
Q 512 909 608 1062
Q 704 1216 883 1338
Q 589 1491 451 1718
Q 314 1946 314 2272
Q 314 2611 483 2880
Q 653 3149 950 3299
Q 1248 3450 1613 3450
Q 2010 3443 2278 3478
Q 2547 3514 2723 3574
Q 2899 3635 3155 3750
L 3328 3219
z
M 1613 3027
Q 1280 3027 1097 2819
Q 915 2611 915 2272
Q 915 1926 1100 1718
Q 1286 1510 1626 1510
Q 1971 1510 2153 1712
Q 2336 1914 2336 2278
Q 2336 3027 1613 3027
z
" transform="scale(0.015625)"/>
       <path id="FiraSans-Regular-64" d="M 3219 4730
L 3219 0
L 2701 0
L 2643 467
Q 2477 211 2227 67
Q 1978 -77 1670 -77
Q 1069 -77 733 396
Q 397 870 397 1670
Q 397 2189 557 2592
Q 717 2995 1017 3222
Q 1318 3450 1722 3450
Q 2240 3450 2630 3034
L 2630 4800
L 3219 4730
z
M 1798 390
Q 2067 390 2259 515
Q 2451 640 2630 890
L 2630 2541
Q 2464 2758 2275 2870
Q 2086 2982 1850 2982
Q 1459 2982 1244 2656
Q 1030 2330 1030 1683
Q 1030 1030 1228 710
Q 1427 390 1798 390
z
" transform="scale(0.015625)"/>
      </defs>
      <use xlink:href="#FiraSans-Regular-54"/>
      <use xlink:href="#FiraSans-Regular-72" transform="translate(51.699997 0)"/>
      <use xlink:href="#FiraSans-Regular-61" transform="translate(90.299988 0)"/>
      <use xlink:href="#FiraSans-Regular-69" transform="translate(144.699982 0)"/>
      <use xlink:href="#FiraSans-Regular-6e" transform="translate(172.899979 0)"/>
      <use xlink:href="#FiraSans-Regular-69" transform="translate(231.499969 0)"/>
      <use xlink:href="#FiraSans-Regular-6e" transform="translate(259.699966 0)"/>
      <use xlink:href="#FiraSans-Regular-67" transform="translate(318.299957 0)"/>
      <use xlink:href="#FiraSans-Regular-20" transform="translate(370.299942 0)"/>
      <use xlink:href="#FiraSans-Regular-64" transform="translate(396.799927 0)"/>
      <use xlink:href="#FiraSans-Regular-61" transform="translate(456.599915 0)"/>
      <use xlink:href="#FiraSans-Regular-74" transform="translate(510.999908 0)"/>
      <use xlink:href="#FiraSans-Regular-61" transform="translate(547.099899 0)"/>
     </g>
    </g>
   </g>
  </g>
 </g>
 <defs>
  <clipPath id="p70fb7e3bfa">
   <rect x="38.437969" y="31.28705" width="595.18375" height="178.66906"/>
  </clipPath>
 </defs>
</svg>
